<?xml version="1.0" encoding="iso-8859-1"?>
<!-- Generator: Adobe Illustrator 19.0.0, SVG Export Plug-In . SVG Version: 6.00 Build 0)  -->
<svg version="1.1" id="Capa_1" xmlns="http://www.w3.org/2000/svg" xmlns:xlink="http://www.w3.org/1999/xlink" x="0px" y="0px"
	 viewBox="0 0 512.001 512.001" style="enable-background:new 0 0 512.001 512.001;" xml:space="preserve">
<path style="fill:#FFD96F;" d="M388.765,245.346c6.727,1.391,13.696,2.121,20.835,2.121c56.554,0,102.401-45.846,102.401-102.4
	s-45.846-102.4-102.401-102.4c-56.554,0-102.4,45.846-102.4,102.4c0,11.969,2.053,23.457,5.827,34.133L388.765,245.346z"/>
<path style="fill:#FFC065;" d="M409.599,42.668c-3.831,0-7.611,0.217-11.333,0.627c51.221,5.64,91.067,49.05,91.067,101.774
	s-39.848,96.133-91.069,101.774c3.722,0.41,7.503,0.627,11.335,0.627c56.554,0,102.401-45.846,102.401-102.4
	C512,88.514,466.154,42.668,409.599,42.668z"/>
<path style="fill:#FF8A4C;" d="M407.45,213.303c0.714,0.022,1.431,0.033,2.15,0.033c37.704,0,68.268-30.564,68.268-68.268
	S447.304,76.799,409.6,76.799s-68.268,30.564-68.268,68.268c0,12.433,3.324,24.091,9.132,34.132L407.45,213.303z"/>
<path style="fill:#FFC065;" d="M463.015,187.556l-42.488-42.488l42.489-42.489c-3.219-4.041-6.885-7.707-10.926-10.926
	l-42.49,42.488l-42.489-42.489c-4.041,3.219-7.708,6.885-10.926,10.926l42.489,42.489l-28.669,28.669
	c-3.017,3.017-3.017,7.91,0,10.927c1.508,1.508,3.486,2.263,5.463,2.263s3.955-0.755,5.463-2.263l28.669-28.669l42.489,42.489
	C456.129,195.263,459.796,191.598,463.015,187.556z"/>
<rect x="187.73" y="299.979" style="fill:#00D1C4;" width="34.14" height="150.973"/>
<path id="SVGCleanerId_0" style="fill:#D3FFE9;" d="M300.33,469.333c3.912,0,6.906-3.603,6.06-7.421
	c-3.388-15.282-17.021-26.711-33.322-26.711H136.53c-16.302,0-29.934,11.428-33.322,26.711c-0.847,3.819,2.148,7.421,6.06,7.421
	H300.33z"/>
<g>
	<path id="SVGCleanerId_0_1_" style="fill:#D3FFE9;" d="M300.33,469.333c3.912,0,6.906-3.603,6.06-7.421
		c-3.388-15.282-17.021-26.711-33.322-26.711H136.53c-16.302,0-29.934,11.428-33.322,26.711c-0.847,3.819,2.148,7.421,6.06,7.421
		H300.33z"/>
</g>
<path style="fill:#B4F5D5;" d="M306.389,461.912c-3.388-15.282-17.021-26.71-33.322-26.71h-20.604
	c16.302,0,29.934,11.429,33.322,26.71c0.847,3.819-2.148,7.421-6.06,7.421h20.604C304.241,469.333,307.236,465.731,306.389,461.912z
	"/>
<path style="fill:#D3FFE9;" d="M68.264,264.531C30.562,264.531,0,233.969,0,196.269v-10.887c0-3.414,2.767-6.181,6.181-6.181
	h397.238c3.414,0,6.181,2.768,6.181,6.181l-0.001,10.886c0,37.702-30.563,68.265-68.265,68.265h-11.222
	c-3.132,0-5.805,2.34-6.135,5.455c-2.723,25.711-24.477,45.743-50.911,45.743l-136.535,0.003c-26.434,0-48.191-20.034-50.913-45.746
	c-0.33-3.114-3.002-5.454-6.135-5.454L68.264,264.531z"/>
<g>
	<path style="fill:#B4F5D5;" d="M276.294,256.807H133.302c-4.267,0-7.726,3.459-7.726,7.726s3.459,7.726,7.726,7.726h142.991
		c4.267,0,7.726-3.459,7.726-7.726S280.561,256.807,276.294,256.807z"/>
	<path style="fill:#B4F5D5;" d="M403.419,179.201h-20.604c3.414,0,6.181,2.768,6.181,6.181l-0.001,10.886
		c0,37.702-30.563,68.265-68.265,68.265h-11.222c-3.132,0-5.805,2.34-6.135,5.454c-2.723,25.711-24.477,45.743-50.911,45.743
		l-115.953,0.003c0.007,0,0.014,0,0.022,0l136.535-0.003c26.433,0,48.188-20.032,50.911-45.743c0.33-3.114,3.003-5.454,6.135-5.454
		h11.222c37.702,0,68.265-30.563,68.265-68.265l0.001-10.886C409.6,181.969,406.833,179.201,403.419,179.201z"/>
</g>
<g>
</g>
<g>
</g>
<g>
</g>
<g>
</g>
<g>
</g>
<g>
</g>
<g>
</g>
<g>
</g>
<g>
</g>
<g>
</g>
<g>
</g>
<g>
</g>
<g>
</g>
<g>
</g>
<g>
</g>
</svg>
