<svg height="512" viewBox="0 0 512 512" width="512" xmlns="http://www.w3.org/2000/svg"><g id="Flat"><path d="m240 280h32v176h-32z" fill="#92d8e0"/><path d="m192 456h128a32 32 0 0 1 32 32 0 0 0 0 1 0 0h-192a0 0 0 0 1 0 0 32 32 0 0 1 32-32z" fill="#a0dde5"/><path d="m416 112-27.43 32-116.57 136h-32l-116.57-136-27.43-32z" fill="#a0dde5"/><path d="m388.57 144-116.57 136h-32l-116.57-136z" fill="#f35244"/><path d="m488 104v8h-160v-8a80 80 0 1 1 160 0z" fill="#7eb457"/><path d="m464 104v8h-112v-8a55.991 55.991 0 0 1 93.9-41.22c.58.53 1.15 1.07 1.7 1.62a56.414 56.414 0 0 1 8.46 10.85 55.74 55.74 0 0 1 7.94 28.75z" fill="#d0d24b"/><path d="m456.06 75.25-36.75 36.75h-22.62l-36.75-36.75a55.558 55.558 0 0 1 10.16-12.47l29.9 29.91v-44.12a56.425 56.425 0 0 1 16 0v44.12l29.9-29.91c.58.53 1.15 1.07 1.7 1.62a56.414 56.414 0 0 1 8.46 10.85z" fill="#dee051"/><g fill="#fc685b"><path d="m180.502 163.829h16v13.836h-16z" transform="matrix(.759 -.651 .651 .759 -65.74 163.779)"/><path d="m210.322 181.22h16v48.634h-16z" transform="matrix(.759 -.651 .651 .759 -81.202 191.56)"/></g></g></svg>