<?xml version="1.0" encoding="iso-8859-1"?>
<!-- Generator: Adobe Illustrator 19.0.0, SVG Export Plug-In . SVG Version: 6.00 Build 0)  -->
<svg version="1.1" id="Capa_1" xmlns="http://www.w3.org/2000/svg" xmlns:xlink="http://www.w3.org/1999/xlink" x="0px" y="0px"
	 viewBox="0 0 512 512" style="enable-background:new 0 0 512 512;" xml:space="preserve">
<path style="fill:#96C8EF;" d="M474.323,16.072L453.96,228.914l-15.617,163.179H73.657L58.04,228.914L37.677,16.072
	C36.849,7.457,43.665,0,52.362,0h407.275C468.335,0,475.151,7.457,474.323,16.072z"/>
<path style="fill:#B3D8F4;" d="M474.323,16.072L453.96,228.914l-15.617,163.179H120.021l-15.617-163.179L84.041,16.072
	C83.213,7.457,90.029,0,98.726,0h360.911C468.335,0,475.151,7.457,474.323,16.072z"/>
<path style="fill:#96C8EF;" d="M438.343,392.093v112.937c0,3.847-3.113,6.971-6.96,6.971H80.617c-3.847,0-6.96-3.123-6.96-6.971
	V392.093H438.343z"/>
<path style="fill:#C2DFF6;" d="M168.408,306.776l-64.623-96.713c-2.813-4.21-1.681-9.904,2.53-12.717l97.28-65.003
	c4.21-2.813,9.904-1.681,12.717,2.53l64.623,96.713c2.813,4.21,1.681,9.904-2.53,12.717l-97.28,65.003
	C176.914,312.119,171.221,310.986,168.408,306.776z"/>
<path style="fill:#D1E7F8;" d="M364.755,160.598l38.531,109.749c1.677,4.778-0.836,10.01-5.614,11.688l-110.393,38.757
	c-4.778,1.678-10.01-0.836-11.688-5.614L237.06,205.429c-1.678-4.778,0.836-10.01,5.614-11.688l110.393-38.757
	C357.845,153.307,363.078,155.82,364.755,160.598z"/>
<polygon style="fill:#EE8700;" points="453.96,228.914 443.545,337.703 438.343,392.093 73.657,392.093 68.455,337.703 
	58.04,228.914 "/>
<path style="fill:#B3D8F4;" d="M438.343,450.95v54.079c0,3.847-3.113,6.971-6.96,6.971H80.617c-3.847,0-6.96-3.123-6.96-6.971
	V450.95H438.343z"/>
<path style="fill:#CC7400;" d="M112.691,315.512l-8.288-86.598H58.04l15.617,163.179h46.364h318.322l5.202-54.39H137.108
	C124.467,337.703,113.896,328.096,112.691,315.512z"/>
<g>
</g>
<g>
</g>
<g>
</g>
<g>
</g>
<g>
</g>
<g>
</g>
<g>
</g>
<g>
</g>
<g>
</g>
<g>
</g>
<g>
</g>
<g>
</g>
<g>
</g>
<g>
</g>
<g>
</g>
</svg>
