<?xml version="1.0" standalone="no"?>
<!DOCTYPE svg PUBLIC "-//W3C//DTD SVG 20010904//EN"
 "http://www.w3.org/TR/2001/REC-SVG-20010904/DTD/svg10.dtd">
<svg version="1.0" xmlns="http://www.w3.org/2000/svg"
 width="652.000000pt" height="434.000000pt" viewBox="0 0 652.000000 434.000000"
 preserveAspectRatio="xMidYMid meet">

<g transform="translate(0.000000,434.000000) scale(0.100000,-0.100000)"
fill="#000000" stroke="none">
<path d="M1955 3906 c-53 -35 -154 -134 -187 -182 -163 -241 -137 -510 70
-723 69 -70 71 -72 25 -16 -72 87 -119 154 -137 199 -25 61 -19 56 21 -14 106
-189 262 -316 487 -396 67 -24 50 -9 -22 19 -89 35 -206 105 -262 156 l-45 41
55 -30 c30 -16 62 -30 70 -30 8 0 -17 18 -55 40 -39 21 -82 51 -95 66 -24 26
-12 25 20 -2 33 -27 154 -68 204 -67 84 0 216 15 216 24 0 5 16 9 35 9 19 0
35 5 35 10 0 6 -7 10 -16 10 -8 0 -12 5 -9 10 4 6 14 9 23 8 9 -2 16 3 15 10
-4 15 9 16 25 0 9 -9 12 -9 12 1 0 7 -10 22 -22 33 -13 11 -18 17 -11 14 19
-10 24 11 6 29 -24 25 0 39 60 35 32 -2 36 19 8 44 -11 10 -17 25 -14 37 5 17
-5 24 -29 20 -4 0 -5 6 -2 14 4 8 10 15 14 15 12 0 51 -56 45 -64 -3 -3 -2 -4
1 -1 4 2 16 -1 27 -7 17 -9 15 -2 -13 48 -18 33 -34 61 -36 63 -2 3 -14 -6
-25 -18 -15 -16 -27 -21 -43 -16 -11 4 -67 9 -123 12 -99 5 -103 4 -103 -16 0
-20 -4 -23 -45 -25 -12 -1 -21 -11 -25 -26 -5 -22 -12 -25 -50 -27 -25 -1 -60
-4 -77 -8 -27 -5 -32 -4 -27 10 6 14 3 14 -22 3 -61 -26 -134 -89 -113 -96 11
-4 2 -22 -12 -22 -16 0 -10 33 14 74 16 28 42 50 94 80 81 46 153 99 226 166
38 36 49 53 53 85 6 48 -21 98 -67 123 -66 37 -64 33 -37 93 19 42 22 60 14
80 -5 15 -6 34 -3 43 8 21 49 37 62 25 5 -5 17 -9 28 -9 23 0 13 -18 -17 -30
-19 -7 -20 -9 -3 -15 23 -10 83 43 67 59 -7 7 -3 16 12 28 l23 18 -23 0 c-43
0 -135 -40 -219 -96 -159 -105 -259 -219 -305 -348 l-19 -51 4 60 c9 118 74
240 189 352 35 34 74 71 88 82 39 32 20 24 -35 -13z m76 -321 c-1 -15 -24 -12
-29 3 -3 9 2 13 12 10 10 -1 17 -7 17 -13z m-111 -20 c0 -8 -4 -15 -10 -15 -5
0 -10 7 -10 15 0 8 5 15 10 15 6 0 10 -7 10 -15z m-39 -42 c-5 -10 -27 -36
-48 -59 -21 -22 -44 -59 -51 -82 -8 -24 -19 -42 -27 -42 -18 0 -18 -5 -3 -33
10 -20 10 -21 -5 -8 -21 17 -23 63 -3 55 14 -5 26 34 26 83 0 19 4 24 15 19
10 -3 18 1 22 12 8 19 63 72 76 72 4 0 3 -8 -2 -17z m575 -318 l14 -27 -34 29
c-19 15 -35 34 -35 41 -1 20 38 -11 55 -43z m-270 11 c22 -17 11 -35 -13 -20
-19 12 -29 34 -16 34 5 0 18 -6 29 -14z m-246 -86 c0 -5 -7 -7 -15 -4 -8 4
-12 10 -9 15 6 11 24 2 24 -11z m140 -94 c0 -3 -4 -8 -10 -11 -5 -3 -10 -1
-10 4 0 6 5 11 10 11 6 0 10 -2 10 -4z"/>
<path d="M2470 3892 c0 -16 39 -44 50 -37 8 5 6 13 -6 26 -17 19 -44 26 -44
11z"/>
<path d="M2880 3893 c-83 -4 -120 -12 -120 -27 0 -9 19 -15 61 -18 44 -3 64
-9 71 -21 5 -10 26 -26 47 -37 21 -10 49 -32 62 -47 43 -50 84 -73 132 -73 44
0 80 -21 57 -35 -5 -3 -14 -4 -19 0 -5 3 -12 1 -15 -4 -4 -5 -2 -12 4 -16 5
-3 10 -19 10 -34 0 -15 8 -36 19 -45 26 -24 33 -79 15 -122 l-15 -36 30 7 c19
4 31 3 31 -4 0 -6 -7 -7 -17 -4 -11 4 -14 3 -9 -5 11 -19 27 -14 55 16 49 54
60 71 51 77 -13 8 -32 -4 -25 -16 4 -5 0 -9 -8 -9 -18 0 -47 32 -47 53 0 9 -8
17 -17 17 -17 1 -17 1 0 11 12 7 22 7 30 0 11 -8 43 -15 100 -20 11 -1 9 -39
-3 -46 -5 -3 -10 -19 -10 -35 0 -31 -30 -60 -62 -60 -23 0 -23 -19 -1 -36 24
-17 8 -32 -17 -16 -21 13 -59 16 -83 6 -12 -4 -13 -10 -4 -28 19 -35 50 -70
85 -96 35 -26 42 -50 15 -50 -14 0 -15 -2 -5 -9 7 -4 20 -21 28 -36 14 -28 7
-44 -19 -45 -5 0 -20 -14 -34 -31 -20 -23 -31 -29 -47 -24 -27 9 -86 12 -85 5
0 -3 21 -22 45 -42 51 -43 82 -48 109 -18 18 20 64 25 57 6 -2 -5 2 -13 10
-17 19 -13 30 -11 22 4 -5 8 -2 7 10 -2 16 -13 17 -11 15 27 -2 23 -7 42 -12
42 -4 0 -5 9 -2 21 5 15 -1 30 -22 53 -43 46 -57 66 -46 66 5 0 22 -18 39 -40
16 -22 37 -42 46 -45 16 -6 56 -91 46 -100 -3 -3 -10 13 -17 35 -6 22 -17 40
-23 40 -6 0 -8 -9 -4 -22 18 -63 18 -89 1 -108 -32 -36 0 -21 60 28 59 47 60
49 83 137 49 188 40 318 -34 472 -36 77 -41 97 -21 91 6 -2 32 -44 57 -94 32
-66 49 -89 60 -86 13 4 13 3 2 -11 -9 -10 -11 -27 -7 -47 7 -32 14 -36 33 -20
8 7 9 7 3 -1 -5 -6 -7 -18 -4 -27 4 -9 2 -13 -4 -9 -7 5 -11 -17 -12 -64 -1
-91 -26 -207 -51 -241 -11 -15 -20 -34 -20 -43 0 -8 -3 -15 -7 -15 -5 -1 -35
-26 -68 -57 -59 -55 -37 -45 49 22 137 106 226 280 226 442 0 98 -56 279 -105
338 -20 24 -18 19 22 -65 16 -36 33 -78 37 -95 l6 -30 -16 25 -15 25 6 -25 c4
-14 9 -67 12 -118 5 -79 3 -91 -9 -87 -16 7 -38 47 -38 71 0 38 -133 234 -160
234 -10 0 -23 6 -27 13 -23 35 -154 148 -188 162 l-40 16 27 -25 c15 -13 24
-26 21 -29 -9 -9 -57 15 -87 45 -22 22 -32 26 -42 17 -11 -9 -24 -6 -58 9 -66
32 -110 39 -206 35z m407 -219 c-3 -3 -12 -4 -19 -1 -8 3 -5 6 6 6 11 1 17 -2
13 -5z m183 -430 c0 -8 -4 -14 -10 -14 -5 0 -10 9 -10 21 0 11 5 17 10 14 6
-3 10 -13 10 -21z m166 -30 c-4 -9 -9 -15 -11 -12 -3 3 -3 13 1 22 4 9 9 15
11 12 3 -3 3 -13 -1 -22z m45 -17 c-8 -8 -11 -7 -11 4 0 20 13 34 18 19 3 -7
-1 -17 -7 -23z m-69 -129 c-17 -24 -39 -51 -49 -58 -14 -11 -13 -9 3 10 11 14
31 42 44 63 12 21 24 36 27 33 3 -2 -9 -24 -25 -48z"/>
<path d="M2707 3813 c-38 -27 -44 -43 -9 -24 11 6 27 9 34 6 8 -3 14 4 14 20
1 14 1 25 0 25 -1 0 -18 -12 -39 -27z"/>
<path d="M2519 3813 c-13 -16 -12 -17 4 -4 9 7 17 15 17 17 0 8 -8 3 -21 -13z"/>
<path d="M2598 3814 c-38 -20 -36 -28 2 -9 17 9 30 18 30 20 0 7 -1 6 -32 -11z"/>
<path d="M2240 3796 c0 -8 7 -16 15 -20 13 -4 14 -2 5 14 -13 23 -20 26 -20 6z"/>
<path d="M2625 3770 c-13 -6 -15 -9 -5 -9 8 0 22 4 30 9 18 12 2 12 -25 0z"/>
<path d="M2410 3730 c0 -5 5 -10 10 -10 6 0 10 5 10 10 0 6 -4 10 -10 10 -5 0
-10 -4 -10 -10z"/>
<path d="M2490 3689 c0 -5 5 -7 10 -4 6 3 10 8 10 11 0 2 -4 4 -10 4 -5 0 -10
-5 -10 -11z"/>
<path d="M3120 3640 c0 -5 5 -10 10 -10 6 0 10 5 10 10 0 6 -4 10 -10 10 -5 0
-10 -4 -10 -10z"/>
<path d="M2640 3502 c0 -5 11 -14 25 -20 14 -6 25 -18 25 -26 0 -9 8 -20 19
-25 15 -8 20 -5 30 15 12 27 5 56 -9 34 -5 -9 -13 -9 -29 -1 -11 6 -30 16 -41
21 -11 6 -20 6 -20 2z"/>
<path d="M2770 3444 c0 -8 -8 -14 -17 -14 -16 -1 -16 -2 -2 -13 9 -7 14 -16
13 -22 -2 -5 0 -16 5 -24 10 -16 31 -6 31 15 0 24 16 15 35 -20 11 -19 23 -33
27 -30 4 3 1 12 -7 20 -26 27 -18 36 25 29 22 -4 40 -4 40 -1 0 14 -70 56
-108 64 -34 8 -42 7 -42 -4z"/>
<path d="M2551 3409 c-13 -5 -22 -11 -20 -13 7 -7 59 6 59 15 0 11 -8 11 -39
-2z"/>
<path d="M2565 3380 c-7 -12 2 -30 16 -30 5 0 9 9 9 20 0 21 -15 27 -25 10z"/>
<path d="M2514 3367 c-8 -21 2 -35 16 -21 5 5 6 15 0 24 -8 12 -10 12 -16 -3z"/>
<path d="M2891 3346 c-16 -19 -11 -29 8 -17 7 5 12 14 9 21 -3 9 -8 7 -17 -4z"/>
<path d="M2607 3283 c-4 -3 -7 -11 -7 -17 0 -6 5 -5 12 2 6 6 9 14 7 17 -3 3
-9 2 -12 -2z"/>
<path d="M2880 3277 c0 -8 12 -24 28 -38 15 -13 21 -17 15 -9 -7 8 -13 20 -13
28 0 12 3 12 18 1 14 -11 13 -10 -2 9 -21 24 -46 29 -46 9z"/>
<path d="M1515 3269 c-9 -14 -2 -20 14 -10 8 6 9 11 3 15 -6 3 -14 1 -17 -5z"/>
<path d="M2680 3276 c0 -2 8 -10 18 -17 15 -13 16 -12 3 4 -13 16 -21 21 -21
13z"/>
<path d="M1475 3240 c-3 -5 1 -10 9 -10 9 0 16 5 16 10 0 6 -4 10 -9 10 -6 0
-13 -4 -16 -10z"/>
<path d="M2560 3222 c0 -5 9 -12 21 -15 13 -3 19 -1 16 6 -5 15 -37 22 -37 9z"/>
<path d="M1444 3206 c-3 -8 -15 -18 -26 -22 -15 -4 -17 -9 -8 -17 8 -9 15 -8
24 6 7 9 18 17 25 17 14 0 15 17 1 25 -6 3 -13 -1 -16 -9z"/>
<path d="M3180 3210 c0 -5 5 -10 11 -10 5 0 7 5 4 10 -3 6 -8 10 -11 10 -2 0
-4 -4 -4 -10z"/>
<path d="M1681 3173 c-1 -12 4 -25 9 -28 12 -7 12 2 0 30 -8 19 -9 19 -9 -2z"/>
<path d="M2740 3160 c6 -11 12 -20 14 -20 2 0 2 9 -1 20 -3 11 -9 20 -15 20
-5 0 -4 -9 2 -20z"/>
<path d="M3156 3171 c12 -11 94 -21 94 -11 0 10 -36 20 -74 20 -18 0 -26 -4
-20 -9z"/>
<path d="M1375 3140 c-3 -5 -2 -10 4 -10 5 0 13 5 16 10 3 6 2 10 -4 10 -5 0
-13 -4 -16 -10z"/>
<path d="M2805 3130 c-3 -5 1 -10 9 -10 9 0 16 5 16 10 0 6 -4 10 -9 10 -6 0
-13 -4 -16 -10z"/>
<path d="M2559 3096 c16 -19 44 -21 39 -3 -3 6 -15 14 -28 15 -21 3 -22 2 -11
-12z"/>
<path d="M1697 3094 c-2 -2 -2 -26 0 -52 4 -54 -15 -84 -60 -96 -18 -4 -27
-13 -27 -27 0 -13 5 -18 13 -15 6 3 20 9 30 12 9 4 17 13 17 20 0 8 4 14 9 14
21 0 34 -37 52 -151 16 -94 26 -129 45 -154 14 -18 24 -37 23 -41 -4 -24 4
-36 10 -15 6 23 7 23 24 7 14 -15 17 -15 17 -2 0 23 59 -13 66 -41 3 -12 13
-24 21 -27 12 -5 14 -1 9 20 -5 17 -3 23 4 19 5 -3 10 -17 10 -31 0 -15 6 -24
16 -24 10 0 14 5 10 15 -11 30 24 28 56 -4 37 -36 52 -40 43 -11 -4 13 -2 20
7 20 7 1 0 12 -17 25 -28 23 -28 25 -8 25 12 0 25 -4 28 -10 3 -5 10 -10 16
-10 5 0 9 5 9 10 0 6 -7 10 -15 10 -19 0 -19 7 1 27 14 14 16 14 29 -3 8 -11
15 -14 15 -8 0 5 -8 19 -18 30 -18 20 -52 70 -52 78 0 2 21 -6 48 -18 74 -36
192 -74 247 -80 l50 -5 -40 11 c-21 6 -46 19 -55 28 -21 25 -151 92 -166 86
-6 -2 -20 1 -31 9 -10 7 -30 15 -43 16 -14 2 -35 15 -48 28 -13 13 -26 20 -29
17 -4 -3 2 -13 13 -20 37 -27 7 -26 -33 1 -98 67 -213 192 -251 274 -16 36
-34 53 -45 43z m113 -420 c0 -8 -5 -12 -10 -9 -6 4 -8 11 -5 16 9 14 15 11 15
-7z"/>
<path d="M1300 3068 c-1 -7 -14 -24 -30 -38 -17 -13 -30 -27 -30 -32 0 -4 -20
-28 -45 -55 -25 -26 -45 -52 -45 -58 0 -6 -14 -26 -31 -43 -17 -18 -28 -32
-24 -32 5 0 1 -8 -8 -18 -10 -10 -15 -21 -12 -24 3 -3 -12 -39 -34 -81 -21
-42 -37 -78 -35 -80 2 -2 -3 -21 -13 -43 -9 -21 -17 -43 -18 -49 -1 -5 -3 -12
-4 -15 -1 -3 -4 -27 -7 -55 -2 -27 -7 -61 -9 -73 -4 -16 -2 -23 6 -20 7 2 18
29 25 58 25 100 85 260 121 323 20 34 55 96 77 137 23 41 54 89 69 105 15 17
41 47 58 68 29 34 30 37 10 37 -12 0 -21 -6 -21 -12z"/>
<path d="M3671 3047 c0 -11 -9 -31 -19 -45 -19 -28 -36 -75 -23 -68 15 10 52
97 48 114 -4 15 -5 15 -6 -1z"/>
<path d="M2571 3034 c0 -11 3 -14 6 -6 3 7 2 16 -1 19 -3 4 -6 -2 -5 -13z"/>
<path d="M3290 2926 c0 -8 -6 -17 -12 -19 -10 -4 -10 -6 -1 -6 7 -1 17 8 23
19 7 14 7 20 0 20 -5 0 -10 -6 -10 -14z"/>
<path d="M1555 2910 c-3 -6 1 -13 10 -16 19 -8 30 0 20 15 -8 14 -22 14 -30 1z"/>
<path d="M1333 2888 c-13 -30 -7 -45 26 -63 26 -13 29 -13 41 10 7 13 10 35 6
49 -9 35 -58 37 -73 4z"/>
<path d="M3190 2906 c0 -2 7 -7 16 -10 8 -3 12 -2 9 4 -6 10 -25 14 -25 6z"/>
<path d="M3336 2898 c-6 -20 -4 -48 4 -48 4 0 7 13 6 30 -1 32 -4 38 -10 18z"/>
<path d="M3299 2880 c-1 -8 -1 -20 0 -26 1 -7 -10 -15 -24 -18 -14 -4 -25 -11
-25 -16 0 -16 26 -12 49 8 18 14 20 21 12 42 -6 15 -10 19 -12 10z"/>
<path d="M3235 2850 c3 -5 8 -10 11 -10 2 0 4 5 4 10 0 6 -5 10 -11 10 -5 0
-7 -4 -4 -10z"/>
<path d="M1950 2836 c0 -2 8 -10 18 -17 15 -13 16 -12 3 4 -13 16 -21 21 -21
13z"/>
<path d="M1389 2784 c-14 -37 -5 -54 29 -54 26 0 28 3 24 30 -2 17 -13 35 -23
41 -16 8 -21 5 -30 -17z"/>
<path d="M2496 2793 c-6 -14 -5 -15 5 -6 7 7 10 15 7 18 -3 3 -9 -2 -12 -12z"/>
<path d="M2130 2770 c8 -5 20 -10 25 -10 6 0 3 5 -5 10 -8 5 -19 10 -25 10 -5
0 -3 -5 5 -10z"/>
<path d="M5016 2735 c9 -22 26 -62 39 -90 41 -84 76 -192 101 -309 31 -143 43
-421 24 -547 -14 -98 -37 -186 -51 -194 -5 -4 -9 -25 -9 -48 0 -23 -7 -51 -15
-61 -8 -11 -15 -30 -15 -43 0 -13 -4 -23 -9 -23 -5 0 -11 -8 -15 -17 -7 -22
-46 -88 -95 -163 -20 -30 -39 -63 -43 -73 -4 -9 -12 -17 -18 -17 -5 0 -10 -6
-10 -13 0 -8 -16 -30 -35 -50 -19 -20 -35 -41 -35 -47 0 -5 -6 -10 -14 -10 -7
0 -16 -9 -19 -20 -3 -11 -12 -20 -20 -20 -9 0 -19 -9 -22 -20 -3 -11 -12 -20
-18 -20 -7 0 -18 -9 -25 -20 -7 -12 -17 -18 -22 -15 -5 3 -11 -4 -15 -15 -3
-11 -13 -20 -20 -20 -8 0 -19 -9 -25 -20 -6 -11 -15 -18 -20 -15 -5 3 -14 -4
-20 -15 -6 -11 -17 -20 -24 -20 -8 0 -16 -7 -20 -15 -3 -8 -14 -15 -24 -15
-11 0 -25 -7 -32 -15 -7 -8 -19 -15 -27 -15 -7 0 -16 -6 -19 -14 -3 -7 -34
-28 -70 -46 -35 -17 -67 -36 -70 -41 -3 -5 -14 -9 -24 -9 -10 0 -20 -4 -22 -8
-5 -13 -99 -62 -117 -62 -9 0 -23 -6 -30 -13 -6 -6 -15 -12 -19 -12 -13 0 -76
-27 -124 -52 -27 -13 -52 -22 -58 -18 -5 3 -20 -1 -34 -10 -16 -11 -26 -13
-31 -5 -4 7 -13 5 -28 -5 -27 -19 -37 -19 -37 0 0 24 -18 17 -22 -8 -2 -15
-11 -23 -27 -25 -24 -4 -24 -4 -7 23 10 15 16 28 14 30 -5 6 -32 -19 -44 -40
-6 -11 -19 -22 -29 -24 -18 -3 -18 -2 -2 22 10 16 13 28 7 32 -6 3 -10 -1 -10
-10 0 -9 -4 -13 -10 -10 -5 3 -15 -5 -21 -19 -15 -32 -39 -42 -39 -16 0 27
-14 25 -34 -5 -16 -25 -36 -33 -36 -16 0 5 7 17 16 26 13 12 14 19 5 28 -8 8
-11 7 -11 -6 0 -9 -5 -17 -10 -17 -6 0 -22 -12 -35 -28 -13 -15 -27 -23 -32
-19 -4 5 7 22 25 38 20 18 31 36 28 45 -7 19 28 19 44 -1 7 -8 16 -12 22 -9 5
3 4 12 -3 20 -9 11 -7 14 9 14 12 0 24 -5 27 -10 3 -5 13 -10 22 -10 13 0 13
3 3 15 -20 24 -5 29 31 11 36 -18 48 -14 30 8 -10 12 -8 15 13 18 19 2 23 7
17 17 -8 12 -25 11 -118 -7 -155 -31 -343 -51 -538 -59 -108 -4 -160 -9 -142
-14 16 -4 35 -5 44 -2 8 3 28 -5 45 -17 24 -18 30 -19 25 -7 -9 25 22 21 51
-5 l24 -23 -6 23 c-10 29 12 29 49 0 l27 -21 -6 21 c-9 29 16 30 44 2 11 -11
26 -17 35 -14 8 4 15 1 15 -5 0 -6 -7 -11 -15 -11 -18 0 -43 -42 -27 -48 6 -2
8 -10 5 -19 -6 -16 -10 -16 142 3 22 3 51 12 64 21 19 12 25 13 32 2 6 -11 21
-11 86 0 142 24 413 98 528 145 44 18 91 36 105 39 36 9 280 149 375 215 126
88 233 183 318 280 100 115 135 164 205 287 43 76 58 95 60 78 2 -15 10 -23
22 -23 13 0 17 5 14 15 -4 8 -1 15 6 15 9 0 10 11 5 36 -4 26 -3 39 7 45 7 5
13 21 13 36 0 23 6 28 35 35 19 5 212 11 428 15 215 3 392 9 392 13 0 4 -132
10 -292 14 -344 9 -537 21 -551 35 -7 7 -6 40 4 103 17 116 17 334 0 453 -14
97 -69 293 -103 365 -51 113 -81 169 -104 196 l-24 29 16 -40z m155 -1289
c-11 -27 -24 -37 -16 -11 3 8 7 22 10 31 3 9 8 15 11 12 2 -3 0 -17 -5 -32z
m-1757 -1007 c29 -23 47 -19 26 6 -11 13 -9 15 13 15 14 0 29 -5 32 -10 7 -11
-17 -40 -33 -40 -5 0 -17 -11 -26 -25 -9 -14 -21 -25 -26 -25 -17 0 -11 28 7
39 10 5 14 13 9 18 -5 4 -11 2 -13 -4 -3 -7 -9 -13 -15 -13 -6 0 -8 7 -5 15 4
8 2 17 -3 20 -12 8 -13 25 -1 25 4 0 20 -10 35 -21z m-52 -25 c12 -27 -3 -54
-30 -54 -12 0 -11 5 6 23 12 13 19 27 15 30 -10 11 -25 8 -18 -3 3 -5 0 -10
-7 -10 -7 0 -14 11 -14 24 -1 19 2 22 18 18 11 -2 24 -15 30 -28z m-88 20 c17
-6 22 -24 8 -24 -5 0 -17 7 -28 15 -19 15 -8 20 20 9z m26 -49 c0 -16 -38 -40
-48 -30 -4 3 4 15 18 25 30 24 30 24 30 5z"/>
<path d="M2171 2755 c9 -9 79 -35 79 -30 0 3 -16 13 -35 21 -34 14 -52 18 -44
9z"/>
<path d="M2414 2740 c1 -8 10 -16 21 -17 15 -1 15 0 3 3 -9 3 -19 11 -21 17
-2 7 -3 5 -3 -3z"/>
<path d="M2130 2746 c0 -2 7 -7 16 -10 8 -3 12 -2 9 4 -6 10 -25 14 -25 6z"/>
<path d="M3640 2696 c0 -32 3 -36 25 -36 25 0 25 1 10 29 -23 45 -35 47 -35 7z"/>
<path d="M3767 2533 c3 -10 9 -22 12 -28 3 -5 6 -28 7 -50 3 -59 33 -155 59
-190 13 -16 26 -46 30 -65 4 -19 26 -56 48 -83 l41 -48 -27 -22 c-35 -29 -47
-66 -37 -112 5 -20 6 -60 3 -89 -3 -31 1 -75 11 -112 20 -78 20 -81 -5 -89
-23 -8 -230 14 -242 25 -12 11 -11 94 1 98 5 1 8 12 5 22 -5 21 30 59 55 60 6
0 12 6 12 14 0 8 6 16 13 19 8 3 6 7 -7 12 -13 6 -21 3 -28 -8 -10 -19 -72
-17 -92 3 -13 13 -9 124 4 128 16 6 11 20 -9 27 -23 7 -35 35 -21 49 12 12 13
29 1 21 -5 -3 -11 3 -13 12 -3 17 -77 -311 -95 -422 -8 -52 -25 -67 -85 -80
-31 -6 -38 -25 -10 -25 9 0 31 -9 49 -19 29 -18 31 -23 26 -63 -3 -24 -9 -52
-13 -63 -13 -33 27 -95 62 -97 80 -5 74 -9 77 57 1 23 10 42 28 59 23 22 25
26 10 32 -19 7 -23 39 -7 49 26 16 306 28 332 14 10 -5 18 -16 18 -25 0 -8 11
-20 25 -26 14 -6 25 -15 25 -20 0 -4 6 -8 13 -8 8 0 24 -9 36 -20 13 -10 46
-27 74 -36 29 -9 59 -25 67 -35 13 -16 35 -20 140 -25 116 -6 129 -5 167 15
23 11 54 33 69 48 24 23 27 35 25 76 -2 32 3 57 14 74 16 23 16 26 -3 46 -14
15 -22 44 -27 92 -5 45 -17 89 -36 126 -47 94 -77 112 -99 59 -7 -16 -34 -52
-62 -80 -54 -55 -96 -66 -120 -31 -8 11 -29 27 -48 36 -38 18 -84 75 -93 115
-33 154 -136 396 -221 520 -49 73 -41 40 37 -150 60 -146 75 -215 48 -215 -8
0 -31 40 -56 100 -54 131 -99 217 -148 288 -42 60 -50 68 -40 40z m626 -837
c39 -1 56 -7 88 -34 22 -18 37 -38 34 -43 -21 -33 -295 18 -295 55 0 28 25 38
75 30 28 -4 72 -8 98 -8z"/>
<path d="M1890 2445 c7 -8 17 -15 22 -15 6 0 5 7 -2 15 -7 8 -17 15 -22 15 -6
0 -5 -7 2 -15z"/>
<path d="M1959 2435 c-1 -5 -1 -19 -1 -30 1 -17 0 -17 -4 -2 -7 21 -20 22 -27
3 -3 -8 -19 -17 -36 -21 -22 -5 -31 -12 -31 -26 0 -11 -4 -18 -9 -15 -5 4 -4
-7 2 -24 14 -36 4 -47 -27 -31 -37 20 -49 6 -42 -47 3 -25 10 -48 14 -51 10
-7 62 -119 62 -132 0 -21 63 -109 78 -109 37 -1 71 -47 67 -90 -1 -16 8 -32
26 -47 32 -28 136 -83 154 -83 8 0 20 -8 27 -17 22 -30 56 -45 77 -34 10 6 21
7 25 4 3 -3 6 2 6 12 0 10 -15 31 -32 47 -66 59 -80 74 -98 101 -17 27 -17 29
9 80 14 29 31 55 38 60 6 4 19 21 27 39 15 30 15 33 -6 56 -13 13 -64 52 -113
87 -119 82 -170 145 -120 145 14 0 15 16 2 38 -5 7 -13 10 -18 7 -12 -8 -12
18 1 31 6 6 3 16 -10 27 -11 9 -20 13 -20 9 0 -4 -5 0 -10 8 -5 8 -10 11 -11
5z m31 -55 c0 -5 -2 -10 -4 -10 -3 0 -8 5 -11 10 -3 6 -1 10 4 10 6 0 11 -4
11 -10z m-50 -25 c0 -8 -4 -15 -10 -15 -5 0 -10 7 -10 15 0 8 5 15 10 15 6 0
10 -7 10 -15z"/>
<path d="M952 2323 c-12 -25 -15 -122 -3 -104 5 8 9 29 9 46 0 18 3 42 7 54 8
25 -1 28 -13 4z"/>
<path d="M1020 2259 c-9 -15 -8 -24 1 -35 16 -20 24 -18 39 12 12 22 12 27 0
34 -22 14 -28 12 -40 -11z"/>
<path d="M1078 2169 c-22 -12 -24 -59 -3 -59 15 0 35 -30 35 -53 0 -16 -34
-29 -56 -20 -8 3 -14 14 -14 24 0 24 -16 25 -23 0 -7 -29 10 -48 48 -55 46 -9
67 10 59 53 -4 18 -2 37 5 45 8 10 9 16 1 21 -6 3 -8 11 -5 16 4 5 1 9 -4 9
-6 0 -11 7 -11 15 0 17 -8 18 -32 4z"/>
<path d="M1220 2120 c0 -5 7 -10 16 -10 8 0 12 5 9 10 -3 6 -10 10 -16 10 -5
0 -9 -4 -9 -10z"/>
<path d="M1170 2080 c0 -5 -8 -10 -17 -11 -14 0 -13 -2 4 -9 12 -5 30 -21 39
-35 11 -17 20 -23 27 -16 6 6 0 22 -18 45 -29 38 -35 42 -35 26z"/>
<path d="M1730 1977 c0 -19 10 -27 26 -20 11 4 12 9 3 19 -15 18 -29 18 -29 1z"/>
<path d="M1070 1891 c0 -21 36 -71 52 -71 6 0 4 8 -5 18 -8 9 -19 29 -22 45
-8 31 -25 37 -25 8z"/>
<path d="M1267 1847 c-8 -20 9 -41 27 -34 21 8 21 33 0 41 -21 8 -21 8 -27 -7z"/>
<path d="M1210 1790 c0 -19 28 -60 41 -60 16 0 10 18 -16 47 -16 19 -24 23
-25 13z"/>
<path d="M1945 1783 c-11 -3 -23 -8 -27 -12 -10 -9 35 -7 50 3 8 5 12 0 12
-13 0 -26 18 -37 27 -15 6 15 -20 46 -36 43 -3 -1 -15 -3 -26 -6z"/>
<path d="M1891 1754 c0 -11 3 -14 6 -6 3 7 2 16 -1 19 -3 4 -6 -2 -5 -13z"/>
<path d="M1360 1741 c0 -5 7 -14 15 -21 19 -16 19 -74 0 -90 -9 -8 -47 -11
-112 -10 -172 4 -195 2 -191 -17 3 -16 13 -18 73 -15 39 2 86 7 105 11 64 14
138 -25 149 -79 4 -20 13 -35 21 -36 31 -2 35 -5 21 -13 -9 -6 -10 -11 -2 -15
6 -4 11 -2 11 4 0 7 7 9 16 6 9 -4 13 -2 8 5 -4 6 -1 15 7 20 11 6 9 12 -6 30
l-20 22 23 -8 c26 -8 51 16 52 49 0 15 -5 17 -34 12 -28 -5 -37 -3 -45 13 -8
14 -8 21 2 25 9 5 9 7 -1 12 -25 12 -43 36 -38 53 4 10 -4 22 -24 33 -17 9
-30 13 -30 9z"/>
<path d="M2080 1695 c0 -8 16 -25 35 -37 18 -13 39 -33 44 -46 11 -22 11 -22
-26 -7 -21 9 -45 23 -55 31 -16 15 -19 14 -42 -12 -14 -16 -23 -36 -20 -45 2
-9 -2 -23 -9 -31 -8 -8 -22 -29 -32 -48 -17 -32 -18 -33 -31 -15 -8 10 -12 27
-8 37 4 13 0 18 -14 18 -25 0 -53 -31 -34 -37 14 -6 16 -43 2 -43 -6 0 -13 7
-16 15 -4 9 -14 14 -23 13 -43 -7 -23 -96 25 -111 16 -6 31 -13 34 -16 3 -3
16 -12 29 -19 20 -12 25 -12 32 -1 12 19 -18 47 -57 55 -19 3 -36 10 -39 14
-7 11 22 33 37 27 7 -2 21 2 31 11 9 8 17 10 17 4 0 -6 -5 -12 -12 -14 -15 -5
-1 -28 18 -28 8 0 14 6 14 14 0 7 7 19 15 26 8 7 15 23 15 36 0 17 6 24 20 24
22 0 28 35 8 43 -8 3 -6 6 5 6 12 1 17 9 17 31 0 35 8 37 41 12 43 -34 116
-72 122 -65 9 9 -12 33 -29 33 -8 0 -14 7 -14 15 0 21 26 19 49 -4 25 -25 76
-36 87 -20 4 7 3 14 -2 16 -12 4 -114 68 -130 81 -6 5 -21 13 -35 17 -13 4
-34 13 -46 21 -20 13 -23 13 -23 -1z"/>
<path d="M1771 1633 c30 -51 35 -56 48 -49 12 8 -12 65 -33 78 -30 20 -37 7
-15 -29z"/>
<path d="M1886 1638 c-3 -14 2 -18 25 -18 22 0 29 5 29 19 0 25 -47 24 -54 -1z"/>
<path d="M970 1610 c0 -5 -2 -15 -6 -23 -4 -11 4 -14 36 -14 35 0 41 2 38 20
-2 14 -12 20 -35 22 -18 2 -33 -1 -33 -5z"/>
<path d="M1631 1606 c-12 -14 -5 -46 9 -46 7 0 20 33 20 53 0 12 -17 8 -29 -7z"/>
<path d="M835 1599 c-11 -4 -203 -8 -427 -8 -365 -1 -408 -3 -408 -17 0 -14
29 -15 278 -10 152 3 348 5 435 6 130 0 157 2 157 14 0 20 -11 25 -35 15z"/>
<path d="M6086 1581 c-7 -10 119 -20 307 -24 115 -2 127 0 127 16 0 16 -17 17
-214 17 -118 0 -217 -4 -220 -9z"/>
<path d="M1535 1456 c-28 -23 -29 -26 -13 -42 15 -15 22 -16 58 -5 44 13 50
29 22 54 -24 22 -31 21 -67 -7z"/>
<path d="M1620 1471 c0 -6 5 -13 10 -16 6 -3 10 1 10 9 0 9 -4 16 -10 16 -5 0
-10 -4 -10 -9z"/>
<path d="M1117 1458 c-4 -14 32 -68 45 -68 5 0 -1 18 -12 40 -22 43 -26 47
-33 28z"/>
<path d="M1437 1434 c-4 -4 -7 -14 -7 -23 0 -11 3 -12 11 -4 6 6 10 16 7 23
-2 6 -7 8 -11 4z"/>
<path d="M3340 1430 c-12 -8 -9 -10 13 -10 15 0 27 5 27 10 0 13 -20 13 -40 0z"/>
<path d="M3375 1400 c4 -6 11 -8 16 -5 14 9 11 15 -7 15 -8 0 -12 -5 -9 -10z"/>
<path d="M3241 1355 c-24 -19 -47 -35 -51 -35 -3 0 -6 -28 -6 -62 0 -45 5 -67
16 -75 13 -11 12 -13 -7 -19 -24 -6 -31 -28 -13 -39 15 -10 50 14 50 34 0 11
12 24 30 31 30 12 43 50 18 50 -7 0 -1 10 14 23 24 19 27 29 26 75 -2 64 -14
67 -77 17z"/>
<path d="M1170 1366 c0 -9 5 -16 10 -16 6 0 15 -11 20 -25 5 -14 14 -25 20
-25 5 0 10 -6 10 -13 0 -7 8 -20 18 -29 38 -37 52 -55 52 -66 0 -7 5 -12 11
-12 7 0 18 -8 25 -17 7 -10 14 -13 14 -7 0 6 -8 18 -17 25 -9 8 -43 49 -74 92
-32 43 -65 85 -74 93 -13 14 -15 14 -15 0z"/>
<path d="M1380 1364 c0 -10 6 -14 14 -11 10 4 16 -2 19 -16 3 -20 4 -20 11 -4
6 13 3 22 -10 32 -25 19 -34 19 -34 -1z"/>
<path d="M1478 1363 c7 -3 16 -2 19 1 4 3 -2 6 -13 5 -11 0 -14 -3 -6 -6z"/>
<path d="M1530 1350 c-8 -5 -11 -12 -8 -16 4 -3 14 1 23 10 18 17 9 21 -15 6z"/>
<path d="M1574 1332 c-10 -26 -8 -30 18 -45 23 -13 33 -14 48 -5 25 16 38 3
22 -22 -11 -18 -9 -19 17 -14 24 5 34 0 59 -27 29 -33 30 -33 56 -16 30 20 26
37 -10 37 -13 0 -41 15 -62 35 -22 19 -42 32 -46 28 -3 -3 -6 1 -6 10 0 11 -8
17 -25 17 -14 0 -28 7 -31 15 -10 24 -29 17 -40 -13z"/>
<path d="M2090 1241 c0 -5 5 -13 10 -16 6 -3 10 -2 10 4 0 5 -4 13 -10 16 -5
3 -10 2 -10 -4z"/>
<path d="M1820 1181 c0 -36 18 -51 68 -58 52 -7 68 12 46 56 -11 22 -22 31
-41 31 -19 0 -23 -3 -15 -12 7 -9 6 -17 -4 -26 -15 -13 -18 -9 -15 21 2 11 -5
17 -18 17 -16 0 -21 -6 -21 -29z"/>
<path d="M1960 1092 c0 -5 7 -13 16 -16 10 -4 14 -1 12 6 -5 15 -28 23 -28 10z"/>
<path d="M1770 1060 c20 -29 40 -39 40 -22 0 10 -43 52 -54 52 -4 0 2 -13 14
-30z"/>
<path d="M2020 1070 c0 -5 4 -10 9 -10 6 0 13 5 16 10 3 6 -1 10 -9 10 -9 0
-16 -4 -16 -10z"/>
<path d="M2020 1040 c0 -5 9 -10 20 -10 11 0 20 5 20 10 0 6 -9 10 -20 10 -11
0 -20 -4 -20 -10z"/>
<path d="M1281 963 c242 -253 715 -515 1062 -589 80 -17 77 -16 77 -6 0 5 -32
16 -71 26 -233 56 -500 172 -718 310 -116 74 -304 226 -370 298 -19 21 -39 38
-44 38 -6 0 23 -35 64 -77z"/>
<path d="M1456 1033 c-3 -4 -6 -13 -6 -21 0 -11 3 -12 14 -3 12 10 17 9 24 -6
5 -10 7 -25 4 -33 -4 -12 -2 -13 9 -3 16 16 39 -1 39 -29 0 -17 3 -18 15 -8
12 10 16 9 21 -5 4 -9 17 -21 30 -26 13 -4 24 -16 24 -24 0 -12 6 -15 20 -10
13 4 22 1 26 -9 3 -9 12 -16 20 -16 8 0 19 -9 26 -20 7 -11 21 -20 30 -20 9 0
21 -8 27 -17 5 -10 18 -18 27 -18 10 0 24 -11 31 -25 11 -21 13 -22 13 -6 0
19 1 18 23 -2 13 -12 31 -22 41 -22 10 0 23 -13 30 -32 13 -30 14 -31 21 -9 9
31 -2 40 -110 96 -95 49 -174 105 -290 202 -71 60 -98 76 -109 66z"/>
<path d="M1866 1015 c9 -14 14 -32 10 -40 -4 -10 1 -15 14 -15 13 0 20 7 20
18 0 24 -28 62 -46 62 -12 0 -12 -4 2 -25z"/>
<path d="M1948 1013 c-14 -30 -13 -63 3 -63 5 0 9 9 9 20 0 13 5 18 15 14 12
-5 13 -1 4 25 -6 17 -12 31 -14 31 -2 0 -10 -12 -17 -27z"/>
<path d="M4951 991 c-15 -27 -14 -51 3 -51 19 0 38 26 34 46 -5 25 -25 28 -37
5z"/>
<path d="M1796 961 c-15 -23 68 -101 107 -101 13 0 3 11 -29 33 -27 17 -54 43
-60 55 -7 15 -14 19 -18 13z"/>
<path d="M1972 925 c2 -14 8 -24 13 -23 6 2 9 10 8 18 -1 8 4 18 10 22 7 5 3
8 -11 8 -19 0 -23 -5 -20 -25z"/>
<path d="M4917 913 c-12 -11 -7 -33 7 -33 12 0 26 20 26 36 0 7 -26 5 -33 -3z"/>
<path d="M2073 896 c9 -7 17 -18 17 -24 0 -5 7 -12 15 -16 10 -4 15 1 15 15 0
12 -10 23 -26 29 -35 14 -42 12 -21 -4z"/>
<path d="M3603 902 c-5 -4 -16 -17 -22 -30 -11 -20 -10 -27 5 -43 16 -18 54
-26 66 -14 8 9 -15 84 -27 89 -7 2 -16 1 -22 -2z m25 -40 c2 -7 -3 -12 -12
-12 -9 0 -16 7 -16 16 0 17 22 14 28 -4z"/>
<path d="M2020 892 c0 -14 40 -56 46 -49 8 8 -23 57 -36 57 -6 0 -10 -4 -10
-8z"/>
<path d="M1945 870 c-3 -5 -1 -10 4 -10 6 0 11 5 11 10 0 6 -2 10 -4 10 -3 0
-8 -4 -11 -10z"/>
<path d="M1986 871 c-4 -7 -5 -15 -2 -18 9 -9 19 4 14 18 -4 11 -6 11 -12 0z"/>
<path d="M2446 836 c-15 -24 -14 -26 11 -45 31 -25 39 -26 47 -6 4 11 16 14
49 10 l44 -5 -5 30 c-5 36 -15 38 -36 8 -12 -17 -18 -19 -30 -9 -8 7 -23 11
-33 9 -12 -2 -17 2 -15 15 4 25 -13 21 -32 -7z"/>
<path d="M3507 843 c-3 -3 -3 -11 0 -19 3 -8 -1 -14 -11 -14 -9 0 -16 -5 -16
-11 0 -7 -12 -9 -35 -5 -41 8 -48 -9 -10 -24 14 -5 25 -14 25 -20 0 -5 5 -10
10 -10 6 0 10 11 10 25 0 27 9 32 28 13 9 -9 12 -7 12 13 1 22 2 23 14 7 19
-25 36 -22 36 6 0 18 -8 27 -29 34 -16 6 -32 8 -34 5z"/>
<path d="M4816 835 c-9 -25 -9 -25 25 -25 24 0 30 4 27 18 -4 23 -44 28 -52 7z"/>
<path d="M2015 830 c-3 -5 -1 -10 4 -10 6 0 11 5 11 10 0 6 -2 10 -4 10 -3 0
-8 -4 -11 -10z"/>
<path d="M2873 793 c-19 -12 -21 -19 -12 -35 11 -20 12 -19 30 8 30 46 23 56
-18 27z"/>
<path d="M3196 798 c3 -4 9 -8 15 -8 5 0 9 4 9 8 0 5 -7 9 -15 9 -8 0 -12 -4
-9 -9z"/>
<path d="M2103 785 c-7 -20 2 -29 21 -22 9 4 13 13 10 22 -8 19 -23 19 -31 0z"/>
<path d="M2811 794 c-1 -7 -11 -15 -23 -19 -21 -6 -21 -8 -4 -12 22 -6 40 10
33 29 -3 7 -6 8 -6 2z"/>
<path d="M2170 764 c0 -8 5 -12 10 -9 6 3 10 10 10 16 0 5 -4 9 -10 9 -5 0
-10 -7 -10 -16z"/>
<path d="M2910 760 c0 -5 4 -10 9 -10 6 0 13 5 16 10 3 6 -1 10 -9 10 -9 0
-16 -4 -16 -10z"/>
<path d="M2983 759 c-24 -9 -31 -33 -13 -44 6 -3 10 -1 10 6 0 6 8 18 17 25
23 16 14 24 -14 13z"/>
<path d="M2300 716 c-14 -44 -40 -47 -77 -8 -14 15 -23 20 -19 12 3 -8 9 -22
12 -31 6 -16 64 -49 87 -49 7 0 23 14 36 31 19 25 20 33 9 46 -11 14 -10 15
12 8 37 -11 50 -25 50 -51 0 -32 39 -56 100 -62 90 -8 123 14 80 53 -11 10
-17 22 -14 26 10 16 67 9 88 -10 17 -15 29 -18 61 -12 31 6 36 10 22 16 -9 4
-26 5 -37 2 -11 -3 -30 3 -44 14 -32 25 -124 27 -133 3 -4 -11 3 -23 20 -36
15 -11 27 -24 27 -29 0 -13 -58 -10 -100 4 -31 11 -35 15 -32 44 3 27 -1 34
-28 48 -25 13 -38 14 -63 6 -22 -8 -33 -8 -38 0 -4 7 -12 -4 -19 -25z"/>
<path d="M3330 737 c0 -8 -7 -17 -15 -21 -21 -7 -19 -19 5 -34 19 -12 20 -11
14 13 -7 29 10 34 25 8 12 -23 35 -4 29 23 -4 24 -58 33 -58 11z"/>
<path d="M3200 736 c0 -2 6 -9 14 -15 10 -9 16 -8 26 4 11 13 8 15 -14 15 -14
0 -26 -2 -26 -4z"/>
<path d="M3083 723 c-17 -6 -16 -28 2 -43 12 -10 15 -9 15 7 0 10 5 24 12 31
9 9 9 12 -2 11 -8 0 -21 -3 -27 -6z"/>
<path d="M3137 694 c-4 -4 -7 -14 -7 -23 0 -11 3 -12 11 -4 6 6 10 16 7 23 -2
6 -7 8 -11 4z"/>
<path d="M2165 680 c-3 -5 1 -10 9 -10 9 0 16 5 16 10 0 6 -4 10 -9 10 -6 0
-13 -4 -16 -10z"/>
<path d="M3261 677 c-6 -8 -8 -17 -4 -20 7 -8 33 11 33 24 0 13 -16 11 -29 -4z"/>
<path d="M4685 680 c3 -5 8 -10 11 -10 2 0 4 5 4 10 0 6 -5 10 -11 10 -5 0 -7
-4 -4 -10z"/>
<path d="M2100 670 c0 -5 7 -10 16 -10 8 0 12 5 9 10 -3 6 -10 10 -16 10 -5 0
-9 -4 -9 -10z"/>
<path d="M3180 671 c0 -5 7 -12 16 -15 24 -9 28 -7 14 9 -14 17 -30 20 -30 6z"/>
<path d="M2146 651 c-4 -7 -20 -12 -34 -11 -43 3 -45 1 -15 -24 20 -18 25 -28
17 -36 -7 -7 -14 -3 -24 15 -15 28 -30 33 -30 10 0 -8 5 -15 10 -15 6 0 10 -7
10 -15 0 -8 5 -15 10 -15 6 0 10 -7 10 -15 0 -24 14 -17 28 12 8 18 9 30 2 37
-7 7 -4 16 11 27 12 9 20 22 17 30 -3 10 -6 10 -12 0z"/>
<path d="M2000 635 c0 -8 5 -15 10 -15 6 0 10 7 10 15 0 8 -4 15 -10 15 -5 0
-10 -7 -10 -15z"/>
<path d="M3246 629 c3 -6 -2 -9 -12 -8 -26 5 -44 -8 -44 -31 0 -13 11 -22 37
-29 30 -9 40 -7 65 10 42 30 37 42 -23 59 -19 6 -27 5 -23 -1z m6 -39 c10 0
18 5 18 10 0 6 5 10 10 10 20 0 9 -21 -15 -30 -30 -12 -55 -3 -55 18 0 12 3
13 12 4 7 -7 20 -12 30 -12z"/>
<path d="M2025 600 c-3 -5 -1 -10 4 -10 6 0 11 5 11 10 0 6 -2 10 -4 10 -3 0
-8 -4 -11 -10z"/>
<path d="M2160 604 c0 -6 20 -46 26 -53 3 -3 10 4 18 14 13 18 14 17 31 -8 19
-29 38 -37 29 -12 -4 8 -2 15 3 15 13 0 43 -34 43 -48 0 -7 6 -11 13 -10 6 2
11 -3 10 -9 -2 -7 2 -13 7 -13 6 0 10 4 10 9 0 6 -4 13 -10 16 -5 3 -10 18
-10 33 0 23 -8 30 -55 50 -51 20 -115 30 -115 16z"/>
<path d="M2040 570 c0 -5 5 -10 10 -10 6 0 10 5 10 10 0 6 -4 10 -10 10 -5 0
-10 -4 -10 -10z"/>
<path d="M4487 561 c-10 -11 -27 -16 -41 -14 -17 4 -25 -1 -29 -17 -5 -18 -9
-20 -26 -11 -13 7 -22 8 -26 1 -3 -5 -3 -10 2 -10 4 0 2 -4 -5 -9 -8 -5 10 -7
45 -6 50 1 60 5 70 26 7 13 13 18 13 12 0 -14 38 -17 58 -5 13 9 6 42 -8 42
-5 0 -14 2 -22 4 -7 3 -21 -3 -31 -13z"/>
<path d="M2145 550 c-3 -5 -1 -10 4 -10 6 0 11 5 11 10 0 6 -2 10 -4 10 -3 0
-8 -4 -11 -10z"/>
<path d="M2160 520 c0 -5 4 -10 9 -10 6 0 13 5 16 10 3 6 -1 10 -9 10 -9 0
-16 -4 -16 -10z"/>
<path d="M2270 510 c0 -5 5 -10 10 -10 6 0 10 5 10 10 0 6 -4 10 -10 10 -5 0
-10 -4 -10 -10z"/>
<path d="M2230 500 c0 -5 5 -10 10 -10 6 0 10 5 10 10 0 6 -4 10 -10 10 -5 0
-10 -4 -10 -10z"/>
<path d="M2290 480 c0 -5 7 -10 15 -10 8 0 15 5 15 10 0 6 -7 10 -15 10 -8 0
-15 -4 -15 -10z"/>
<path d="M2356 473 c-11 -11 -6 -23 9 -23 8 0 15 4 15 9 0 13 -16 22 -24 14z"/>
<path d="M2500 470 c0 -5 5 -10 11 -10 5 0 7 5 4 10 -3 6 -8 10 -11 10 -2 0
-4 -4 -4 -10z"/>
<path d="M1877 458 c7 -8 31 -20 53 -27 22 -6 40 -15 40 -20 0 -13 115 -93
154 -106 35 -12 36 -12 33 13 -1 13 -12 31 -24 39 -13 9 -23 23 -23 32 0 25
-63 61 -99 56 -17 -2 -35 -6 -41 -10 -5 -3 -10 -2 -10 3 0 5 -10 12 -22 15
-13 3 -34 9 -48 13 -22 6 -23 5 -13 -8z"/>
<path d="M2560 461 c0 -6 5 -13 10 -16 6 -3 10 1 10 9 0 9 -4 16 -10 16 -5 0
-10 -4 -10 -9z"/>
<path d="M2788 463 c6 -2 18 -2 25 0 6 3 1 5 -13 5 -14 0 -19 -2 -12 -5z"/>
<path d="M4353 459 c-7 -7 -35 -10 -72 -7 -58 4 -59 4 -39 -14 15 -13 17 -18
6 -18 -20 0 -61 -49 -54 -66 3 -8 11 -14 18 -14 26 0 103 32 111 46 4 8 17 14
27 14 11 0 29 9 41 21 16 16 18 23 8 35 -14 17 -31 18 -46 3z"/>
<path d="M2425 449 c-10 -15 3 -25 16 -12 7 7 7 13 1 17 -6 3 -14 1 -17 -5z"/>
<path d="M2530 439 c0 -5 5 -7 10 -4 6 3 10 8 10 11 0 2 -4 4 -10 4 -5 0 -10
-5 -10 -11z"/>
<path d="M3600 439 c0 -5 5 -7 10 -4 6 3 10 8 10 11 0 2 -4 4 -10 4 -5 0 -10
-5 -10 -11z"/>
<path d="M3200 390 c0 -5 5 -10 10 -10 6 0 10 5 10 10 0 6 -4 10 -10 10 -5 0
-10 -4 -10 -10z"/>
<path d="M2960 365 c-8 -9 -8 -15 -2 -15 12 0 26 19 19 26 -2 2 -10 -2 -17
-11z"/>
<path d="M3030 365 c-7 -9 -8 -15 -2 -15 5 0 12 7 16 15 3 8 4 15 2 15 -2 0
-9 -7 -16 -15z"/>
<path d="M3096 365 c-3 -9 -16 -20 -28 -25 -21 -8 -21 -9 8 -9 26 -1 33 3 36
24 6 27 -6 34 -16 10z"/>
<path d="M3166 365 c-3 -8 -1 -15 3 -15 5 0 11 7 15 15 3 8 1 15 -3 15 -5 0
-11 -7 -15 -15z"/>
<path d="M4112 345 c0 -33 2 -34 27 -28 46 11 54 39 15 53 -38 15 -42 13 -42
-25z"/>
<path d="M2510 352 c0 -13 53 -23 65 -11 5 5 1 9 -12 9 -12 0 -28 3 -37 6 -9
3 -16 2 -16 -4z"/>
<path d="M2208 332 c-21 -2 -38 -6 -38 -10 0 -20 75 -62 110 -62 11 0 20 -4
20 -10 0 -5 8 -10 19 -10 10 0 24 -7 31 -15 17 -20 37 -19 50 3 9 16 11 15 29
-5 26 -31 55 -31 45 0 -7 23 -21 36 -39 37 -22 1 -54 38 -49 56 4 17 -2 19
-68 19 -40 0 -90 -1 -110 -3z"/>
<path d="M2608 333 c6 -2 18 -2 25 0 6 3 1 5 -13 5 -14 0 -19 -2 -12 -5z"/>
<path d="M2668 319 c15 -6 30 -5 40 1 13 7 8 9 -23 9 -35 0 -37 -1 -17 -10z"/>
<path d="M2740 320 c0 -5 10 -10 23 -10 18 0 19 2 7 10 -19 13 -30 13 -30 0z"/>
<path d="M3110 315 c-14 -8 -20 -14 -14 -15 5 0 19 7 30 15 24 18 16 19 -16 0z"/>
<path d="M2805 310 c3 -5 17 -10 31 -10 14 0 22 4 19 10 -3 6 -17 10 -31 10
-14 0 -22 -4 -19 -10z"/>
<path d="M2888 303 c7 -3 16 -2 19 1 4 3 -2 6 -13 5 -11 0 -14 -3 -6 -6z"/>
<path d="M2955 300 c4 -6 11 -8 16 -5 14 9 11 15 -7 15 -8 0 -12 -5 -9 -10z"/>
<path d="M2510 191 c0 -5 7 -11 15 -15 8 -3 15 -1 15 3 0 5 -7 11 -15 15 -8 3
-15 1 -15 -3z"/>
<path d="M2560 190 c0 -5 5 -10 10 -10 6 0 10 5 10 10 0 6 -4 10 -10 10 -5 0
-10 -4 -10 -10z"/>
<path d="M3657 163 c-15 -14 -6 -31 13 -26 11 3 20 12 20 19 0 14 -22 19 -33
7z"/>
<path d="M3300 120 c0 -5 9 -10 20 -10 11 0 20 5 20 10 0 6 -9 10 -20 10 -11
0 -20 -4 -20 -10z"/>
<path d="M3070 100 c0 -5 5 -10 11 -10 5 0 7 5 4 10 -3 6 -8 10 -11 10 -2 0
-4 -4 -4 -10z"/>
<path d="M3380 100 c0 -5 11 -10 25 -10 14 0 25 5 25 10 0 6 -11 10 -25 10
-14 0 -25 -4 -25 -10z"/>
</g>
</svg>
