<?xml version="1.0" standalone="no"?>
<!DOCTYPE svg PUBLIC "-//W3C//DTD SVG 20010904//EN"
 "http://www.w3.org/TR/2001/REC-SVG-20010904/DTD/svg10.dtd">
<svg version="1.0" xmlns="http://www.w3.org/2000/svg"
 width="652.000000pt" height="434.000000pt" viewBox="0 0 652.000000 434.000000"
 preserveAspectRatio="xMidYMid meet">

<g transform="translate(0.000000,434.000000) scale(0.100000,-0.100000)"
fill="#000000" stroke="none">
<path d="M4140 3991 c-100 -21 -183 -60 -207 -98 -9 -14 -20 -56 -24 -92 -7
-64 -7 -67 24 -98 36 -38 47 -41 47 -13 0 25 8 25 103 -5 43 -14 85 -25 95
-24 9 0 -8 8 -38 18 -101 33 -151 64 -176 114 -14 25 -13 29 9 52 l23 26 13
-25 c12 -21 17 -23 42 -14 16 5 29 16 29 23 0 14 48 27 52 14 2 -5 53 -6 115
-2 62 3 110 9 108 13 -7 11 26 17 60 10 17 -3 29 -11 28 -17 -1 -6 17 -15 40
-18 72 -12 172 -50 221 -84 26 -18 50 -31 53 -28 9 10 -8 27 -49 48 -44 23
-46 36 -3 19 16 -6 34 -9 41 -6 7 3 20 -6 29 -20 15 -23 14 -26 -6 -54 -33
-44 -162 -87 -274 -92 -42 -1 -44 -2 -13 -5 20 -2 83 3 141 11 57 9 107 16
111 16 3 0 6 -12 6 -27 0 -16 4 -35 10 -43 8 -12 11 -12 27 0 10 8 28 21 40
27 l22 12 -14 -47 c-8 -26 -15 -50 -15 -55 0 -4 -5 -6 -12 -5 -11 3 -56 -109
-59 -147 -1 -17 -2 -17 -6 -2 -6 22 -23 12 -23 -14 0 -11 -4 -18 -10 -14 -10
6 -55 -73 -46 -82 3 -3 15 11 27 31 11 20 25 36 30 36 11 0 2 -61 -14 -100 -6
-14 -11 -33 -12 -42 -1 -10 -7 -24 -14 -31 -6 -8 -8 -16 -5 -20 3 -3 -4 -11
-16 -17 -13 -7 -19 -17 -16 -27 3 -8 -1 -21 -10 -30 -8 -9 -13 -22 -10 -29 6
-16 -23 -56 -35 -49 -4 3 -12 -2 -19 -10 -7 -8 -21 -15 -31 -15 -11 0 -19 -4
-19 -10 0 -5 -9 -10 -20 -10 -12 0 -20 7 -20 16 0 10 -6 14 -15 10 -8 -3 -15
-2 -15 2 0 4 -11 12 -25 18 -22 11 -24 10 -15 -6 13 -25 -9 -39 -25 -17 -13
19 -35 23 -35 7 0 -5 -9 -10 -20 -10 -11 0 -20 -7 -20 -15 0 -8 -8 -15 -18
-15 -10 0 -23 -5 -30 -12 -9 -9 -12 -8 -12 5 0 21 -9 21 -46 2 -16 -8 -36 -15
-45 -15 -20 0 -69 23 -69 33 0 4 -6 7 -13 7 -14 0 -47 35 -47 49 0 5 -7 14
-15 21 -9 7 -13 21 -10 31 4 11 2 19 -4 19 -6 0 -11 13 -11 29 0 16 -5 31 -11
33 -6 2 -12 26 -13 53 -2 28 -5 57 -9 65 -12 33 -16 69 -8 72 5 2 1 21 -9 43
-20 42 -27 111 -10 100 5 -3 3 10 -5 29 -8 20 -21 75 -28 123 -8 56 -17 87
-24 86 -6 -2 -101 -3 -210 -3 l-199 -1 -20 -42 c-16 -34 -25 -42 -48 -42 -15
-1 -30 -5 -34 -10 -13 -19 -122 -68 -157 -72 -29 -3 -34 -1 -28 13 6 15 1 16
-37 10 -52 -8 -69 -20 -67 -47 1 -13 9 -19 24 -19 12 0 24 -4 27 -9 12 -19
166 38 166 61 0 10 3 9 9 -1 8 -12 14 -12 40 -2 16 7 32 20 35 29 3 10 4 0 1
-21 -5 -52 -58 -111 -99 -113 -32 -2 -153 -35 -174 -48 -7 -4 -12 -2 -12 3 0
19 -19 12 -73 -24 -28 -19 -64 -35 -79 -35 -18 0 -31 -8 -40 -22 -13 -25 -11
-87 3 -104 12 -15 -11 -24 -58 -24 -30 0 -35 3 -30 19 2 10 2 23 -2 28 -15 21
-63 43 -93 43 -92 -2 -144 15 -200 63 -30 26 -75 56 -100 67 -56 24 -76 46
-60 62 24 24 13 47 -32 68 -25 11 -50 20 -55 20 -6 0 -11 6 -11 13 0 6 -15 18
-32 26 -35 15 -77 58 -78 78 0 9 -7 10 -25 3 -28 -10 -713 -30 -1225 -35 -173
-1 -353 -8 -400 -14 -47 -6 -159 -11 -250 -11 -91 0 -182 -3 -203 -6 l-37 -7
0 -909 c0 -903 0 -909 20 -898 15 8 32 6 70 -6 56 -18 120 -12 120 11 0 19 14
19 30 0 7 -8 10 -25 6 -40 -5 -21 -3 -25 14 -25 31 0 62 20 56 35 -7 19 25 6
44 -18 13 -15 20 -17 44 -7 23 8 34 7 55 -7 14 -10 28 -18 31 -18 37 -6 122
-39 126 -49 3 -8 21 -14 42 -15 37 0 204 -8 231 -10 10 -1 11 -4 2 -14 -13
-16 -5 -27 20 -27 9 0 19 10 22 21 4 15 11 20 23 15 14 -5 15 -4 4 9 -7 9 -21
13 -31 10 -24 -8 -25 13 -1 32 16 13 16 13 -3 11 -12 -2 -19 2 -18 10 2 6 -1
12 -6 12 -6 0 -9 -12 -8 -27 2 -26 -1 -28 -33 -26 -126 6 -211 19 -275 43 -59
22 -75 31 -75 40 0 6 4 9 8 6 14 -9 82 14 79 26 -3 19 31 21 49 3 13 -13 19
-13 32 -3 10 9 54 13 136 14 130 2 148 -1 144 -21 -2 -8 1 -13 7 -12 5 1 9 5
8 9 -5 13 115 6 142 -8 14 -7 33 -10 41 -7 9 3 19 1 23 -6 10 -16 69 -32 76
-20 10 15 25 10 18 -7 -5 -13 1 -16 38 -14 24 2 53 2 63 1 20 -1 20 -1 0 -16
-18 -14 -18 -14 4 -15 12 0 25 6 28 14 6 14 44 10 44 -5 0 -5 8 -6 17 -3 11 4
14 3 7 -3 -6 -4 -17 -19 -24 -32 -12 -23 -12 -24 24 -17 21 4 36 3 36 -3 0 -5
9 -7 20 -4 11 3 17 9 14 14 -3 5 0 9 5 9 6 0 11 -4 11 -9 0 -17 34 -22 46 -7
12 18 44 22 44 6 0 -5 -6 -10 -14 -10 -11 0 -12 -5 -3 -25 7 -13 17 -26 22
-28 6 -2 2 -3 -7 -2 -9 2 -18 -1 -20 -7 -2 -5 -13 -5 -28 1 -14 5 -19 10 -12
10 6 1 12 5 12 11 0 5 -13 7 -29 4 -16 -3 -32 -1 -35 5 -4 5 -13 8 -21 4 -8
-3 -15 -1 -15 3 0 5 -16 10 -36 12 -33 2 -35 0 -28 -20 9 -32 11 -33 39 -20
32 15 48 15 40 2 -3 -6 -15 -10 -26 -10 -10 0 -19 -4 -19 -9 0 -6 -12 -6 -32
0 -17 5 -34 6 -37 4 -2 -3 1 -5 8 -5 7 0 9 -4 6 -10 -9 -15 -35 -12 -35 5 0
19 -28 34 -53 27 -16 -4 -18 -1 -12 19 3 13 3 19 -2 13 -14 -18 -40 -23 -72
-14 -20 5 -35 4 -47 -4 -24 -18 -3 -30 48 -28 32 2 36 -1 26 -11 -9 -10 -24
-11 -53 -6 -22 4 -51 5 -65 2 -22 -6 -23 -4 -12 9 11 14 9 17 -18 23 -17 4
-34 4 -37 1 -4 -3 1 -6 10 -6 9 0 17 -5 17 -11 0 -7 -8 -9 -22 -4 -37 11 -102
5 -114 -10 -6 -8 -21 -15 -34 -15 -18 0 -20 3 -11 14 10 12 4 15 -30 21 -30 5
-44 3 -50 -6 -6 -11 -11 -11 -21 -1 -6 6 -26 11 -43 11 -17 -1 -23 -3 -12 -6
14 -4 16 -8 7 -18 -8 -10 -18 -11 -35 -5 -13 5 -25 8 -27 7 -2 -1 2 2 8 7 8 7
7 17 -3 37 -16 33 -19 34 -38 15 -8 -8 -11 -23 -8 -36 6 -21 4 -22 -28 -16
-67 14 -83 12 -94 -11 -10 -20 -13 -21 -27 -6 -10 9 -21 12 -30 7 -20 -13 -61
-17 -53 -5 7 12 -37 26 -57 18 -8 -3 -4 -9 12 -15 23 -10 21 -11 -19 -11 -27
-1 -52 -8 -64 -18 -11 -10 -17 -13 -14 -7 4 7 -2 23 -13 35 -16 20 -21 21 -29
10 -6 -9 -15 -11 -27 -6 -11 4 -46 10 -79 11 -85 5 -145 19 -123 29 10 4 16
11 13 15 -3 4 2 13 10 20 8 7 15 20 15 29 -1 12 -7 9 -25 -11 -13 -16 -29 -28
-35 -28 -5 0 -10 -22 -10 -51 0 -49 1 -51 25 -47 14 3 25 1 25 -3 0 -5 -12 -9
-26 -9 -14 0 -23 -4 -19 -10 8 -13 62 -13 70 0 3 5 12 10 18 10 7 0 6 -4 -3
-11 -12 -8 -9 -9 11 -5 14 3 29 2 33 -2 4 -4 24 -8 44 -8 54 -2 75 -9 80 -25
3 -12 2 -12 -6 0 -7 10 -11 10 -17 1 -5 -8 -12 -7 -26 6 -11 10 -19 12 -19 5
0 -10 -70 -10 -127 0 -4 1 -20 1 -35 0 l-28 -1 0 -735 0 -735 3260 0 3260 0 0
1882 0 1881 -162 -7 c-90 -4 -332 -11 -538 -16 -206 -5 -391 -12 -410 -15 -19
-3 -153 -7 -298 -8 l-263 -2 -5 25 c-27 135 -78 183 -244 228 -162 45 -319 52
-460 23z m224 0 c3 -5 32 -12 64 -16 109 -12 85 -23 -49 -22 -74 1 -168 -1
-209 -5 l-75 -8 60 20 c33 11 83 20 110 20 28 0 57 5 65 10 19 12 27 12 34 1z
m-187 -117 c-3 -3 -12 -4 -19 -1 -8 3 -5 6 6 6 11 1 17 -2 13 -5z m-2814 -269
c101 -14 184 -42 206 -69 6 -7 -18 -3 -57 10 -136 46 -274 55 -428 29 -201
-35 -307 -72 -402 -141 l-47 -35 47 44 c63 60 197 127 273 138 33 5 98 15 145
23 112 19 137 19 263 1z m-118 -124 c3 -5 1 -12 -5 -16 -19 -12 -10 -25 19
-25 24 0 28 3 24 19 -4 16 2 21 32 27 66 12 251 -41 286 -82 14 -18 -5 -48
-87 -138 -68 -73 -99 -90 -224 -117 l-85 -19 63 6 c53 4 256 60 326 89 14 6
17 5 12 -3 -4 -7 -14 -12 -22 -12 -8 0 -14 -5 -14 -11 0 -6 7 -8 16 -5 12 5
14 1 9 -15 -5 -15 -2 -22 14 -26 26 -7 26 -8 1 -43 -11 -15 -17 -30 -13 -33 3
-4 -2 -9 -11 -13 -19 -7 -21 -24 -3 -24 17 0 87 -62 87 -77 0 -6 9 -9 20 -6
24 6 26 -9 4 -28 -15 -12 -15 -40 1 -80 5 -13 0 -16 -24 -15 -25 1 -30 4 -25
20 4 12 2 16 -5 12 -16 -10 -14 -22 14 -67 14 -22 23 -45 19 -51 -5 -7 -10 -6
-15 4 -5 10 -18 14 -34 10 -29 -5 -44 -22 -21 -22 9 0 16 -7 16 -15 0 -9 7
-18 15 -21 8 -4 15 -12 15 -20 0 -8 5 -14 10 -14 6 0 10 -7 10 -15 0 -8 -4
-15 -10 -15 -5 0 -10 5 -10 10 0 6 -7 10 -15 10 -8 0 -15 7 -15 15 0 10 -8 14
-22 12 -31 -5 -33 -21 -4 -48 14 -13 26 -30 26 -36 0 -7 6 -13 14 -13 13 0 30
-39 21 -49 -3 -2 -5 1 -5 7 0 7 -7 12 -15 12 -8 0 -15 5 -15 10 0 6 -9 10 -20
10 -11 0 -20 7 -20 15 0 8 -9 15 -20 15 -11 0 -20 7 -20 15 0 10 -10 15 -30
15 -33 0 -38 -11 -15 -30 8 -7 15 -10 15 -7 0 2 16 -10 35 -27 19 -18 35 -38
35 -44 0 -7 7 -12 15 -12 8 0 15 -9 15 -20 0 -11 -7 -20 -15 -20 -8 0 -15 7
-15 15 0 9 -8 14 -22 12 -14 -1 -22 3 -21 11 2 7 -8 12 -27 12 -37 0 -40 -22
-5 -38 14 -6 25 -18 25 -26 0 -9 9 -20 20 -26 24 -13 26 -30 5 -30 -8 0 -15 6
-15 14 0 9 -8 12 -25 8 -18 -3 -25 0 -25 12 0 10 -9 16 -25 16 -15 0 -25 6
-25 14 0 20 -42 28 -60 11 -13 -13 -12 -15 5 -16 11 -1 26 -1 33 0 7 1 12 -9
12 -24 0 -18 5 -25 19 -25 23 0 35 -46 14 -55 -9 -3 -17 3 -20 15 -4 15 -12
20 -32 18 -17 -2 -26 2 -26 12 0 23 -69 21 -73 -3 -2 -10 0 -17 5 -16 37 6 52
-2 50 -28 -3 -34 -37 -46 -37 -14 0 16 -6 21 -29 21 -37 0 -57 -22 -36 -40 8
-7 22 -10 30 -6 10 4 15 -1 15 -14 0 -24 -22 -26 -40 -5 -14 17 -55 11 -81
-11 -12 -11 -18 -11 -27 -2 -17 17 -15 28 7 28 27 0 48 28 28 36 -29 11 -62 0
-59 -18 2 -13 -4 -18 -18 -18 -13 0 -24 -8 -27 -20 -3 -11 -14 -20 -25 -20
-11 0 -22 -9 -25 -20 -6 -22 -11 -24 -32 -11 -16 10 -6 31 15 31 19 0 18 36
-2 44 -26 10 -34 7 -34 -13 0 -14 -8 -21 -27 -23 l-28 -3 30 -15 c17 -8 28
-17 26 -20 -9 -10 21 -51 34 -46 7 2 16 -2 19 -9 11 -30 -13 -23 -54 15 -37
34 -41 36 -36 15 8 -33 -9 -40 -40 -16 -14 11 -31 18 -38 15 -7 -3 -19 2 -26
11 -15 18 0 21 18 3 9 -9 12 -8 12 4 0 21 -19 33 -44 29 -16 -2 -18 2 -12 26
4 15 11 30 16 33 14 8 24 80 11 80 -6 0 -11 -7 -11 -15 0 -15 -46 -43 -55 -33
-3 3 0 19 6 37 14 41 -1 62 -27 40 -16 -13 -17 -10 -10 39 7 52 6 53 -15 47
-20 -7 -21 -4 -18 44 3 41 1 50 -11 48 -11 -1 -15 8 -15 38 0 22 -5 45 -13 50
-7 6 -14 29 -15 53 0 23 -4 42 -8 42 -10 0 -17 24 -24 85 -6 49 -6 50 10 23
19 -34 22 -34 45 -6 17 21 17 25 2 53 -13 23 -17 26 -20 13 -4 -18 -22 -25
-22 -9 0 14 34 71 43 71 4 0 7 -18 7 -39 0 -43 8 -54 29 -42 10 7 9 14 -5 36
-15 23 -16 29 -5 33 9 3 4 12 -15 27 -16 13 -26 27 -22 31 4 4 14 1 23 -6 18
-15 20 -13 29 18 8 23 -8 32 -17 10 -4 -10 -6 -10 -6 0 -1 8 8 16 19 19 22 6
26 18 9 29 -6 3 -15 0 -20 -7 -6 -11 -9 -10 -15 4 -3 10 -4 20 -2 22 2 3 36
-5 74 -16 57 -17 101 -22 249 -24 l180 -3 -155 8 c-165 7 -185 11 -201 41 -5
11 -14 19 -20 19 -5 0 -32 17 -60 37 -52 40 -63 74 -25 81 16 3 18 0 12 -23
-6 -24 -5 -25 13 -16 31 17 42 13 36 -12 -5 -20 -2 -23 22 -22 21 0 27 -4 25
-17 -2 -15 2 -17 28 -12 19 4 30 2 30 -5 0 -6 9 -11 20 -11 27 0 25 18 -3 29
-13 5 -29 16 -36 25 -7 9 -17 16 -22 16 -11 0 -93 56 -109 75 -7 8 -16 15 -21
15 -16 0 -38 -31 -33 -48 5 -14 4 -14 -4 -3 -9 13 -13 13 -27 1 -10 -8 -20
-23 -24 -34 -5 -13 -10 -16 -15 -8 -4 7 13 32 43 61 67 65 198 130 277 138 49
5 57 3 47 -8 -22 -23 -15 -36 17 -31 26 4 28 7 19 24 -13 24 -14 24 39 32 46
7 48 5 31 -26 -10 -19 -9 -20 12 -15 13 4 31 7 39 7 11 0 11 3 2 12 -20 20
-14 27 26 31 20 2 40 4 44 5 4 1 9 -2 13 -7z m405 -139 c0 -17 -68 -74 -74
-63 -11 17 2 31 21 24 12 -5 15 -2 10 10 -4 10 0 20 11 26 21 13 32 14 32 3z
m-90 -76 c0 -3 -4 -8 -10 -11 -5 -3 -10 -1 -10 4 0 6 5 11 10 11 6 0 10 -2 10
-4z m-870 -31 c0 -8 -4 -15 -10 -15 -5 0 -10 7 -10 15 0 8 5 15 10 15 6 0 10
-7 10 -15z m35 -25 c3 -5 -1 -10 -9 -10 -9 0 -16 5 -16 10 0 6 4 10 9 10 6 0
13 -4 16 -10z m935 -120 c12 -8 12 -13 -3 -42 -10 -19 -15 -23 -11 -11 3 13 1
31 -5 40 -9 16 -11 15 -20 -9 -13 -34 -22 -36 -18 -5 3 34 27 46 57 27z m40
-40 c0 -5 -4 -10 -10 -10 -5 0 -10 5 -10 10 0 6 5 10 10 10 6 0 10 -4 10 -10z
m1272 -59 c136 -35 229 -95 262 -169 17 -38 17 -45 -3 -183 -11 -79 -37 -259
-56 -399 -19 -140 -44 -320 -55 -400 -12 -80 -22 -161 -24 -180 -5 -48 -14
-69 -51 -115 -40 -50 -98 -79 -197 -99 -122 -25 -271 2 -365 66 -40 27 -47 39
-57 93 -1 11 -8 31 -13 45 -6 14 -40 210 -76 435 -36 226 -71 437 -77 470 -18
100 -19 108 -26 166 -8 69 10 112 67 163 66 60 185 108 310 126 94 13 272 4
361 -19z m1398 -51 c0 -5 -4 -10 -9 -10 -6 0 -13 5 -16 10 -3 6 1 10 9 10 9 0
16 -4 16 -10z m60 0 c0 -5 -4 -10 -10 -10 -5 0 -10 5 -10 10 0 6 5 10 10 10 6
0 10 -4 10 -10z m4 -252 c32 -46 16 -82 -42 -94 -25 -5 -32 -2 -42 16 -11 20
-9 25 8 39 11 9 25 26 31 39 15 28 26 28 45 0z m-217 -51 c3 -4 -3 -7 -13 -7
-11 0 -25 -5 -31 -11 -14 -14 -33 -3 -33 17 0 11 9 14 35 11 19 -2 38 -7 42
-10z m113 -53 c0 -2 -10 -8 -21 -15 -17 -9 -23 -8 -30 2 -14 22 -11 26 21 21
17 -2 30 -6 30 -8z m-145 -19 c0 -14 -16 -22 -75 -36 -89 -22 -123 -24 -118
-7 8 22 67 50 121 58 65 9 72 8 72 -15z m305 -42 c44 -26 60 -40 60 -56 0 -4
-27 6 -60 23 -33 16 -70 30 -83 30 -23 0 -47 17 -47 33 0 17 83 -3 130 -30z
m-334 -33 c0 -12 -4 -16 -9 -11 -5 5 -6 14 -3 20 10 15 12 14 12 -9z m-2516
-14 c0 -3 -4 -8 -10 -11 -5 -3 -10 -1 -10 4 0 6 5 11 10 11 6 0 10 -2 10 -4z
m2591 -12 c13 -11 37 -16 84 -16 36 0 65 -2 65 -5 0 -2 -9 -13 -19 -25 -14
-14 -25 -18 -38 -13 -10 5 -36 9 -58 11 -22 1 -43 3 -46 3 -3 1 -16 11 -28 22
-18 17 -20 23 -9 30 19 13 29 11 49 -7z m-2824 -146 c-3 -8 -6 -5 -6 6 -1 11
2 17 5 13 3 -3 4 -12 1 -19z m3870 16 c-4 -4 -28 -10 -54 -15 -27 -4 -61 -10
-78 -14 -16 -5 -27 -4 -23 0 9 9 103 33 137 34 13 1 21 -2 18 -5z m256 -1 c-7
-2 -19 -2 -25 0 -7 3 -2 5 12 5 14 0 19 -2 13 -5z m-198 -92 c22 -13 34 -26
28 -28 -10 -3 -9 -10 2 -27 16 -25 23 -102 11 -128 -6 -14 -4 -18 13 -18 12 0
21 -5 21 -11 0 -7 11 -8 33 -3 38 9 86 9 123 0 25 -7 26 -5 22 23 -4 25 0 31
29 45 70 33 92 12 53 -52 -11 -18 -20 -42 -20 -55 1 -21 1 -21 15 4 8 15 22
29 30 33 9 3 13 11 10 17 -4 5 0 18 9 28 16 18 15 20 -11 39 -26 19 -27 22
-12 38 25 25 103 30 135 9 20 -13 24 -22 20 -40 -10 -40 10 -37 22 4 10 31 19
41 54 55 l43 18 -63 30 c-34 17 -60 33 -58 36 3 2 34 -9 69 -25 l63 -30 3 -46
c1 -26 -3 -56 -9 -67 -9 -17 -7 -22 14 -30 39 -14 49 -43 31 -85 -14 -35 -35
-40 -35 -9 0 24 -40 16 -50 -11 -7 -17 -17 -25 -34 -25 -30 0 -43 -17 -19 -23
14 -4 13 -5 -4 -6 -36 -2 -56 27 -50 71 6 46 0 49 -15 8 -18 -53 -93 -74 -132
-38 -15 14 -23 15 -33 6 -16 -13 -7 -24 22 -30 14 -2 21 -12 23 -36 4 -37 13
-41 27 -11 6 12 22 28 37 37 35 21 78 7 96 -31 l13 -28 34 30 c18 16 50 34 70
41 32 10 39 10 56 -6 15 -13 19 -26 15 -46 -4 -18 -1 -28 7 -28 6 0 19 -5 27
-10 39 -25 -100 -108 -225 -134 -73 -15 -94 -5 -55 26 15 12 39 18 74 18 42 1
57 6 86 30 19 17 29 30 23 30 -7 0 -15 -4 -18 -10 -3 -5 -18 -10 -33 -9 -26 0
-26 1 -4 9 35 14 26 20 -29 18 -37 0 -53 -5 -62 -19 -13 -21 -39 -7 -30 17 6
15 -5 18 -24 6 -8 -5 -9 -13 -3 -22 6 -8 10 -26 10 -39 0 -18 -4 -22 -17 -16
-40 15 -40 14 -26 -37 5 -15 -2 -18 -39 -18 -29 0 -54 7 -69 19 -13 10 -34 21
-46 25 -13 4 -23 14 -23 23 0 12 -6 14 -27 8 -32 -8 -36 -8 -78 1 -16 3 -38
16 -47 28 -22 27 -35 13 -18 -19 12 -22 12 -28 -1 -40 -13 -14 -22 -13 -75 5
-32 11 -64 28 -71 37 -10 13 -15 14 -28 3 -13 -11 -19 -11 -31 2 -22 21 -2 62
26 53 10 -3 21 -1 25 5 3 5 -1 10 -9 10 -9 0 -15 3 -15 8 4 22 -5 21 -43 -7
-53 -39 -71 -40 -62 -5 6 21 4 25 -7 19 -21 -13 -90 -5 -115 13 -13 10 -24 27
-24 38 0 14 -8 24 -21 27 -18 5 -21 11 -16 36 4 17 2 31 -5 33 -6 2 -10 17
-10 32 0 16 -9 37 -20 48 -12 12 -18 30 -16 46 3 24 8 28 53 33 28 3 46 7 41
7 -5 1 -2 9 5 18 10 12 24 15 57 10 51 -7 79 5 92 40 13 32 39 42 55 21 14
-20 25 -22 25 -6 0 7 7 17 16 24 20 14 57 3 119 -34z m170 19 c32 -11 73 -20
92 -20 39 0 54 -23 30 -47 -21 -21 -57 -11 -99 27 -32 29 -45 34 -80 31 -10
-1 -18 4 -18 13 0 20 5 20 75 -4z m-4367 -1 c-2 -6 -8 -10 -13 -10 -5 0 -11 4
-13 10 -2 6 4 11 13 11 9 0 15 -5 13 -11z m3270 -15 c-9 -9 -21 -13 -27 -9
-16 10 -3 25 22 25 20 0 20 -1 5 -16z m112 -48 c0 -15 -49 -36 -82 -36 -31 0
-17 34 17 41 50 11 65 10 65 -5z m1170 -14 c0 -43 -66 -72 -100 -44 l-24 19
37 7 c23 4 37 13 37 21 0 9 10 15 25 15 18 0 25 -5 25 -18z m-1315 -12 c3 -5
-3 -10 -15 -10 -12 0 -18 5 -15 10 3 6 10 10 15 10 5 0 12 -4 15 -10z m-3811
-191 c-3 -5 -10 -7 -15 -3 -5 3 -7 10 -3 15 3 5 10 7 15 3 5 -3 7 -10 3 -15z
m496 -159 c0 -5 -19 -10 -42 -9 -37 1 -39 2 -18 9 36 12 60 12 60 0z m-549
-16 c18 -10 -13 -24 -39 -17 -22 5 -27 14 -16 26 7 6 39 2 55 -9z m-74 -9 c3
-9 3 -18 1 -21 -7 -7 -58 17 -58 28 0 15 50 8 57 -7z m4679 -31 c18 -14 18
-14 -6 -3 -31 14 -36 19 -24 19 6 0 19 -7 30 -16z m-2911 -64 c-3 -5 -12 -10
-20 -10 -8 0 -17 5 -20 10 -4 6 5 10 20 10 15 0 24 -4 20 -10z m3764 0 c-22
-13 -150 -42 -156 -36 -3 3 8 8 23 11 16 4 49 13 74 20 57 16 82 19 59 5z
m-4242 -26 c-3 -3 -12 -4 -19 -1 -8 3 -5 6 6 6 11 1 17 -2 13 -5z m263 -19
l25 -14 -32 -1 c-31 0 -49 11 -36 24 9 8 14 7 43 -9z m-96 -10 c-4 -8 -10 -15
-15 -15 -4 0 -6 7 -3 15 4 8 10 15 15 15 4 0 6 -7 3 -15z m-204 -40 c0 -8 -2
-15 -4 -15 -2 0 -6 7 -10 15 -3 8 -1 15 4 15 6 0 10 -7 10 -15z m80 5 c0 -5
18 -10 39 -10 22 0 47 -3 55 -6 15 -6 15 -8 -1 -20 -21 -16 -67 -19 -58 -4 3
6 -2 10 -12 10 -11 0 -24 5 -31 12 -9 9 -12 8 -12 -6 0 -15 -2 -16 -15 -2 -22
22 -18 36 10 36 14 0 25 -4 25 -10z m220 0 c0 -5 -7 -10 -15 -10 -8 0 -15 -7
-15 -15 0 -10 -11 -15 -35 -15 -19 0 -35 5 -35 11 0 6 9 8 22 4 17 -6 20 -4
15 9 -6 14 -3 16 13 11 11 -4 20 -2 20 4 0 6 7 11 15 11 8 0 15 -4 15 -10z
m154 -5 c3 -8 12 -12 21 -9 8 3 12 10 9 15 -3 5 5 9 17 9 17 0 19 -3 10 -13
-6 -8 -8 -17 -4 -21 13 -12 -20 -26 -64 -26 -23 0 -45 5 -48 10 -3 6 1 10 9
10 8 0 18 9 21 20 7 24 21 26 29 5z m180 -7 c-1 -12 5 -18 21 -18 18 0 22 -4
18 -20 -3 -11 -12 -20 -19 -20 -17 0 -19 20 -1 21 6 0 2 4 -11 10 -13 5 -21
13 -17 19 3 5 -7 12 -22 16 -47 10 -50 13 -8 11 31 -2 40 -6 39 -19z m-284 2
c0 -5 -4 -10 -10 -10 -5 0 -10 5 -10 10 0 6 5 10 10 10 6 0 10 -4 10 -10z
m210 -14 c0 -3 -4 -8 -10 -11 -5 -3 -10 -1 -10 4 0 6 5 11 10 11 6 0 10 -2 10
-4z m-210 -17 c12 -8 9 -10 -12 -6 -28 4 -38 -7 -15 -17 6 -3 -3 -4 -22 -3
-52 3 -48 -18 6 -30 l48 -11 -65 1 c-72 2 -101 17 -80 43 8 8 21 12 31 9 11
-4 26 0 35 9 18 18 52 21 74 5z m-507 -19 c-4 -17 0 -20 26 -20 23 0 29 -4 25
-15 -5 -12 -9 -13 -20 -4 -12 10 -13 9 -8 -5 8 -21 -9 -21 -28 2 -11 12 -13
24 -7 40 10 27 19 29 12 2z m767 10 c8 -5 11 -10 5 -10 -5 0 -17 5 -25 10 -8
5 -10 10 -5 10 6 0 17 -5 25 -10z m-1714 -11 c3 -6 17 -9 30 -6 13 2 24 1 24
-3 0 -4 -18 -10 -40 -12 -33 -3 -40 0 -40 14 0 20 15 24 26 7z m254 -9 l25
-21 -29 7 c-21 5 -27 4 -22 -5 4 -6 19 -11 32 -11 38 0 24 -25 -14 -26 -18 -1
-32 3 -32 9 0 5 -7 7 -15 3 -8 -3 -15 -1 -15 3 0 5 7 11 15 15 8 3 15 15 15
26 0 25 8 25 40 0z m510 10 c0 -5 -4 -10 -10 -10 -5 0 -10 5 -10 10 0 6 5 10
10 10 6 0 10 -4 10 -10z m247 4 c-3 -3 -12 -4 -19 -1 -8 3 -5 6 6 6 11 1 17
-2 13 -5z m660 -22 c-23 -5 -47 4 -47 17 0 6 13 5 33 -2 23 -8 27 -12 14 -15z
m-37 -17 c0 -7 -13 -12 -30 -13 -19 0 -30 4 -30 13 0 9 -6 12 -15 9 -8 -4 -15
-3 -15 0 0 4 10 10 23 15 25 9 67 -6 67 -24z m-1470 16 c17 -5 21 -9 12 -15
-15 -9 -72 2 -72 15 0 10 23 10 60 0z m1045 -1 c3 -5 1 -10 -4 -10 -6 0 -11 5
-11 10 0 6 2 10 4 10 3 0 8 -4 11 -10z m68 -11 c4 -15 1 -15 -24 -2 -35 18
-36 21 -5 19 14 0 27 -8 29 -17z m2647 -4 c25 -23 26 -57 0 -80 -17 -15 -25
-16 -67 -6 -78 20 -119 74 -75 101 26 16 118 7 142 -15z m-2408 -3 c-27 -4
-19 -22 11 -23 20 -1 20 -2 -3 -8 -17 -5 -28 -3 -33 6 -12 19 10 44 31 35 14
-6 13 -7 -6 -10z m1421 11 c-7 -2 -19 -2 -25 0 -7 3 -2 5 12 5 14 0 19 -2 13
-5z m50 -11 c-1 -5 6 -12 16 -15 15 -3 17 0 14 17 -4 18 -3 17 9 -4 12 -22 12
-26 0 -34 -10 -5 -23 -4 -35 3 -10 7 -22 10 -25 6 -9 -9 19 -25 43 -25 11 0
31 -3 44 -7 19 -5 22 -3 16 8 -4 8 6 1 23 -15 19 -17 32 -24 32 -16 0 10 12
11 50 7 31 -4 48 -2 45 3 -4 6 0 10 7 11 7 1 30 3 51 4 20 2 37 0 37 -6 0 -5
14 -18 31 -28 26 -16 28 -20 13 -23 -11 -2 -24 3 -31 12 -9 12 -14 13 -24 3
-11 -11 -10 -13 4 -13 14 0 16 -4 8 -19 -8 -14 -7 -22 4 -31 11 -9 15 -9 15
-1 0 9 5 9 21 1 11 -6 34 -10 51 -8 19 2 33 -2 35 -9 3 -8 -6 -14 -24 -15 -46
-3 -57 -2 -87 6 -26 6 -28 5 -17 -8 12 -14 10 -15 -20 -5 -19 7 -38 17 -44 24
-11 13 -45 16 -45 3 0 -4 7 -8 17 -8 9 0 14 -3 10 -6 -3 -4 -20 -1 -38 5 -25
9 -29 8 -21 -2 17 -20 -68 -20 -90 0 -11 10 -18 12 -18 5 0 -7 -6 -12 -14 -12
-9 0 -12 7 -9 19 5 18 -19 31 -57 31 -13 0 -13 -1 0 -11 11 -8 4 -9 -28 -5
-27 4 -41 3 -38 -3 4 -5 -7 -3 -23 5 -20 10 -28 20 -24 30 4 10 0 15 -8 14 -8
-1 -21 -2 -29 -1 -13 1 -13 2 0 11 8 5 35 7 60 5 25 -3 -1 5 -58 16 -88 18
-101 23 -90 36 10 13 13 13 24 -1 13 -18 29 -22 18 -5 -3 6 0 15 7 20 7 4 10
12 5 16 -5 4 -11 2 -13 -5 -3 -6 -9 -10 -14 -6 -18 11 2 24 37 24 40 0 42 -5
12 -31 -22 -18 -22 -19 -3 -16 11 1 26 7 34 11 10 7 12 6 6 -4 -6 -10 -4 -11
6 -4 8 4 25 7 39 6 23 -2 22 0 -7 15 -34 17 -46 40 -15 28 44 -17 72 -17 78
-1 7 18 31 16 27 -2z m-2606 -15 c4 -6 0 -8 -10 -4 -10 4 -17 2 -17 -5 0 -7
-5 -6 -15 2 -8 7 -15 16 -15 20 0 11 49 0 57 -13z m1370 -11 c1 -1 -4 -14 -11
-28 -16 -30 -12 -38 18 -37 21 0 21 1 1 9 -19 8 -19 9 3 9 13 1 22 7 22 17 0
11 5 14 16 10 9 -3 24 -6 35 -6 12 0 16 -5 13 -15 -4 -8 -1 -15 6 -15 9 0 7
-7 -5 -20 -10 -12 -25 -18 -32 -15 -8 2 -11 0 -8 -5 8 -13 -1 -13 -26 1 -14 7
-29 7 -50 0 -33 -11 -60 -5 -54 12 7 20 -37 45 -63 36 -12 -5 -22 -13 -22 -18
0 -12 -32 -2 -42 13 -4 6 -14 4 -26 -8 -15 -13 -25 -15 -39 -7 -10 5 -27 12
-37 16 -43 13 27 36 79 25 6 -1 13 -1 18 0 9 3 24 7 35 9 4 1 0 6 -8 11 -11 7
-5 10 23 10 20 0 37 -4 37 -9 0 -5 15 -11 33 -15 25 -5 29 -9 17 -16 -13 -8
-12 -10 3 -10 9 0 17 7 17 15 0 8 -5 15 -11 15 -5 0 -7 5 -4 10 4 6 -5 10 -19
10 -26 0 -36 15 -14 22 10 4 87 -18 95 -26z m861 -4 c13 -7 27 -10 32 -7 6 4
10 -1 10 -10 0 -12 -5 -15 -17 -10 -10 3 -30 9 -44 12 -20 4 -26 11 -26 31 0
21 2 23 11 11 6 -8 22 -20 34 -27z m-2763 17 c15 -7 11 -8 -18 -5 -21 2 -41 7
-44 10 -10 9 40 6 62 -5z m665 -10 c0 -5 -8 -9 -17 -9 -29 0 -63 12 -58 19 6
10 75 1 75 -10z m380 11 c0 -5 -7 -10 -16 -10 -8 0 -12 5 -9 10 3 6 10 10 16
10 5 0 9 -4 9 -10z m-63 -6 c-3 -3 -12 -4 -19 -1 -8 3 -5 6 6 6 11 1 17 -2 13
-5z m293 -2 c0 -8 -43 -32 -55 -32 -3 0 -5 9 -5 20 0 16 7 20 30 20 17 0 30
-4 30 -8z m205 -21 c-6 -5 -25 10 -25 20 0 5 6 4 14 -3 8 -7 12 -15 11 -17z
m1874 15 c9 -11 9 -16 -1 -22 -21 -13 -48 -15 -48 -3 0 6 -9 8 -21 4 -15 -5
-19 -4 -15 4 4 6 16 11 27 11 10 0 19 5 19 10 0 15 26 12 39 -4z m99 1 c6 0
12 -4 12 -10 0 -10 -81 1 -94 13 -5 5 9 6 30 3 21 -3 45 -5 52 -6z m-2728 -7
c24 -8 24 -8 -7 -9 -17 -1 -35 4 -38 9 -7 11 9 11 45 0z m2160 4 c0 -17 -27
-29 -50 -23 -23 7 -11 13 18 10 6 -1 12 3 12 9 0 5 5 10 10 10 6 0 10 -3 10
-6z m-893 -10 c-3 -3 -12 -4 -19 -1 -8 3 -5 6 6 6 11 1 17 -2 13 -5z m-1820
-29 c100 -9 185 -14 190 -13 4 1 22 -5 38 -15 l30 -17 -65 5 c-36 2 -108 6
-160 10 -52 3 -111 9 -130 12 -50 9 -117 15 -177 17 -51 1 -66 8 -40 20 13 6
25 5 314 -19z m1014 -6 c-14 -4 -42 -7 -60 -8 -43 -1 -30 15 17 22 19 3 36 8
39 11 3 2 11 -1 18 -7 10 -10 8 -13 -14 -18z m370 21 c37 -20 20 -30 -43 -24
-78 8 -113 25 -46 22 26 -1 51 1 54 5 9 9 12 9 35 -3z m1055 -5 c-3 -9 3 -20
14 -27 11 -7 20 -19 20 -26 0 -7 10 -17 23 -22 13 -5 16 -9 7 -9 -9 -1 -22 5
-29 12 -10 10 -16 7 -32 -12 -10 -13 -19 -18 -19 -11 0 7 -7 10 -16 6 -9 -4
-22 -3 -28 2 -6 5 -31 14 -56 22 -25 7 -49 17 -54 22 -17 14 -1 18 32 9 20 -6
32 -6 32 0 0 5 9 9 21 9 11 0 17 -5 14 -10 -4 -6 -11 -7 -17 -4 -7 4 -8 2 -4
-4 4 -7 16 -17 28 -23 15 -8 19 -8 13 1 -4 6 1 21 12 32 17 20 17 21 0 15 -15
-6 -16 -4 -7 13 13 24 55 28 46 5z m-1575 -8 c-7 -7 -18 -7 -33 0 -20 9 -20
10 10 10 22 0 29 -4 23 -10z m214 4 c3 -5 1 -12 -5 -16 -5 -3 -10 1 -10 9 0
18 6 21 15 7z m1469 -6 c41 0 50 -3 57 -22 5 -13 13 -23 19 -23 22 0 8 -21
-22 -33 -24 -10 -38 -10 -55 -3 -31 15 -29 21 8 22 22 1 27 -2 17 -8 -11 -8
-10 -9 1 -6 16 4 22 56 8 65 -5 3 -11 -4 -14 -16 -6 -25 -11 -25 -37 -6 -11 8
-32 15 -48 15 -19 0 -28 5 -28 16 0 12 5 13 23 7 12 -4 44 -8 71 -8z m-2027
-20 c23 -20 25 -24 10 -25 -10 0 -15 -4 -12 -10 3 -6 -1 -7 -9 -4 -9 3 -13 10
-10 15 3 5 -5 10 -18 10 -17 1 -18 3 -5 6 20 5 22 19 5 26 -10 4 -10 6 -1 6 7
1 25 -10 40 -24z m668 10 c33 -15 17 -19 -34 -9 -17 4 -28 10 -25 15 7 12 24
11 59 -6z m-735 -5 c0 -5 -15 -9 -32 -9 l-33 1 30 8 c17 4 31 8 33 9 1 0 2 -3
2 -9z m825 0 c3 -5 -1 -10 -9 -10 -9 0 -16 5 -16 10 0 6 4 10 9 10 6 0 13 -4
16 -10z m695 -9 c0 -3 -20 -13 -44 -22 -41 -15 -44 -14 -55 3 -15 25 -15 26
17 30 34 4 82 -2 82 -11z m696 10 c-3 -5 -17 -8 -31 -8 -13 0 -22 3 -19 8 3 5
16 9 30 9 14 0 23 -4 20 -9z m102 -13 c14 -12 16 -32 2 -23 -14 8 -52 -4 -45
-15 3 -4 -4 -6 -16 -3 -24 7 -34 26 -25 49 5 12 14 14 38 9 18 -4 39 -12 46
-17z m596 13 c4 -5 -3 -7 -14 -4 -23 6 -26 13 -6 13 8 0 17 -4 20 -9z m-2754
-11 c0 -5 -2 -10 -4 -10 -3 0 -8 5 -11 10 -3 6 -1 10 4 10 6 0 11 -4 11 -10z
m735 0 c3 -5 1 -10 -4 -10 -6 0 -11 5 -11 10 0 6 2 10 4 10 3 0 8 -4 11 -10z
m283 -13 c2 -9 -3 -17 -10 -17 -8 0 -14 9 -15 21 -2 24 20 20 25 -4z m-1344
-2 c-4 -8 -11 -12 -16 -9 -6 4 -5 10 3 15 19 12 19 11 13 -6z m96 0 c10 -13 9
-15 -9 -15 -12 0 -21 6 -21 15 0 8 4 15 9 15 5 0 14 -7 21 -15z m1655 3 c3 -3
-8 -10 -24 -16 -24 -9 -31 -8 -31 2 0 7 2 15 5 18 6 6 43 3 50 -4z m-1174 -15
c13 -15 11 -16 -26 -10 -39 6 -67 -2 -67 -19 0 -5 -5 -7 -11 -5 -7 1 -22 4
-34 5 -13 0 -23 7 -23 15 0 10 9 12 34 7 33 -6 60 8 34 16 -7 3 8 5 33 6 33 2
51 -3 60 -15z m29 1 c0 -9 6 -14 13 -11 8 3 20 1 28 -4 11 -7 11 -9 1 -9 -7 0
-10 -4 -7 -10 8 -13 58 -13 72 1 14 14 33 3 33 -18 0 -12 -3 -13 -15 -3 -8 6
-20 8 -27 4 -11 -7 -43 -7 -103 2 -11 1 -28 3 -38 3 -10 1 -15 6 -12 12 4 6
13 8 20 5 17 -6 27 18 12 33 -8 8 -7 11 6 11 9 0 17 -7 17 -16z m110 9 c-8 -3
-21 -12 -27 -21 -7 -9 -15 -13 -18 -10 -9 9 25 38 43 37 14 0 14 -2 2 -6z
m2410 -3 c0 -5 -2 -10 -4 -10 -3 0 -8 5 -11 10 -3 6 -1 10 4 10 6 0 11 -4 11
-10z m-2960 -10 c0 -5 -2 -10 -4 -10 -3 0 -8 5 -11 10 -3 6 -1 10 4 10 6 0 11
-4 11 -10z m607 4 c-3 -3 -12 -4 -19 -1 -8 3 -5 6 6 6 11 1 17 -2 13 -5z
m1048 -19 c-2 -18 2 -25 13 -25 13 0 14 -2 3 -9 -7 -5 -29 -5 -50 0 -20 4 -37
8 -38 9 -2 0 -16 0 -33 0 -16 0 -30 4 -30 9 0 5 27 7 60 4 41 -4 60 -2 60 6 0
6 -4 11 -10 11 -5 0 -10 5 -10 10 0 6 8 10 19 10 14 0 18 -6 16 -25z m145 15
c-8 -5 -19 -10 -25 -10 -5 0 -3 5 5 10 8 5 20 10 25 10 6 0 3 -5 -5 -10z
m-1650 -10 c0 -5 -2 -10 -4 -10 -3 0 -8 5 -11 10 -3 6 -1 10 4 10 6 0 11 -4
11 -10z m83 -7 c-7 -2 -19 -2 -25 0 -7 3 -2 5 12 5 14 0 19 -2 13 -5z m133
-20 c-7 -7 -26 7 -26 19 0 6 6 6 15 -2 9 -7 13 -15 11 -17z m481 21 c-3 -3
-12 -4 -19 -1 -8 3 -5 6 6 6 11 1 17 -2 13 -5z m663 -4 c0 -5 -2 -10 -4 -10
-3 0 -8 5 -11 10 -3 6 -1 10 4 10 6 0 11 -4 11 -10z m170 0 c0 -5 -2 -10 -4
-10 -3 0 -8 5 -11 10 -3 6 -1 10 4 10 6 0 11 -4 11 -10z m30 -23 c0 -5 -4 -5
-10 -2 -5 3 -10 14 -10 23 0 15 2 15 10 2 5 -8 10 -19 10 -23z m311 16 c13
-16 12 -17 -3 -4 -17 13 -22 21 -14 21 2 0 10 -8 17 -17z m929 7 c0 -5 -12
-10 -27 -9 -25 0 -26 1 -8 9 27 12 35 12 35 0z m-2207 -22 c10 -14 19 -19 24
-13 7 9 40 12 53 5 3 -1 61 -4 129 -5 98 -3 127 -1 138 11 17 16 29 18 38 4 3
-5 1 -10 -6 -10 -7 0 -10 -2 -7 -5 3 -3 16 -2 29 3 13 5 38 5 54 1 l30 -7 -34
-1 c-33 -1 -34 -2 -15 -15 10 -8 20 -11 22 -8 1 4 26 6 55 5 28 -1 58 -2 65
-3 7 0 10 -4 7 -10 -7 -11 8 -14 19 -3 11 11 107 13 146 3 22 -6 38 -6 44 0
14 14 59 13 50 -1 -5 -8 1 -10 18 -7 14 3 60 -1 102 -7 75 -12 110 -4 64 15
-17 6 -9 8 32 4 40 -3 51 -1 43 7 -6 6 -33 10 -62 8 -35 -3 -51 0 -51 8 0 6 8
12 18 11 9 0 46 0 82 0 122 1 145 -2 145 -18 0 -9 -8 -14 -20 -12 -16 2 -17 1
-5 -7 9 -6 19 -6 25 -1 8 6 19 4 31 -5 10 -8 28 -14 39 -14 l20 0 -20 9 c-18
8 -18 9 5 10 25 1 24 1 -5 15 -36 16 -20 19 23 4 38 -13 51 -39 19 -40 -21 0
-21 -1 -2 -8 12 -5 25 -3 33 6 18 17 26 17 18 -2 -6 -17 0 -20 52 -29 18 -3
31 -2 28 3 -3 5 4 11 16 14 12 4 25 1 29 -5 4 -6 42 -12 85 -14 135 -5 176
-11 185 -25 6 -9 9 -10 9 -2 0 8 22 11 74 10 55 -1 72 -5 69 -14 -3 -7 0 -13
6 -13 6 0 11 3 11 8 0 10 80 5 210 -14 66 -9 110 -23 110 -35 0 -12 -56 -11
-100 0 -19 5 -93 12 -165 15 -151 6 -146 5 -120 15 16 7 11 9 -22 12 -30 3
-43 1 -43 -8 0 -16 -12 -17 -28 -1 -7 7 -12 8 -12 2 0 -12 -133 -7 -138 5 -1
3 -57 6 -123 6 -67 -1 -117 1 -110 3 6 2 11 8 11 13 0 5 -10 5 -24 -1 -13 -5
-26 -7 -28 -4 -2 2 -65 6 -139 9 -155 6 -190 12 -168 26 9 5 9 9 2 9 -6 0 -14
-4 -17 -8 -6 -9 -140 -8 -256 3 -47 4 -101 9 -120 10 -19 0 -60 4 -90 8 -30 4
-98 9 -150 12 -52 3 -113 7 -135 10 -22 2 -59 6 -83 8 -23 3 -45 7 -48 9 -2 3
-22 2 -43 -2 -22 -4 -46 -3 -55 2 -9 5 -27 8 -39 7 -12 -1 -29 1 -37 4 -8 3
-28 6 -45 5 -16 0 -46 5 -65 11 -32 9 -30 10 29 7 55 -2 61 -1 45 11 -17 12
-17 13 3 13 11 0 28 -10 36 -22z m1157 12 c0 -5 -7 -10 -15 -10 -8 0 -15 5
-15 10 0 6 7 10 15 10 8 0 15 -4 15 -10z m-1015 -10 c-3 -5 -14 -10 -23 -10
-15 0 -15 2 -2 10 20 13 33 13 25 0z m1195 0 c0 -5 -2 -10 -4 -10 -3 0 -8 5
-11 10 -3 6 -1 10 4 10 6 0 11 -4 11 -10z m-1013 -6 c-3 -3 -12 -4 -19 -1 -8
3 -5 6 6 6 11 1 17 -2 13 -5z m1126 -1 c-7 -2 -21 -2 -30 0 -10 3 -4 5 12 5
17 0 24 -2 18 -5z m342 -3 c-3 -5 -12 -10 -18 -10 -7 0 -6 4 3 10 19 12 23 12
15 0z m-135 -22 c0 -11 -28 -10 -35 1 -3 6 4 9 15 8 11 -1 20 -5 20 -9z m-140
-2 c0 -2 -9 -6 -20 -9 -11 -3 -20 -1 -20 4 0 5 9 9 20 9 11 0 20 -2 20 -4z
m-67 -13 c-7 -2 -21 -2 -30 0 -10 3 -4 5 12 5 17 0 24 -2 18 -5z m2 -33 c-3
-5 -15 -10 -26 -10 -11 0 -17 5 -14 10 3 6 15 10 26 10 11 0 17 -4 14 -10z
m592 -6 c-3 -3 -12 -4 -19 -1 -8 3 -5 6 6 6 11 1 17 -2 13 -5z m-182 -84 c3
-6 -1 -7 -9 -4 -18 7 -21 14 -7 14 6 0 13 -4 16 -10z m500 -10 c7 -12 -32 -12
-60 0 -16 7 -13 9 17 9 20 1 40 -3 43 -9z m35 0 c0 -5 -5 -10 -11 -10 -5 0 -7
5 -4 10 3 6 8 10 11 10 2 0 4 -4 4 -10z m130 -18 c13 -14 13 -15 -5 -7 -11 5
-41 10 -67 13 -27 2 -48 7 -48 11 0 14 104 -2 120 -17z m86 -4 c4 -7 3 -8 -4
-4 -7 4 -12 2 -12 -3 0 -6 -9 -11 -20 -11 -11 0 -20 5 -20 11 0 6 7 9 15 6 8
-4 17 -2 20 3 8 13 12 12 21 -2z m87 -13 c-3 -9 -8 -14 -10 -11 -3 3 -2 9 2
15 9 16 15 13 8 -4z m132 -5 c3 -5 2 -10 -4 -10 -5 0 -13 5 -16 10 -3 6 -2 10
4 10 5 0 13 -4 16 -10z m790 -70 c7 -12 -2 -12 -30 0 -19 8 -19 9 2 9 12 1 25
-3 28 -9z m128 -7 c-7 -2 -19 -2 -25 0 -7 3 -2 5 12 5 14 0 19 -2 13 -5z m94
-9 c-3 -3 -12 -4 -19 -1 -8 3 -5 6 6 6 11 1 17 -2 13 -5z m263 -14 c0 -5 -5
-10 -11 -10 -5 0 -7 5 -4 10 3 6 8 10 11 10 2 0 4 -4 4 -10z m-947 -99 c38
-15 98 -82 95 -105 -5 -35 -65 -43 -134 -20 l-58 20 -26 -27 c-22 -24 -35 -28
-98 -32 -68 -4 -74 -3 -88 19 -42 63 52 118 136 81 10 -5 19 1 27 20 20 46 88
66 146 44z m-62 -200 c-7 -5 -10 -14 -7 -20 4 -6 12 -9 17 -6 5 4 17 1 26 -4
10 -6 14 -11 10 -11 -4 0 -3 -9 3 -19 7 -15 6 -23 -6 -35 -22 -23 -39 -20 -59
10 -9 14 -22 23 -30 20 -7 -2 -21 4 -31 15 -16 18 -16 20 1 39 12 13 31 20 54
20 24 0 32 -3 22 -9z m-3246 -111 c3 -5 -1 -10 -10 -10 -9 0 -13 5 -10 10 3 6
8 10 10 10 2 0 7 -4 10 -10z m3830 -41 c21 -26 25 -40 23 -78 -2 -37 -8 -48
-29 -60 -39 -22 -95 -7 -114 29 -23 45 -20 106 7 124 38 27 83 20 113 -15z
m418 -113 c26 -20 21 -40 -23 -75 -46 -37 -84 -47 -124 -32 -25 10 -28 15 -22
43 8 38 30 65 60 71 45 9 92 6 109 -7z m-1413 -16 c22 -22 26 -51 9 -81 -15
-29 -88 -79 -115 -79 -22 0 -64 45 -64 68 0 17 51 73 85 93 39 24 60 24 85 -1z
m-3053 -86 c-3 -3 -12 -4 -19 -1 -8 3 -5 6 6 6 11 1 17 -2 13 -5z m-862 -100
c1 -19 -9 -39 -30 -60 l-30 -31 -45 21 c-55 25 -58 28 -43 33 18 7 49 37 56
55 5 14 16 17 49 15 40 -3 43 -5 43 -33z m-125 -3 c0 -5 -7 -11 -14 -14 -10
-4 -13 -1 -9 9 6 15 23 19 23 5z m3698 -118 c-10 -2 -28 -2 -40 0 -13 2 -5 4
17 4 22 1 32 -1 23 -4z m-3694 -90 c4 -9 0 -23 -8 -32 -14 -13 -16 -13 -22 2
-7 20 1 47 15 47 5 0 12 -8 15 -17z"/>
<path d="M1345 3450 c-3 -5 6 -12 20 -16 29 -7 41 -1 30 15 -8 14 -42 14 -50
1z"/>
<path d="M1450 3436 c0 -16 37 -32 48 -21 7 7 -25 35 -40 35 -4 0 -8 -6 -8
-14z"/>
<path d="M897 3418 c-9 -5 -17 -15 -17 -23 0 -16 51 -6 57 12 5 15 -20 23 -40
11z"/>
<path d="M1186 3412 c-22 -26 -20 -29 14 -28 34 1 35 4 16 28 -12 17 -14 17
-30 0z"/>
<path d="M1278 3385 c-46 -42 -48 -55 -6 -55 25 0 29 3 20 12 -23 23 -13 38
23 38 33 0 35 2 25 20 -14 27 -19 26 -62 -15z"/>
<path d="M1514 3382 c-17 -21 -57 -58 -87 -82 -31 -25 -56 -51 -57 -57 0 -15
26 -17 35 -3 3 6 17 10 31 10 21 0 24 3 18 26 -6 25 -5 27 20 22 25 -5 27 -3
22 18 -6 21 -3 24 19 24 19 0 25 5 25 21 0 16 4 19 20 14 23 -7 28 13 8 33
-17 17 -19 16 -54 -26z"/>
<path d="M1062 3398 c-20 -20 -14 -28 25 -28 35 0 36 0 18 20 -21 23 -27 24
-43 8z"/>
<path d="M1378 3366 c-25 -25 -50 -46 -56 -46 -10 0 -22 -23 -22 -41 0 -5 14
-9 30 -9 30 0 40 13 20 25 -18 11 0 25 33 25 24 0 28 3 19 12 -23 23 -14 41
18 36 33 -5 36 0 17 26 -11 16 -16 13 -59 -28z"/>
<path d="M807 3389 c-22 -13 -23 -44 -1 -35 9 3 20 6 25 6 11 0 12 27 1 34 -4
2 -15 0 -25 -5z"/>
<path d="M952 3378 c-19 -19 -14 -28 18 -28 17 0 30 4 30 8 0 9 -21 32 -30 32
-3 0 -11 -5 -18 -12z"/>
<path d="M1126 3349 l-16 -31 32 6 c36 7 49 17 31 23 -7 3 -13 11 -13 19 0 24
-18 15 -34 -17z"/>
<path d="M846 3344 c-11 -28 -6 -34 23 -28 28 6 51 -9 31 -21 -21 -13 -9 -21
26 -17 35 4 36 3 31 -19 -6 -23 -4 -24 38 -24 25 1 48 5 52 9 4 4 0 4 -9 1
-10 -4 -23 3 -36 19 -11 14 -24 26 -30 26 -5 0 -21 9 -36 21 -14 11 -26 18
-26 14 0 -3 -10 3 -22 15 -26 24 -34 25 -42 4z"/>
<path d="M1024 3352 c-6 -4 -15 -17 -18 -30 -7 -21 -5 -22 21 -16 35 8 40 13
27 22 -6 4 -13 12 -15 19 -2 7 -9 9 -15 5z"/>
<path d="M1184 3295 c-20 -31 -43 -32 -73 -4 -22 20 -23 20 -36 3 -22 -29 -18
-34 24 -34 22 0 42 -6 45 -12 3 -10 9 -8 19 5 9 10 28 17 51 17 l37 0 -18 25
c-23 31 -29 31 -49 0z"/>
<path d="M1260 3255 c0 -8 5 -15 10 -15 6 0 10 7 10 15 0 8 -4 15 -10 15 -5 0
-10 -7 -10 -15z"/>
<path d="M1531 3022 c-14 -26 -7 -42 10 -25 6 6 9 19 7 29 -3 17 -5 17 -17 -4z"/>
<path d="M1582 2992 c-8 -13 -11 -31 -7 -39 9 -26 27 0 23 33 l-3 29 -13 -23z"/>
<path d="M1622 2955 c-12 -26 -9 -45 8 -45 12 0 23 51 12 62 -5 5 -14 -2 -20
-17z"/>
<path d="M800 2958 c0 -18 18 -34 28 -24 3 4 -2 14 -11 23 -16 16 -17 16 -17
1z"/>
<path d="M750 2924 c0 -24 25 -50 34 -36 3 6 -3 21 -14 33 -19 24 -19 24 -20
3z"/>
<path d="M1536 2911 c-4 -7 -5 -15 -2 -18 9 -9 19 4 14 18 -4 11 -6 11 -12 0z"/>
<path d="M720 2888 c0 -24 11 -48 21 -48 13 0 10 23 -6 44 -12 16 -15 17 -15
4z"/>
<path d="M816 2846 c3 -9 11 -16 16 -16 13 0 5 23 -10 28 -7 2 -10 -2 -6 -12z"/>
<path d="M770 2820 c0 -5 5 -10 11 -10 5 0 7 5 4 10 -3 6 -8 10 -11 10 -2 0
-4 -4 -4 -10z"/>
<path d="M1545 2810 c-3 -5 -2 -10 4 -10 5 0 13 5 16 10 3 6 2 10 -4 10 -5 0
-13 -4 -16 -10z"/>
<path d="M1587 2784 c-4 -4 -4 -10 -1 -15 6 -10 34 0 34 12 0 10 -24 12 -33 3z"/>
<path d="M1490 2730 c0 -13 11 -13 30 0 12 8 11 10 -7 10 -13 0 -23 -4 -23
-10z"/>
<path d="M1535 2700 c-3 -5 3 -10 14 -10 11 0 23 5 26 10 3 6 -3 10 -14 10
-11 0 -23 -4 -26 -10z"/>
<path d="M1378 2693 c7 -3 16 -2 19 1 4 3 -2 6 -13 5 -11 0 -14 -3 -6 -6z"/>
<path d="M1435 2660 c-4 -6 7 -10 27 -10 25 0 29 3 18 10 -19 13 -37 13 -45 0z"/>
<path d="M1318 2623 c7 -3 16 -2 19 1 4 3 -2 6 -13 5 -11 0 -14 -3 -6 -6z"/>
<path d="M1375 2590 c-3 -5 1 -10 9 -10 8 0 18 5 21 10 3 6 -1 10 -9 10 -8 0
-18 -4 -21 -10z"/>
<path d="M1430 2550 c0 -12 17 -12 45 0 17 7 15 9 -12 9 -18 1 -33 -3 -33 -9z"/>
<path d="M1311 2522 c-13 -25 -5 -32 36 -32 30 0 34 3 31 23 -4 30 -52 37 -67
9z"/>
<path d="M1078 2503 c7 -3 16 -2 19 1 4 3 -2 6 -13 5 -11 0 -14 -3 -6 -6z"/>
<path d="M1186 2501 c-4 -5 1 -8 9 -7 21 3 31 16 12 16 -9 0 -18 -4 -21 -9z"/>
<path d="M790 2471 c0 -5 5 -13 10 -16 6 -3 10 -2 10 4 0 5 -4 13 -10 16 -5 3
-10 2 -10 -4z"/>
<path d="M1260 2460 c0 -5 6 -10 14 -10 8 0 18 5 21 10 3 6 -3 10 -14 10 -12
0 -21 -4 -21 -10z"/>
<path d="M1085 2401 c-3 -5 -1 -12 5 -16 14 -9 52 4 45 16 -8 12 -42 12 -50 0z"/>
<path d="M1197 2403 c-15 -14 -6 -24 20 -21 34 4 43 28 11 28 -14 0 -28 -3
-31 -7z"/>
<path d="M930 2364 c0 -9 5 -14 12 -12 18 6 21 28 4 28 -9 0 -16 -7 -16 -16z"/>
<path d="M1037 2344 c3 -8 12 -13 20 -10 8 3 19 6 24 6 6 0 7 5 4 10 -3 6 -17
10 -30 10 -18 0 -23 -4 -18 -16z"/>
<path d="M890 2311 c0 -21 6 -43 13 -49 10 -9 12 -3 9 26 -2 28 -1 33 7 22 9
-12 11 -11 11 6 0 18 -17 34 -36 34 -2 0 -4 -17 -4 -39z"/>
<path d="M2575 2990 c-72 -14 -169 -51 -217 -81 -47 -31 -95 -105 -85 -131 4
-9 6 -8 6 2 1 12 3 13 10 1 6 -10 16 -2 36 33 31 54 39 58 30 16 -4 -17 -2
-30 3 -30 15 0 24 -50 13 -64 -6 -7 -8 -22 -4 -34 5 -20 7 -21 22 -9 60 53
198 87 358 87 141 0 243 -18 325 -58 31 -15 55 -25 52 -21 -2 4 1 11 7 15 8 4
7 9 -2 15 -9 6 -11 11 -4 17 6 4 12 17 12 30 1 17 -5 24 -25 28 -16 3 -29 13
-30 22 -8 65 -7 92 2 92 19 -1 59 -37 62 -56 2 -9 9 -31 18 -48 8 -17 18 -40
21 -51 7 -19 8 -19 17 5 30 79 -72 165 -251 211 -79 20 -294 25 -376 9z m273
-7 c-10 -2 -26 -2 -35 0 -10 3 -2 5 17 5 19 0 27 -2 18 -5z m-408 -81 c0 -10
-5 -23 -11 -29 -13 -13 -42 -6 -34 7 10 16 -13 20 -25 5 -7 -8 -18 -15 -24
-15 -6 1 0 9 13 20 12 11 27 18 31 15 5 -3 11 -1 15 5 10 17 35 11 35 -8z
m645 -131 c0 -14 -6 -26 -14 -29 -9 -3 -11 1 -6 17 4 12 2 21 -4 21 -6 0 -11
5 -11 11 0 6 8 9 18 7 10 -2 17 -12 17 -27z"/>
<path d="M2725 2110 c-3 -5 1 -10 9 -10 9 0 16 5 16 10 0 6 -4 10 -9 10 -6 0
-13 -4 -16 -10z"/>
<path d="M3055 1620 c-3 -5 -2 -10 4 -10 5 0 13 5 16 10 3 6 2 10 -4 10 -5 0
-13 -4 -16 -10z"/>
<path d="M2507 1569 c7 -7 15 -10 18 -7 3 3 -2 9 -12 12 -14 6 -15 5 -6 -5z"/>
<path d="M2968 1565 c-77 -42 -256 -57 -358 -31 -30 8 -59 11 -63 6 -5 -4 24
-13 64 -20 127 -22 330 -4 359 31 3 3 14 11 25 17 30 17 5 14 -27 -3z"/>
<path d="M5170 2195 c-11 -13 -10 -14 4 -9 9 3 16 10 16 15 0 13 -6 11 -20 -6z"/>
<path d="M5155 2156 c-18 -13 -18 -14 3 -36 12 -13 22 -33 22 -45 0 -18 5 -21
28 -18 38 6 62 -15 73 -67 6 -24 15 -48 22 -52 17 -11 37 -10 37 2 0 6 -7 10
-15 10 -11 0 -15 11 -15 40 0 22 5 40 11 40 5 0 7 5 4 10 -3 6 -15 10 -25 10
-13 0 -17 5 -14 15 4 8 12 15 20 15 34 0 -6 45 -65 74 -41 20 -61 20 -86 2z"/>
<path d="M4987 2093 c-4 -3 -7 -11 -7 -17 0 -6 5 -5 12 2 6 6 9 14 7 17 -3 3
-9 2 -12 -2z"/>
<path d="M5867 2073 c-4 -3 -7 -13 -7 -21 0 -12 3 -12 15 -2 8 7 15 16 15 21
0 11 -14 12 -23 2z"/>
<path d="M5730 2039 c0 -5 5 -7 10 -4 6 3 10 8 10 11 0 2 -4 4 -10 4 -5 0 -10
-5 -10 -11z"/>
<path d="M5144 2005 c12 -38 32 -49 22 -12 -3 12 -6 28 -6 35 0 6 -6 12 -14
12 -10 0 -11 -7 -2 -35z"/>
<path d="M5394 1943 c5 -9 -1 -13 -18 -13 -30 0 -31 -3 -10 -35 13 -20 14 -28
4 -40 -10 -12 -10 -15 3 -15 8 0 24 -3 34 -7 16 -6 16 -5 4 10 -11 14 -11 21
3 42 16 24 15 26 -5 48 -12 12 -19 16 -15 10z"/>
<path d="M5175 1910 c3 -5 8 -10 11 -10 2 0 4 5 4 10 0 6 -5 10 -11 10 -5 0
-7 -4 -4 -10z"/>
<path d="M5501 1901 c19 -15 28 -17 49 -8 47 20 44 27 -14 27 l-58 0 23 -19z"/>
<path d="M5425 1870 c3 -5 8 -10 11 -10 2 0 4 5 4 10 0 6 -5 10 -11 10 -5 0
-7 -4 -4 -10z"/>
<path d="M5282 1828 c-15 -15 -16 -38 -2 -38 6 0 10 4 10 9 0 5 10 11 23 13
l22 3 -21 12 c-16 9 -24 9 -32 1z"/>
<path d="M5489 1813 c-13 -16 -12 -17 4 -4 9 7 17 15 17 17 0 8 -8 3 -21 -13z"/>
<path d="M5600 1820 c0 -5 7 -7 15 -4 8 4 15 8 15 10 0 2 -7 4 -15 4 -8 0 -15
-4 -15 -10z"/>
<path d="M3870 1440 c0 -5 5 -10 11 -10 5 0 7 5 4 10 -3 6 -8 10 -11 10 -2 0
-4 -4 -4 -10z"/>
<path d="M3826 1414 c-11 -8 -16 -14 -12 -14 5 0 2 -7 -5 -16 -12 -14 -11 -16
6 -13 11 3 20 9 20 14 0 6 4 16 9 23 12 20 4 22 -18 6z"/>
<path d="M3564 1399 c-6 -11 24 -10 86 0 45 8 45 8 -18 9 -34 0 -65 -4 -68 -9z"/>
<path d="M3475 1380 c-3 -5 1 -10 9 -10 8 0 18 5 21 10 3 6 -1 10 -9 10 -8 0
-18 -4 -21 -10z"/>
<path d="M3695 1370 c3 -5 8 -10 11 -10 2 0 4 5 4 10 0 6 -5 10 -11 10 -5 0
-7 -4 -4 -10z"/>
<path d="M2398 1443 c7 -3 16 -2 19 1 4 3 -2 6 -13 5 -11 0 -14 -3 -6 -6z"/>
<path d="M3005 1400 c3 -5 11 -10 16 -10 6 0 7 5 4 10 -3 6 -11 10 -16 10 -6
0 -7 -4 -4 -10z"/>
<path d="M4460 395 c-14 -17 -5 -36 15 -28 16 6 21 43 6 43 -5 0 -14 -7 -21
-15z"/>
<path d="M3900 3693 c0 -31 41 -93 61 -93 21 0 6 48 -26 85 l-35 40 0 -32z"/>
<path d="M3965 3360 c-3 -5 -1 -18 4 -27 9 -16 10 -14 11 10 0 28 -5 34 -15
17z"/>
<path d="M4555 3210 c-3 -5 -1 -10 4 -10 6 0 11 5 11 10 0 6 -2 10 -4 10 -3 0
-8 -4 -11 -10z"/>
<path d="M4206 3181 c-19 -21 -19 -52 0 -58 11 -4 20 16 30 60 5 23 -9 22 -30
-2z"/>
<path d="M76 1736 c-7 -12 -10 -29 -7 -39 6 -16 10 -14 36 13 16 16 35 30 44
30 27 0 3 12 -28 14 -22 2 -35 -4 -45 -18z"/>
<path d="M657 1726 c-6 -16 1 -26 19 -26 7 0 10 8 7 20 -6 23 -19 26 -26 6z"/>
<path d="M1020 1732 c0 -4 7 -17 15 -28 17 -22 20 -38 5 -29 -6 3 -7 -1 -4
-10 5 -12 15 -14 43 -9 40 7 52 15 34 21 -7 2 -9 11 -6 19 3 10 -2 14 -19 14
-13 0 -34 7 -46 16 -12 8 -22 11 -22 6z"/>
<path d="M986 1661 c-3 -5 5 -12 19 -15 14 -4 25 -13 25 -22 0 -10 7 -14 22
-12 31 4 35 28 5 28 -14 0 -32 7 -41 15 -17 17 -23 18 -30 6z"/>
<path d="M1344 1611 c3 -5 15 -7 26 -4 28 7 25 13 -6 13 -14 0 -23 -4 -20 -9z"/>
<path d="M280 1590 c0 -6 7 -13 15 -17 24 -9 27 1 5 15 -13 8 -20 8 -20 2z"/>
</g>
</svg>
