<?xml version="1.0" standalone="no"?>
<!DOCTYPE svg PUBLIC "-//W3C//DTD SVG 20010904//EN"
 "http://www.w3.org/TR/2001/REC-SVG-20010904/DTD/svg10.dtd">
<svg version="1.0" xmlns="http://www.w3.org/2000/svg"
 width="652.000000pt" height="434.000000pt" viewBox="0 0 652.000000 434.000000"
 preserveAspectRatio="xMidYMid meet">

<g transform="translate(0.000000,434.000000) scale(0.100000,-0.100000)"
fill="#000000" stroke="none">
<path d="M1 3840 c0 -308 3 -502 9 -505 6 -4 10 -16 9 -28 0 -21 -1 -21 -9 -2
-5 12 -9 -39 -9 -135 l-1 -156 35 -54 c40 -62 39 -57 21 -89 -13 -24 -14 -24
-20 -4 -4 12 -13 23 -20 26 -10 4 -13 -29 -14 -165 -1 -158 5 -189 23 -129 5
16 4 21 -4 17 -6 -4 -11 0 -11 8 0 9 4 16 8 16 11 0 45 -60 38 -67 -3 -4 -1
-12 5 -20 9 -10 8 -13 -2 -13 -32 -1 -54 -53 -56 -130 l-2 -75 67 2 c37 1 56
-1 42 -4 -13 -3 -30 -14 -38 -24 -8 -11 -25 -19 -43 -19 -19 0 -28 -4 -24 -11
4 -5 19 -9 33 -7 21 2 27 -2 33 -22 8 -32 0 -112 -14 -125 -6 -7 -8 11 -3 52
3 34 2 64 -2 67 -4 2 -17 -4 -30 -14 l-22 -19 1 -328 c0 -180 5 -338 10 -351
14 -37 30 -26 23 17 -5 33 -3 42 14 52 16 10 18 17 11 37 -10 26 -9 82 2 82
11 0 6 74 -5 82 -8 5 -7 8 1 8 20 0 43 -30 44 -58 1 -15 5 -38 10 -52 7 -21 8
-19 4 13 -4 35 8 52 18 25 2 -7 3 11 2 40 -2 38 -8 57 -21 68 -18 14 -18 14 0
7 16 -5 18 -3 11 13 -8 20 -9 43 -5 137 2 31 6 57 10 57 4 0 14 -18 23 -40 16
-43 33 -51 44 -23 4 10 11 21 16 25 7 4 7 38 1 97 -7 69 -7 90 2 87 7 -3 25
10 40 27 27 30 29 31 32 11 2 -12 -4 -52 -12 -88 -16 -65 -13 -116 5 -116 5 0
9 11 9 25 0 14 6 25 13 25 9 0 8 3 -2 9 -12 7 -11 20 3 81 21 94 22 90 -18 90
-38 0 -57 16 -32 26 23 9 20 22 -6 27 -13 2 7 5 43 6 86 1 109 22 55 48 -20 9
-32 19 -27 22 12 8 2 61 -11 61 -6 0 -22 -8 -36 -18 -15 -11 -41 -26 -59 -34
-30 -15 -31 -15 -27 6 6 34 48 136 56 136 4 0 5 -7 2 -15 -4 -8 -1 -22 6 -30
10 -12 10 -19 0 -32 -7 -10 2 -2 20 16 20 21 29 36 21 39 -9 3 -9 7 0 18 9 11
20 3 58 -47 37 -49 47 -57 49 -40 2 14 10 20 25 18 12 -1 25 -6 29 -11 19 -27
47 -11 132 72 49 48 86 80 83 71 -3 -9 0 -22 6 -28 8 -8 6 -15 -5 -28 -15 -17
-15 -20 7 -47 15 -19 34 -29 56 -31 19 -2 34 -4 34 -5 0 -1 19 -3 43 -4 38 -2
43 0 41 18 -4 30 23 76 77 132 l48 49 8 -30 c4 -16 8 -47 10 -68 1 -24 6 -36
14 -33 6 2 16 0 22 -6 8 -8 2 -28 -19 -69 -16 -32 -29 -65 -29 -74 0 -22 -28
-18 -53 7 -20 21 -24 22 -38 7 -8 -8 -14 -20 -12 -26 4 -10 -36 -8 -67 5 -28
10 -61 11 -54 1 3 -6 -3 -13 -15 -16 -23 -6 -25 -11 -11 -33 7 -12 33 -15 122
-15 108 0 113 1 116 22 3 19 11 22 96 28 52 4 116 4 142 1 54 -8 113 6 82 19
-22 9 -23 27 -4 63 15 29 6 46 -26 48 -11 1 -15 -4 -11 -15 5 -13 2 -12 -16 4
l-23 20 22 -45 c12 -25 26 -53 31 -62 16 -32 -10 -29 -38 4 -103 119 -104 120
-127 101 -12 -10 -15 -11 -9 -3 21 23 16 35 -41 116 l-54 76 45 67 c69 99 69
100 77 50 4 -24 15 -53 24 -64 16 -19 16 -19 0 -6 -19 14 -36 7 -65 -28 -17
-20 -17 -24 11 -54 20 -21 23 -33 19 -65 -3 -22 -1 -42 5 -45 5 -4 37 28 70
71 l61 77 -27 7 c-22 6 -32 2 -59 -24 -33 -32 -33 -32 -33 -7 0 28 13 51 26
48 5 -1 15 -1 23 0 19 2 7 56 -24 103 -14 21 -25 41 -25 45 0 5 25 37 55 71
30 35 55 67 55 73 0 5 7 9 15 9 17 0 20 -25 5 -35 -5 -3 -10 -16 -10 -28 1
-20 2 -21 14 -5 15 20 26 14 26 -14 0 -13 -7 -18 -25 -18 -14 0 -25 -5 -25
-12 0 -6 -6 -19 -14 -27 -13 -14 -12 -19 5 -39 10 -13 23 -21 28 -18 6 4 6 -5
0 -26 -11 -39 -12 -88 -1 -88 4 0 43 48 86 105 73 95 96 135 78 135 -10 0 -37
-43 -34 -53 6 -19 -17 6 -57 62 -34 50 -39 61 -24 61 10 0 25 -5 33 -11 12 -9
11 -10 -5 -4 -18 6 -18 4 3 -18 12 -13 20 -25 18 -28 -2 -2 7 -5 20 -5 23 -2
24 -1 7 12 -16 14 -15 14 14 9 30 -6 61 14 35 23 -7 2 -12 10 -12 18 0 11 -18
14 -81 14 -77 0 -80 1 -74 21 7 21 -21 53 -37 43 -5 -3 -8 6 -8 20 0 27 14 33
40 16 12 -8 13 -12 2 -19 -10 -6 -8 -10 11 -15 32 -8 57 2 51 19 -8 19 7 24
36 12 l25 -10 -25 -7 c-23 -8 -23 -8 8 -9 26 -1 32 3 32 20 0 16 4 19 20 14
12 -4 27 -1 35 5 11 9 15 9 15 1 0 -7 6 -11 13 -9 7 2 14 -1 15 -7 1 -5 -11
-10 -27 -10 -17 0 -33 -4 -37 -8 -4 -4 10 -7 31 -7 26 0 43 7 55 21 20 22 41
26 84 15 27 -7 27 -8 10 -21 -18 -14 -17 -14 8 -15 15 0 30 5 33 10 3 6 1 10
-6 10 -7 0 -4 7 7 15 34 26 86 16 63 -12 -9 -10 -7 -13 9 -13 31 0 33 41 4 75
-24 28 -24 28 -20 4 2 -19 -1 -24 -17 -22 -11 1 -22 -3 -26 -8 -8 -13 -32 -3
-47 21 -9 16 -9 18 2 14 10 -4 14 15 19 78 10 118 9 164 -2 153 -12 -12 -31
-86 -37 -145 -4 -47 -18 -83 -43 -112 -14 -18 -47 -26 -37 -10 3 5 -4 16 -15
26 -12 10 -18 20 -14 24 3 3 10 1 14 -6 4 -7 13 42 20 109 12 121 12 122 -10
143 -12 12 -19 16 -16 10 4 -6 0 -42 -8 -80 -8 -38 -15 -87 -15 -110 0 -27 -8
-54 -24 -76 l-23 -35 23 11 c12 6 20 15 17 20 -4 5 -1 6 5 2 15 -9 4 -36 -13
-30 -7 3 -16 1 -20 -5 -3 -6 -16 -11 -27 -11 -23 0 -22 -13 -4 270 1 14 8 42
15 62 15 46 9 58 -32 58 -19 0 -27 4 -22 9 14 13 185 22 185 10 0 -5 -3 -9 -7
-9 -18 -1 -88 -12 -91 -15 -1 -1 7 -14 19 -29 17 -22 24 -24 36 -15 11 10 14
10 11 -2 -2 -8 4 -14 12 -14 8 0 21 19 30 43 8 24 19 45 24 45 5 1 19 -18 31
-42 14 -27 25 -38 28 -30 3 8 3 -1 0 -20 -9 -50 17 -36 33 20 8 24 14 45 14
45 0 1 -14 4 -31 8 -50 10 -25 23 58 31 l77 7 -34 15 c-20 9 -29 17 -22 20 8
3 3 12 -14 26 -24 19 -27 19 -36 3 -9 -15 -11 -15 -35 4 -36 28 -137 24 -133
-5 2 -18 -31 -17 -50 0 -18 16 -20 16 -35 1 -15 -14 -19 -15 -38 -1 -13 9 -44
15 -83 15 -35 0 -74 6 -90 15 -20 10 -23 15 -11 15 9 0 17 8 17 18 0 9 5 24
10 32 7 12 14 9 38 -18 39 -44 76 -44 88 1 7 22 16 32 29 32 14 0 19 -6 17
-18 -4 -22 24 -46 54 -47 15 0 24 8 28 25 8 31 19 32 39 1 15 -23 19 -24 104
-19 60 4 91 10 96 20 5 7 13 11 18 8 5 -4 7 -11 4 -16 -4 -5 13 -9 39 -9 39 0
45 3 54 28 9 26 9 27 16 5 7 -20 14 -23 67 -23 63 0 79 14 28 25 -42 9 -31 16
14 8 22 -3 37 -11 37 -19 0 -15 12 -18 23 -7 4 3 26 7 49 7 24 1 71 3 106 4
l62 2 -5 31 c-4 22 -2 30 7 26 7 -2 13 -14 12 -27 -1 -21 2 -22 50 -15 28 4
59 7 69 7 11 -1 15 4 11 11 -5 9 -4 9 6 0 11 -10 11 -15 0 -28 -9 -10 -9 -15
-1 -15 8 0 10 -17 7 -53 -6 -70 -14 -101 -46 -172 -15 -33 -30 -70 -34 -83 -4
-12 -11 -20 -16 -17 -5 3 -14 -3 -19 -14 -14 -26 -14 -44 0 -35 7 4 9 -2 7
-17 -1 -13 -8 -24 -15 -24 -17 0 -26 -12 -18 -25 6 -9 10 -9 16 1 16 26 22 -1
10 -42 -16 -52 0 -99 33 -99 11 0 57 -9 101 -20 44 -11 104 -23 134 -26 30 -3
67 -12 81 -19 81 -42 122 -162 86 -248 -19 -46 -82 -99 -115 -97 -76 5 -92 1
-109 -32 -23 -44 -134 -152 -177 -172 -19 -9 -35 -22 -35 -29 0 -7 -14 -24
-32 -40 -18 -15 -26 -25 -17 -21 20 6 31 -29 24 -73 -2 -15 -21 -129 -41 -253
-49 -306 -86 -486 -144 -697 -50 -183 -133 -454 -144 -472 -12 -18 10 -20 165
-11 500 30 886 51 1119 60 146 5 292 12 325 15 33 2 113 6 178 7 l118 3 -3
561 -3 562 -41 48 c-60 73 -95 128 -154 244 -66 130 -64 126 -95 235 -34 120
-47 210 -46 330 0 68 -3 102 -12 107 -9 6 -9 10 2 17 10 6 12 19 7 46 -13 69
-7 233 14 346 11 61 17 115 14 120 -9 14 7 119 17 113 5 -3 9 -3 9 0 0 3 9 53
20 111 12 58 18 110 15 115 -12 20 49 30 173 28 l127 -1 -102 -6 c-101 -6
-137 -17 -95 -28 15 -3 21 -11 18 -22 -3 -9 -8 -47 -12 -86 -3 -38 -8 -81 -10
-95 -2 -14 -7 -55 -10 -93 -6 -60 -9 -67 -25 -62 -15 5 -19 1 -19 -19 0 -16 6
-26 14 -26 16 0 25 -19 19 -37 -3 -7 -11 -13 -18 -13 -9 0 -11 -8 -7 -22 3
-14 2 -19 -6 -14 -7 4 -12 2 -12 -3 0 -19 319 -18 331 0 4 8 10 6 16 -5 7 -13
24 -15 92 -13 l83 2 4 75 c1 41 6 118 10 170 5 52 7 113 6 135 -1 31 0 36 7
20 9 -18 10 -17 10 8 1 15 -3 27 -9 27 -5 0 -10 14 -10 30 0 26 -4 30 -27 30
-38 0 -24 9 20 12 43 3 47 11 50 106 2 70 4 72 101 72 61 0 72 -6 24 -12 -40
-6 -47 -18 -10 -18 30 0 52 -15 32 -22 -16 -5 -26 -96 -21 -210 1 -30 4 -36
17 -31 16 6 16 -4 -4 -56 -3 -9 0 -12 9 -9 15 5 16 8 18 58 0 17 7 30 14 30 9
0 11 -19 6 -77 -3 -43 -4 -80 -2 -82 1 -2 48 -6 104 -9 79 -4 103 -2 110 9 6
10 9 10 9 2 0 -7 4 -13 9 -13 8 0 8 20 1 40 -1 3 -1 20 0 37 1 18 -5 42 -14
54 -21 31 -11 239 13 253 20 12 63 17 57 7 -3 -4 -6 -49 -7 -100 -1 -50 -6
-94 -11 -97 -6 -4 -5 -10 3 -15 8 -5 9 -9 3 -9 -7 0 -8 -17 -4 -48 3 -27 3
-61 -1 -75 -6 -23 -4 -27 14 -28 21 0 21 -1 2 -9 -13 -5 22 -9 95 -9 116 1
138 6 45 11 -43 3 -50 6 -53 26 -2 12 1 22 7 22 6 0 11 9 11 20 0 11 -5 20
-11 20 -6 0 -3 7 5 16 18 18 21 34 6 34 -7 0 -7 6 0 20 12 22 54 27 66 8 20
-32 26 105 9 188 -3 12 1 33 8 46 13 26 48 30 113 14 31 -8 32 -9 43 -100 48
-369 58 -793 26 -1140 -9 -94 -58 -305 -91 -386 -14 -36 -32 -87 -41 -115 -8
-27 -24 -66 -35 -85 -71 -122 -142 -344 -173 -540 -15 -98 -45 -522 -45 -642
l0 -68 38 0 c21 0 73 4 117 9 44 6 188 12 320 16 132 3 262 8 288 12 l48 6 -4
486 c-3 476 -8 550 -36 543 -7 -1 -9 3 -6 9 4 6 -6 25 -22 42 -55 59 -171 274
-211 392 -50 148 -91 414 -70 448 4 7 8 35 8 62 0 36 -3 46 -10 35 -25 -39 -1
369 35 600 42 260 38 251 115 263 17 3 14 5 -12 6 -20 0 -39 5 -42 10 -4 5 4
7 16 5 13 -2 17 -2 10 2 -6 3 -9 10 -6 16 4 6 -1 8 -15 3 l-22 -7 21 34 c26
43 25 58 -4 58 -16 0 -27 7 -31 19 -8 25 14 61 37 61 14 0 18 8 18 40 0 22 5
40 10 40 16 0 12 15 -10 40 -11 13 -20 27 -20 32 0 4 -453 7 -1007 6 l-1008
-3 0 -38 c0 -37 0 -37 -42 -37 -24 0 -43 -4 -43 -10 0 -5 -25 -10 -55 -10 -30
0 -55 5 -55 10 0 6 7 10 15 10 11 0 15 11 15 40 l0 40 -1520 0 -1519 0 0 -500z
m4722 304 c63 -6 79 -11 91 -28 13 -21 12 -22 -23 -24 -33 -1 -34 0 -13 10 39
19 24 28 -50 29 -40 0 -95 4 -123 9 l-50 7 46 2 c25 0 80 -2 122 -5z m-256
-10 c-3 -3 -12 -4 -19 -1 -8 3 -5 6 6 6 11 1 17 -2 13 -5z m46 -1 c-7 -2 -19
-2 -25 0 -7 3 -2 5 12 5 14 0 19 -2 13 -5z m216 -22 c14 -9 5 -18 -18 -17 -18
1 -27 26 -9 26 7 0 19 -4 27 -9z m-322 -17 c-3 -3 -12 -4 -19 -1 -8 3 -5 6 6
6 11 1 17 -2 13 -5z m-1304 -81 c-13 -2 -23 -9 -23 -14 0 -5 -9 -9 -20 -9 -11
0 -20 4 -20 9 0 11 25 19 60 18 23 0 23 0 3 -4z m870 -20 c-13 -2 -35 -2 -50
0 -16 2 -5 4 22 4 28 0 40 -2 28 -4z m-915 -37 c-10 -7 -18 -21 -18 -31 0 -10
-3 -16 -6 -12 -13 12 6 57 24 57 16 -1 16 -1 0 -14z m945 -9 c-31 -9 -31 -11
-38 -88 -4 -44 -10 -79 -15 -79 -4 0 -7 40 -6 88 l1 89 45 -1 c44 0 44 0 13
-9z m-3282 -89 c16 -29 2 -21 -22 15 -17 23 -18 28 -6 18 10 -8 23 -23 28 -33z
m77 35 c-10 -2 -26 -2 -35 0 -10 3 -2 5 17 5 19 0 27 -2 18 -5z m282 -3 c-14
-4 -37 -5 -52 -2 -17 3 -28 0 -28 -7 0 -6 -7 -11 -15 -11 -8 0 -15 7 -15 15 0
12 14 15 68 14 47 -1 60 -3 42 -9z m270 0 c14 -4 -20 -5 -75 -3 -55 3 -102 7
-104 9 -8 7 154 2 179 -6z m2698 -170 c-1 -94 -1 -95 -8 -30 -4 36 -8 99 -8
140 0 68 1 71 9 30 4 -25 7 -88 7 -140z m-1052 143 c-10 -10 -19 5 -10 18 6
11 8 11 12 0 2 -7 1 -15 -2 -18z m759 -48 c-4 -37 -9 -64 -12 -62 -3 3 -2 35
2 72 4 36 10 64 12 61 3 -3 2 -35 -2 -71z m-2947 4 c-3 -8 -7 -3 -11 10 -4 17
-3 21 5 13 5 -5 8 -16 6 -23z m772 27 c0 -3 -4 -8 -10 -11 -5 -3 -10 -1 -10 4
0 6 5 11 10 11 6 0 10 -2 10 -4z m460 -18 c0 -7 -4 -19 -9 -26 -6 -11 -9 -9
-14 7 -3 14 -11 18 -25 14 -11 -2 -23 0 -26 6 -5 7 7 11 33 11 26 0 41 -5 41
-12z m105 -22 c14 -8 22 -16 18 -19 -5 -3 -22 3 -39 14 -33 22 -19 26 21 5z
m-1987 -25 c11 -30 7 -41 -12 -41 -6 0 -12 16 -13 35 -2 43 11 46 25 6z m1800
9 c-14 -21 -38 -27 -38 -9 0 5 5 7 10 4 6 -3 13 1 16 9 3 9 10 16 15 16 5 0 4
-9 -3 -20z m1962 -16 c0 -8 5 -12 10 -9 22 13 49 -6 56 -40 4 -25 10 -32 22
-28 11 5 14 2 9 -10 -3 -8 -1 -18 6 -21 9 -3 8 -7 -2 -14 -13 -9 -13 -13 0
-28 13 -16 12 -17 -8 -12 -16 4 -23 0 -26 -14 -3 -11 -10 -17 -16 -14 -6 4 -7
14 -4 22 5 14 3 14 -15 3 -28 -17 -40 -4 -18 20 16 17 16 19 -1 25 -15 6 -15
8 -3 16 11 7 12 12 4 20 -9 9 -13 5 -18 -15 -9 -36 -29 -20 -23 18 3 23 -1 36
-17 49 l-21 17 24 1 c16 0 21 4 18 14 -3 8 -3 17 0 20 9 9 23 -4 23 -20z
m-3050 -32 c36 -53 36 -52 -10 -52 -27 0 -39 4 -35 11 4 6 13 8 21 5 8 -3 14
-1 14 4 0 6 -7 10 -15 10 -10 0 -15 10 -15 30 0 40 10 38 40 -8z m1455 28 c19
-8 19 -9 -2 -9 -12 -1 -25 4 -28 9 -7 12 2 12 30 0z m-177 -18 c2 -7 -6 -12
-17 -12 -21 0 -27 11 -14 24 9 9 26 2 31 -12z m-1108 -28 c0 -16 6 -24 18 -25
9 -1 -1 -5 -22 -9 -56 -11 -76 -3 -76 29 0 36 3 38 45 33 29 -4 35 -8 35 -28z
m101 23 c9 -7 21 -22 27 -33 10 -19 9 -23 -10 -27 -11 -3 -33 -3 -48 -1 -25 6
-26 7 -16 40 12 36 21 41 47 21z m499 -4 c0 -5 -5 -15 -10 -23 -8 -12 -10 -11
-10 8 0 12 5 22 10 22 6 0 10 -3 10 -7z m3085 -2 c3 -5 2 -12 -3 -15 -5 -3 -9
1 -9 9 0 17 3 19 12 6z m-4562 -38 c-7 -2 -21 -2 -30 0 -10 3 -4 5 12 5 17 0
24 -2 18 -5z m627 -43 c0 -5 -12 -10 -27 -9 l-28 1 25 8 c14 4 26 8 28 9 1 1
2 -3 2 -9z m160 -1 c34 0 40 -2 25 -9 -11 -5 -15 -9 -8 -9 7 -1 10 -8 6 -18
-4 -10 -2 -14 5 -9 15 9 27 -13 13 -27 -8 -8 -11 -8 -11 1 0 6 -7 9 -16 5 -13
-5 -15 -2 -10 14 8 26 -37 52 -63 36 -13 -8 -23 -7 -41 2 -22 12 -23 13 -4 18
10 3 28 3 39 1 11 -2 40 -4 65 -5z m-337 -6 c-7 -2 -19 -2 -25 0 -7 3 -2 5 12
5 14 0 19 -2 13 -5z m431 -8 c-25 -19 -34 -19 -34 0 0 10 10 15 27 15 26 0 26
-1 7 -15z m204 9 c30 -8 28 -24 -3 -24 -14 0 -25 5 -25 10 0 12 -42 13 -55 2
-6 -5 -28 -3 -50 4 l-40 12 75 1 c41 0 85 -2 98 -5z m-568 -25 c10 -17 9 -20
-5 -17 -9 1 -15 7 -15 12 1 5 -4 13 -12 17 -10 7 -9 9 4 9 10 0 22 -9 28 -21z
m2287 -1 c-3 -8 -6 -5 -6 6 -1 11 2 17 5 13 3 -3 4 -12 1 -19z m-2027 -5 c0
-5 -5 -15 -11 -23 -8 -11 -12 -12 -16 -2 -7 17 -26 15 -20 -2 4 -10 1 -13 -7
-10 -26 10 -6 44 25 44 16 0 29 -3 29 -7z m208 -20 c2 -13 -1 -23 -7 -23 -6 0
-11 7 -11 15 0 21 -20 19 -21 -2 0 -15 -2 -15 -9 2 -14 32 -12 37 18 33 19 -2
28 -9 30 -25z m215 3 c5 -8 10 -7 16 2 6 11 10 10 15 -4 6 -16 8 -16 22 2 14
19 15 19 12 -1 -3 -17 -12 -20 -58 -23 -30 -1 -64 -3 -75 -5 -15 -1 -21 5 -23
23 -2 17 0 21 6 12 7 -11 10 -11 15 2 5 12 14 15 34 10 16 -4 31 -12 36 -18z
m233 0 c17 6 17 5 4 -9 -17 -18 -60 -13 -60 7 0 22 14 28 26 11 7 -9 18 -13
30 -9z m-736 4 c0 -5 -2 -10 -4 -10 -3 0 -8 5 -11 10 -3 6 -1 10 4 10 6 0 11
-4 11 -10z m220 3 c-1 -18 -18 -35 -24 -24 -4 6 -4 16 -1 21 7 12 25 13 25 3z
m110 -14 c0 -5 -4 -9 -10 -9 -5 0 -10 7 -10 16 0 8 5 12 10 9 6 -3 10 -10 10
-16z m34 6 c3 -9 0 -15 -9 -15 -8 0 -15 7 -15 15 0 8 4 15 9 15 5 0 11 -7 15
-15z m28 -17 c-9 -9 -12 -7 -12 12 0 19 3 21 12 12 9 -9 9 -15 0 -24z m238 22
c0 -5 -5 -10 -11 -10 -5 0 -7 5 -4 10 3 6 8 10 11 10 2 0 4 -4 4 -10z m35 1
c3 -5 1 -12 -5 -16 -5 -3 -10 1 -10 9 0 18 6 21 15 7z m190 -1 c3 -5 1 -10 -4
-10 -6 0 -11 5 -11 10 0 6 2 10 4 10 3 0 8 -4 11 -10z m2342 -12 c-3 -8 -6 -5
-6 6 -1 11 2 17 5 13 3 -3 4 -12 1 -19z m-2592 -8 c3 -5 -1 -10 -9 -10 -9 0
-16 5 -16 10 0 6 4 10 9 10 6 0 13 -4 16 -10z m2595 -62 c0 -28 -2 -49 -4 -47
-8 9 -13 99 -5 99 5 0 9 -23 9 -52z m-3026 1 c-14 -6 -15 -8 -3 -8 18 -1 39
-41 39 -73 0 -17 -3 -18 -15 -8 -18 15 -35 5 -35 -21 0 -10 -6 -19 -14 -19 -9
0 -15 15 -18 45 -4 52 0 68 14 59 9 -6 6 12 -9 53 -3 8 6 7 28 -4 29 -15 31
-17 13 -24z m-904 10 c0 -5 -7 -9 -15 -9 -15 0 -20 12 -9 23 8 8 24 -1 24 -14z
m303 -25 c-7 -18 -9 -16 -17 21 -6 28 -5 29 8 12 8 -11 12 -25 9 -33z m323
-28 c4 -17 7 -34 6 -39 -1 -4 -3 -31 -3 -61 -2 -51 -2 -53 -28 -47 -20 4 -22
6 -8 9 15 3 17 9 12 30 -4 15 -10 29 -13 32 -9 6 -12 29 -16 98 l-3 53 23 -22
c13 -12 26 -36 30 -53z m494 64 c-36 -12 -100 -12 -100 0 0 6 27 10 63 9 46
-1 56 -3 37 -9z m78 -17 c27 -38 31 -82 15 -156 -7 -34 -13 -83 -13 -108 0
-47 -31 -108 -59 -117 -12 -4 -13 14 -6 114 4 66 9 142 11 169 4 71 15 125 24
125 5 0 17 -12 28 -27z m-75 -10 c-8 -21 -33 -48 -33 -36 0 10 29 53 35 53 3
0 1 -8 -2 -17z m-1079 -9 c3 -8 2 -12 -4 -9 -6 3 -10 10 -10 16 0 14 7 11 14
-7z m443 -88 c6 -47 -10 -65 -22 -26 -4 11 -11 18 -16 15 -9 -6 -14 14 -11 45
1 8 -3 29 -9 45 l-10 30 32 -31 c23 -24 33 -43 36 -78z m276 65 c11 -19 17
-51 17 -90 0 -51 -2 -59 -16 -54 -12 4 -14 14 -10 35 3 18 2 27 -4 23 -6 -3
-10 -1 -10 5 0 6 -4 8 -10 5 -6 -4 -10 16 -10 54 0 67 13 73 43 22z m300 3
c12 -16 17 -36 14 -62 -3 -32 -5 -34 -12 -14 -8 24 -25 30 -25 9 0 -7 8 -17
18 -24 14 -8 18 -20 14 -42 -4 -27 -8 -31 -26 -25 -11 4 -22 7 -23 9 -6 4 -22
106 -19 117 3 7 7 25 10 40 7 31 22 29 49 -8z m-879 -12 c7 -15 17 -43 21 -62
6 -32 6 -34 -9 -20 -9 9 -22 39 -29 67 -14 54 -7 61 17 15z m1070 -1 c-9 -18
-18 -30 -21 -28 -2 3 3 19 12 37 9 18 18 30 21 28 2 -3 -3 -19 -12 -37z m-914
-32 c0 -22 -4 -39 -8 -39 -5 0 -6 -15 -4 -32 7 -51 -4 -30 -22 41 -16 64 -14
89 5 61 8 -11 8 -8 3 10 -6 22 -5 23 10 11 10 -8 16 -28 16 -52z m200 41 c0
-5 -7 -10 -15 -10 -8 0 -15 5 -15 10 0 6 7 10 15 10 8 0 15 -4 15 -10z m3004
-6 c5 -14 4 -15 -9 -4 -17 14 -19 20 -6 20 5 0 12 -7 15 -16z m-3515 -90 c1
-23 -4 -33 -17 -36 -17 -5 -17 -1 -8 56 8 50 11 56 17 36 4 -14 7 -39 8 -56z
m101 9 c0 -51 -24 -36 -28 17 -3 39 -2 42 12 31 9 -8 16 -29 16 -48z m327 -25
c-3 -8 -6 -5 -6 6 -1 11 2 17 5 13 3 -3 4 -12 1 -19z m-529 -18 c-3 -16 -1
-30 4 -30 4 0 8 -10 8 -22 0 -22 -1 -22 -14 3 -7 15 -11 39 -9 53 7 36 16 33
11 -4z m944 -2 c-7 -7 -12 -8 -12 -2 0 14 12 26 19 19 2 -3 -1 -11 -7 -17z
m58 0 c0 -18 -2 -20 -9 -8 -6 8 -7 18 -5 22 9 14 14 9 14 -14z m-793 -12 c-3
-7 0 -19 6 -25 13 -13 5 -23 -14 -16 -21 8 -23 55 -3 55 10 0 14 -6 11 -14z
m353 -2 c0 -8 -4 -12 -10 -9 -5 3 -10 10 -10 16 0 5 5 9 10 9 6 0 10 -7 10
-16z m-448 -51 c-2 -7 -9 -10 -14 -7 -6 4 -14 0 -19 -7 -7 -11 -9 -11 -9 3 0
9 -3 24 -7 34 -4 11 -3 15 4 11 6 -4 17 1 24 9 12 15 14 14 20 -7 3 -13 4 -30
1 -36z m987 24 c52 14 44 -122 -9 -155 -22 -14 -21 -16 -22 53 -1 67 3 121 8
109 3 -7 13 -10 23 -7z m-249 -43 c0 -36 -34 -114 -49 -114 -5 0 -8 34 -8 75
0 57 4 75 14 71 7 -3 15 -1 18 5 12 18 25 -2 25 -37z m142 34 c11 -31 -5 -95
-33 -128 l-28 -35 -1 82 c0 77 1 82 23 86 12 2 25 5 28 6 4 0 9 -5 11 -11z
m-432 -8 c0 -5 -6 -10 -12 -11 -10 0 -10 -2 0 -6 14 -6 17 -43 2 -43 -12 0
-24 45 -15 59 8 14 25 14 25 1z m146 -1 c4 -8 -1 -9 -16 -4 -17 5 -21 4 -17
-6 2 -8 10 -13 16 -11 15 3 14 -51 -1 -66 -20 -20 -25 -14 -27 43 -2 49 0 55
18 55 11 0 23 -5 27 -11z m462 -118 c4 -1 -25 -31 -31 -31 -3 0 -7 8 -10 19
-3 14 1 18 17 16 11 -1 22 -3 24 -4z m-178 -51 c0 -5 -7 -10 -16 -10 -8 0 -12
-4 -9 -10 7 -12 -18 -14 -29 -2 -4 4 -12 8 -17 8 -18 3 -20 4 -15 12 7 12 86
14 86 2z m86 0 c8 0 14 -7 14 -15 0 -18 -42 -20 -73 -3 -21 11 -21 11 -2 19
11 4 26 6 33 3 8 -2 20 -4 28 -4z m-291 -40 c3 -5 -1 -10 -9 -10 -9 0 -16 5
-16 10 0 6 4 10 9 10 6 0 13 -4 16 -10z m4272 -47 c-3 -10 -5 -2 -5 17 0 19 2
27 5 18 2 -10 2 -26 0 -35z m-4252 7 c-28 -12 -45 -12 -45 0 0 6 15 10 33 9
27 0 29 -2 12 -9z m-120 -10 c-3 -5 -12 -7 -20 -3 -21 7 -19 13 6 13 11 0 18
-4 14 -10z m460 -20 c-3 -5 -10 -10 -16 -10 -5 0 -9 5 -9 10 0 6 7 10 16 10 8
0 12 -4 9 -10z m-248 -82 c-31 -68 -39 -90 -28 -84 13 8 48 -36 53 -67 4 -18
0 -30 -10 -36 -10 -6 -11 -10 -3 -15 6 -4 11 -12 11 -18 0 -6 -27 24 -59 68
l-59 79 35 50 c76 106 78 108 81 92 2 -9 -8 -40 -21 -69z m83 67 c0 -12 -19
-12 -23 0 -4 9 -1 12 9 8 7 -3 14 -7 14 -8z m-813 -47 l2 -33 -14 35 c-17 45
-18 55 -2 42 7 -6 13 -26 14 -44z m579 16 c19 -15 33 -32 31 -38 -2 -6 0 -20
6 -31 6 -11 -11 3 -36 30 -64 69 -64 87 -1 39z m-696 7 c0 -5 -7 -14 -15 -21
-12 -10 -15 -10 -15 2 0 8 3 18 7 21 9 10 23 9 23 -2z m395 -58 c-2 -7 1 -12
7 -10 6 1 13 -4 15 -10 3 -7 -2 -13 -10 -13 -8 0 -23 19 -33 43 -27 63 -27 64
0 32 14 -16 24 -36 21 -42z m185 63 c0 -3 -4 -8 -10 -11 -5 -3 -10 -1 -10 4 0
6 5 11 10 11 6 0 10 -2 10 -4z m409 -30 c7 -8 11 -27 9 -43 l-3 -28 -32 44
c-18 24 -30 48 -27 53 6 10 35 -4 53 -26z m-817 -64 c-14 -2 -21 -14 -25 -38
-6 -36 -42 -94 -58 -94 -5 0 -9 18 -9 40 0 22 5 40 10 40 6 0 9 -3 9 -7 -4
-23 2 -36 11 -27 5 5 11 33 12 61 1 28 5 50 9 47 10 -6 19 22 11 33 -4 5 6 -5
21 -22 25 -27 26 -30 9 -33z m363 9 c-3 -6 -11 -11 -17 -11 -6 0 -6 6 2 15 14
17 26 13 15 -4z m700 -19 c-6 -7 -35 18 -35 31 0 5 9 2 20 -8 11 -10 18 -20
15 -23z m-79 -40 c-10 -10 -29 15 -21 28 6 9 10 8 17 -4 6 -10 7 -20 4 -24z
m-873 -98 c-4 -10 0 -12 11 -8 9 3 16 1 16 -5 0 -6 -14 -11 -32 -11 -23 0 -38
8 -58 31 -24 29 -25 35 -16 75 l10 43 37 -56 c21 -31 35 -62 32 -69z m269 97
l23 -26 -22 19 c-31 26 -29 4 3 -31 20 -22 24 -24 19 -8 -4 13 -3 16 3 10 6
-5 13 -26 17 -45 7 -33 6 -32 -44 29 -28 36 -51 67 -51 71 0 16 32 5 52 -19z
m188 -36 c0 -35 -6 -51 -31 -79 l-31 -36 23 -32 c13 -18 24 -38 25 -44 1 -6 5
-25 9 -42 6 -28 4 -31 -31 -42 -36 -12 -37 -12 -75 30 -29 31 -38 48 -33 63 3
11 1 23 -5 27 -9 5 -8 10 2 18 11 10 23 3 57 -31 46 -45 45 -36 -2 25 l-29 37
58 75 c32 41 59 75 61 75 1 1 2 -19 2 -44z m-701 -17 c31 -42 45 -86 19 -60
-7 7 -19 12 -28 12 -13 -1 -12 -3 3 -14 25 -19 22 -32 -22 -87 l-39 -49 -16
31 c-17 33 -15 41 18 77 17 19 18 26 8 43 -7 11 -10 24 -7 30 4 5 3 9 -2 8
-23 -4 -22 3 4 26 15 13 29 25 30 25 1 0 15 -19 32 -42z m146 20 c-7 -23 -62
-77 -78 -78 -5 0 10 23 33 50 47 56 54 60 45 28z m375 -68 l21 -30 -30 0 c-22
0 -35 8 -51 30 l-21 30 30 0 c22 0 35 -8 51 -30z m230 10 c6 -11 8 -20 6 -20
-3 0 -10 9 -16 20 -6 11 -8 20 -6 20 3 0 10 -9 16 -20z m-651 -110 c28 -38 43
-65 33 -59 -9 6 -29 28 -45 49 -26 37 -39 43 -64 27 -7 -5 -13 -5 -13 -2 0 5
32 54 36 55 1 0 25 -31 53 -70z m285 -5 l17 -30 -20 24 c-12 13 -21 28 -21 34
0 12 0 11 24 -28z m-4 -40 c0 -7 9 -20 19 -29 19 -17 18 -18 -19 -52 -45 -41
-53 -43 -38 -9 10 23 8 29 -22 60 -30 30 -32 36 -19 52 8 10 18 21 24 25 11 8
55 -30 55 -47z m-317 9 c-3 -8 0 -21 7 -29 7 -8 10 -15 7 -15 -12 0 -48 60
-42 70 10 16 35 -8 28 -26z m24 -16 c-3 -8 -6 -5 -6 6 -1 11 2 17 5 13 3 -3 4
-12 1 -19z m174 5 c-5 -10 -19 -28 -31 -41 -18 -19 -24 -21 -37 -10 -13 11
-12 15 12 35 14 13 30 21 35 18 5 -3 11 -1 15 5 11 17 16 11 6 -7z m-283 -22
c-8 -12 -17 -18 -21 -15 -3 3 2 14 11 25 21 24 28 16 10 -10z m-32 -97 c8 3
12 1 9 -4 -3 -5 0 -7 8 -4 9 3 13 14 10 27 -3 17 0 16 13 -7 20 -36 35 -86 26
-86 -4 0 -30 19 -57 43 -36 32 -46 47 -39 58 7 11 10 9 12 -9 3 -16 8 -22 18
-18z m1014 -4 c0 -5 -5 -10 -11 -10 -5 0 -7 5 -4 10 3 6 8 10 11 10 2 0 4 -4
4 -10z m38 -49 c27 -24 28 -34 2 -26 -11 4 -20 2 -20 -4 0 -12 -29 -14 -55 -5
-14 6 -13 9 6 30 27 29 37 29 67 5z m4170 -156 c-3 -3 -9 2 -12 12 -6 14 -5
15 5 6 7 -7 10 -15 7 -18z m20 -46 c-3 -8 -7 -3 -11 10 -4 17 -3 21 5 13 5 -5
8 -16 6 -23z m42 -57 c0 -5 8 -12 18 -14 21 -6 23 -41 4 -60 -9 -9 -13 -7 -18
5 -3 9 -10 14 -15 11 -5 -3 -6 2 -2 12 5 15 7 15 15 0 5 -9 14 -16 21 -16 8 0
7 3 -2 9 -7 5 -11 13 -7 19 7 11 -12 11 -31 -1 -16 -10 -17 5 -1 21 9 9 9 15
0 24 -7 7 -12 16 -12 21 0 5 7 2 15 -7 8 -8 15 -19 15 -24z m-5251 -57 c-1
-29 -1 -29 -9 -5 -4 14 -8 34 -9 45 -1 16 1 17 9 5 5 -8 9 -28 9 -45z m5325
-155 c4 -59 3 -71 -6 -55 -6 11 -17 24 -25 28 -18 11 -17 62 2 81 13 12 13 19
4 34 -7 12 -9 27 -4 38 6 16 9 13 16 -16 4 -19 10 -69 13 -110z m-5384 100 c0
-5 -5 -10 -11 -10 -5 0 -7 5 -4 10 3 6 8 10 11 10 2 0 4 -4 4 -10z m5335 -20
c3 -5 -1 -10 -10 -10 -9 0 -13 5 -10 10 3 6 8 10 10 10 2 0 7 -4 10 -10z
m-5358 -82 c-3 -7 -5 -2 -5 12 0 14 2 19 5 13 2 -7 2 -19 0 -25z m10 -95 c-3
-10 -5 -2 -5 17 0 19 2 27 5 18 2 -10 2 -26 0 -35z"/>
<path d="M1031 3474 c0 -11 3 -14 6 -6 3 7 2 16 -1 19 -3 4 -6 -2 -5 -13z"/>
<path d="M720 3511 c0 -6 4 -13 10 -16 6 -3 7 1 4 9 -7 18 -14 21 -14 7z"/>
<path d="M1148 3243 c6 -2 18 -2 25 0 6 3 1 5 -13 5 -14 0 -19 -2 -12 -5z"/>
<path d="M910 2825 c0 -4 11 -20 25 -37 22 -26 37 -20 17 7 -12 16 -42 38 -42
30z"/>
<path d="M1060 2965 c0 -3 9 -14 20 -25 22 -22 26 -14 6 13 -13 16 -26 23 -26
12z"/>
<path d="M110 2810 c0 -5 5 -10 11 -10 5 0 7 5 4 10 -3 6 -8 10 -11 10 -2 0
-4 -4 -4 -10z"/>
<path d="M115 2710 c-3 -5 -1 -10 4 -10 6 0 11 5 11 10 0 6 -2 10 -4 10 -3 0
-8 -4 -11 -10z"/>
<path d="M97 2670 c-9 -13 -14 -26 -12 -29 9 -8 38 26 33 40 -3 8 -10 5 -21
-11z"/>
<path d="M5776 4325 c4 -8 3 -23 -2 -32 -9 -21 -12 -41 -18 -103 -2 -25 -5
-47 -7 -50 -6 -11 -4 -128 2 -124 4 2 10 -3 13 -12 4 -11 2 -15 -8 -11 -8 3
-27 2 -43 -3 -26 -8 -24 -8 16 -9 72 -2 170 -22 190 -40 15 -13 24 -54 45
-206 97 -705 44 -1087 -206 -1466 -30 -46 -69 -99 -86 -117 -16 -18 -35 -52
-41 -75 -18 -68 -30 -289 -34 -648 l-5 -336 157 -6 c201 -9 596 -9 694 -1 l77
7 0 1623 0 1624 -375 0 c-329 0 -374 -2 -369 -15z"/>
<path d="M4885 4120 c-4 -6 7 -10 27 -9 27 0 30 2 13 9 -27 12 -33 12 -40 0z"/>
<path d="M5308 3983 c6 -2 18 -2 25 0 6 3 1 5 -13 5 -14 0 -19 -2 -12 -5z"/>
<path d="M5727 3954 c-4 -4 -4 -11 -1 -15 6 -11 111 -11 139 0 16 7 14 9 -14
14 -43 9 -116 9 -124 1z"/>
<path d="M5338 3943 c7 -3 16 -2 19 1 4 3 -2 6 -13 5 -11 0 -14 -3 -6 -6z"/>
<path d="M5330 3876 c0 -24 -3 -51 -6 -60 -3 -9 -2 -16 3 -16 11 0 33 66 33
99 0 12 -6 21 -15 21 -11 0 -15 -12 -15 -44z"/>
<path d="M5716 3905 c-8 -8 -20 -15 -26 -15 -15 0 -33 -47 -38 -95 -2 -22 -5
-95 -7 -162 -4 -100 -2 -123 9 -123 8 0 17 6 19 13 4 10 6 10 6 0 1 -10 25
-13 89 -13 80 1 85 2 67 16 -19 14 -19 16 -2 28 22 17 22 27 0 19 -13 -5 -15
-2 -11 15 4 12 2 22 -4 22 -5 0 -6 9 -3 20 4 12 1 27 -5 35 -10 12 -10 15 0
15 7 0 10 7 6 15 -3 8 -1 15 4 15 13 0 13 57 0 65 -5 3 -10 35 -10 70 0 48 -4
64 -16 69 -27 11 -62 7 -78 -9z m-49 -357 c-3 -8 -6 -5 -6 6 -1 11 2 17 5 13
3 -3 4 -12 1 -19z"/>
<path d="M3646 3748 c-3 -29 -8 -71 -11 -93 -4 -28 -3 -34 3 -20 10 22 27 165
19 165 -2 0 -7 -24 -11 -52z"/>
<path d="M4357 3764 c-4 -4 -7 -19 -6 -33 l0 -26 10 24 c10 26 8 47 -4 35z"/>
<path d="M5320 3749 c0 -11 5 -17 10 -14 6 3 10 13 10 21 0 8 -4 14 -10 14 -5
0 -10 -9 -10 -21z"/>
<path d="M1376 3711 c-4 -7 -5 -15 -2 -18 9 -9 19 4 14 18 -4 11 -6 11 -12 0z"/>
<path d="M1505 3700 c3 -5 8 -10 11 -10 2 0 4 5 4 10 0 6 -5 10 -11 10 -5 0
-7 -4 -4 -10z"/>
<path d="M2323 3670 c0 -17 5 -29 11 -27 6 2 11 14 11 27 0 13 -5 25 -11 27
-6 2 -11 -10 -11 -27z"/>
<path d="M1790 3659 c0 -5 5 -7 10 -4 6 3 10 8 10 11 0 2 -4 4 -10 4 -5 0 -10
-5 -10 -11z"/>
<path d="M1830 3659 c0 -6 9 -8 20 -4 11 4 20 2 20 -4 0 -6 -9 -11 -20 -11
-16 0 -20 -6 -18 -27 2 -28 3 -28 61 -25 60 4 71 10 24 14 -30 3 -38 18 -9 18
13 0 10 6 -13 25 -31 25 -65 33 -65 14z"/>
<path d="M1750 3650 c0 -5 5 -10 10 -10 6 0 10 5 10 10 0 6 -4 10 -10 10 -5 0
-10 -4 -10 -10z"/>
<path d="M2062 3630 c0 -14 2 -19 5 -12 2 6 2 18 0 25 -3 6 -5 1 -5 -13z"/>
<path d="M1869 3528 c11 -25 17 -32 19 -20 2 9 10 22 17 27 10 8 5 13 -19 21
l-33 10 16 -38z"/>
<path d="M1760 3547 c-35 -12 -35 -12 -20 -42 19 -38 44 -35 61 8 7 18 14 35
17 40 5 10 -16 8 -58 -6z m13 -32 c-7 -21 -13 -19 -13 6 0 11 4 18 10 14 5 -3
7 -12 3 -20z"/>
<path d="M4151 3239 c1 -101 5 -209 9 -239 5 -32 6 43 3 180 -3 129 -7 237 -9
239 -2 2 -4 -79 -3 -180z"/>
<path d="M2245 3369 c-4 -6 -5 -12 -2 -15 2 -3 7 2 10 11 7 17 1 20 -8 4z"/>
<path d="M2200 3345 c-8 -9 -8 -15 -2 -15 12 0 26 19 19 26 -2 2 -10 -2 -17
-11z"/>
<path d="M1716 3308 c-10 -39 -7 -83 9 -104 13 -18 14 -15 15 31 0 28 3 60 6
73 5 16 2 22 -9 22 -8 0 -17 -10 -21 -22z"/>
<path d="M1835 3320 c-3 -5 -1 -10 4 -10 6 0 11 5 11 10 0 6 -2 10 -4 10 -3 0
-8 -4 -11 -10z"/>
<path d="M4211 3306 c-13 -33 -12 -204 1 -230 8 -15 12 -16 19 -5 7 11 9 9 9
-7 0 -12 -7 -27 -15 -34 -17 -14 -20 -66 -5 -75 6 -3 10 3 10 14 0 33 28 24
36 -11 5 -18 9 -37 9 -43 6 -52 18 -115 24 -115 21 0 61 112 61 175 0 22 5 47
10 55 7 12 11 10 19 -10 l10 -25 0 27 c1 15 6 30 11 33 6 3 10 11 10 16 0 6
-4 8 -9 4 -5 -3 1 15 15 40 24 47 34 145 15 145 -5 0 -11 10 -13 22 -4 31 -28
35 -28 4 0 -13 -4 -28 -10 -31 -5 -3 -10 -19 -10 -36 0 -64 -42 -8 -55 74 l-6
38 -24 -23 c-17 -16 -25 -34 -25 -58 0 -28 3 -32 11 -20 9 12 10 12 5 -3 -3
-10 -6 -28 -7 -40 0 -12 -3 -16 -6 -9 -2 6 -11 12 -19 12 -8 0 -14 6 -15 13
-2 45 -11 122 -14 126 -3 2 -9 -8 -14 -23z m166 -158 c-3 -7 -5 -2 -5 12 0 14
2 19 5 13 2 -7 2 -19 0 -25z m-127 1 c0 -6 -4 -7 -10 -4 -5 3 -10 11 -10 16 0
6 5 7 10 4 6 -3 10 -11 10 -16z"/>
<path d="M4270 3320 c0 -5 5 -10 10 -10 6 0 10 5 10 10 0 6 -4 10 -10 10 -5 0
-10 -4 -10 -10z"/>
<path d="M1824 3264 c-5 -25 -2 -40 8 -50 12 -13 15 -9 17 30 2 55 -15 70 -25
20z"/>
<path d="M2180 3270 c0 -5 5 -10 10 -10 6 0 10 5 10 10 0 6 -4 10 -10 10 -5 0
-10 -4 -10 -10z"/>
<path d="M4340 3260 c0 -11 5 -20 10 -20 6 0 10 9 10 20 0 11 -4 20 -10 20 -5
0 -10 -9 -10 -20z"/>
<path d="M1932 3245 c0 -16 2 -22 5 -12 2 9 2 23 0 30 -3 6 -5 -1 -5 -18z"/>
<path d="M1800 3150 c0 -5 5 -10 10 -10 6 0 10 5 10 10 0 6 -4 10 -10 10 -5 0
-10 -4 -10 -10z"/>
<path d="M1788 3123 c6 -2 18 -2 25 0 6 3 1 5 -13 5 -14 0 -19 -2 -12 -5z"/>
<path d="M4430 3089 c0 -5 5 -7 10 -4 6 3 10 8 10 11 0 2 -4 4 -10 4 -5 0 -10
-5 -10 -11z"/>
<path d="M2444 3056 c-10 -27 14 -56 47 -56 25 0 30 -3 25 -16 -4 -9 -1 -22 4
-30 9 -9 6 -15 -10 -24 -30 -16 -52 -72 -41 -102 9 -21 10 -20 11 12 l2 35 10
-35 c11 -41 23 -57 52 -72 17 -9 19 -8 9 3 -18 19 -16 29 6 29 32 0 51 11 51
30 0 11 5 22 11 26 8 5 10 -1 7 -19 -7 -34 17 -25 30 12 19 54 -24 111 -82
111 -14 0 -26 5 -26 11 0 22 92 3 113 -22 30 -37 20 -134 -16 -165 -35 -30
-35 -40 1 -19 68 41 89 117 49 175 -13 20 -22 40 -20 46 2 5 -24 16 -58 23
-34 7 -79 23 -100 37 -22 13 -39 20 -39 15 0 -6 14 -18 30 -28 17 -9 30 -21
30 -25 0 -16 -18 -7 -54 28 -28 27 -38 32 -42 20z m83 -208 c-3 -8 -6 -5 -6 6
-1 11 2 17 5 13 3 -3 4 -12 1 -19z m61 -5 c-4 -24 -38 -26 -38 -2 0 13 7 19
21 19 14 0 19 -5 17 -17z"/>
<path d="M3531 3022 c-1 -65 17 -191 31 -212 8 -13 9 -12 4 2 -3 9 -8 63 -12
120 -8 118 -22 174 -23 90z"/>
<path d="M2368 3048 c-31 -11 -36 -34 -14 -63 12 -16 16 -17 30 -6 19 16 22
35 4 25 -7 -4 -3 3 10 15 39 38 26 50 -30 29z"/>
<path d="M1665 3040 c3 -6 18 -7 33 -4 16 4 23 3 19 -2 -5 -5 -13 -9 -19 -9
-6 0 -12 -8 -14 -17 -1 -10 -9 -25 -18 -34 -9 -8 -16 -21 -16 -27 0 -7 11 0
25 15 14 15 25 31 25 35 0 5 9 14 20 21 32 19 24 32 -21 32 -24 0 -38 -4 -34
-10z"/>
<path d="M1460 3031 c-31 -6 -33 -8 -13 -14 15 -6 20 -13 16 -25 -4 -9 5 -3
19 13 39 45 46 22 17 -60 l-26 -73 24 -31 c22 -28 24 -36 15 -76 -5 -25 -7
-45 -3 -45 6 0 63 81 92 132 17 28 16 31 -22 100 -44 80 -46 87 -21 66 30 -26
53 -30 68 -11 20 27 17 33 -18 32 -24 -1 -27 -3 -10 -6 12 -2 22 -9 22 -14 0
-14 -34 -11 -56 6 -20 15 -46 17 -104 6z m117 -145 c-3 -6 -9 1 -15 16 -6 14
-16 29 -21 33 -6 3 -11 21 -11 38 1 30 2 29 26 -22 14 -29 23 -58 21 -65z
m-71 -1 c-17 -17 -21 -9 -10 20 5 11 10 13 17 6 6 -6 4 -15 -7 -26z m43 -38
c-8 -14 -13 -16 -25 -7 -17 15 -10 29 15 27 16 -1 18 -5 10 -20z"/>
<path d="M1770 3018 c0 -17 23 -68 31 -68 5 0 2 15 -7 33 -18 34 -24 44 -24
35z"/>
<path d="M1890 3002 c-13 -10 -21 -25 -18 -32 3 -9 12 -3 27 18 25 36 23 40
-9 14z"/>
<path d="M2470 2965 c-7 -9 -8 -15 -2 -15 5 0 12 7 16 15 3 8 4 15 2 15 -2 0
-9 -7 -16 -15z"/>
<path d="M6 2934 c-10 -25 1 -29 14 -5 6 12 7 21 1 21 -5 0 -12 -7 -15 -16z"/>
<path d="M2400 2937 c-30 -14 -41 -27 -32 -42 3 -5 -2 -4 -11 4 -15 12 -17 11
-17 -13 0 -15 4 -25 8 -22 5 3 14 -19 21 -49 11 -48 31 -84 31 -56 0 6 10 11
21 11 18 0 19 2 9 15 -11 13 -8 19 11 17 3 -1 6 6 6 14 0 8 -6 13 -14 10 -7
-3 -13 -1 -13 4 0 6 5 10 11 10 6 0 9 6 6 14 -3 7 0 19 6 25 6 6 7 11 2 11 -6
0 -17 4 -25 10 -12 7 -12 12 4 29 21 23 14 26 -24 8z m4 -72 c4 -13 2 -14 -14
-5 -23 13 -26 20 -6 20 8 0 16 -7 20 -15z m6 -75 c0 -5 -5 -10 -11 -10 -5 0
-7 5 -4 10 3 6 8 10 11 10 2 0 4 -4 4 -10z"/>
<path d="M3601 2904 c0 -11 3 -14 6 -6 3 7 2 16 -1 19 -3 4 -6 -2 -5 -13z"/>
<path d="M1160 2851 c0 -6 5 -11 11 -11 5 0 8 -4 4 -9 -3 -5 0 -13 6 -16 7 -5
9 1 7 16 -3 22 -28 40 -28 20z"/>
<path d="M1384 2826 c7 -35 54 -96 75 -96 16 0 3 -24 -20 -38 -12 -8 -19 -9
-15 -4 6 10 -21 52 -33 52 -5 0 -16 -11 -25 -25 -15 -23 -15 -27 0 -50 14 -21
19 -23 33 -13 14 11 14 11 4 -2 -12 -16 -30 -100 -21 -100 2 0 26 30 53 68 27
37 53 70 58 73 5 4 6 13 1 21 -21 34 -106 148 -111 148 -3 0 -2 -15 1 -34z"/>
<path d="M2236 2803 c-6 -14 -5 -15 5 -6 7 7 10 15 7 18 -3 3 -9 -2 -12 -12z"/>
<path d="M2450 2780 c0 -5 5 -10 11 -10 5 0 7 5 4 10 -3 6 -8 10 -11 10 -2 0
-4 -4 -4 -10z"/>
<path d="M2480 2768 c0 -9 5 -20 10 -23 13 -8 13 5 0 25 -8 13 -10 13 -10 -2z"/>
<path d="M3571 2754 c0 -11 3 -14 6 -6 3 7 2 16 -1 19 -3 4 -6 -2 -5 -13z"/>
<path d="M1640 2756 c0 -4 9 -16 20 -28 11 -12 20 -17 20 -11 0 5 -9 18 -20
28 -11 10 -20 15 -20 11z"/>
<path d="M2400 2713 c0 -21 -7 -36 -22 -46 -20 -13 -21 -17 -9 -29 11 -11 14
-11 18 1 3 7 14 21 24 29 23 20 23 31 4 56 -14 19 -15 18 -15 -11z"/>
<path d="M1703 2713 c-7 -2 -13 -10 -13 -16 0 -6 -9 -20 -19 -31 -11 -12 -24
-39 -30 -60 -12 -45 -9 -43 47 41 51 76 52 81 15 66z"/>
<path d="M2450 2710 c0 -5 5 -10 10 -10 6 0 10 5 10 10 0 6 -4 10 -10 10 -5 0
-10 -4 -10 -10z"/>
<path d="M2206 2685 c-9 -26 -7 -32 5 -12 6 10 9 21 6 23 -2 3 -7 -2 -11 -11z"/>
<path d="M2280 2667 c-14 -29 -7 -48 11 -30 6 6 9 21 7 34 l-4 24 -14 -28z"/>
<path d="M1228 2559 l-26 -37 45 2 c24 1 47 -2 50 -7 2 -4 14 -5 25 -1 16 5
19 3 13 -7 -5 -8 1 -6 13 5 22 19 21 28 -12 71 -15 20 -15 20 -9 -2 3 -14 1
-23 -6 -23 -7 0 -9 -4 -6 -10 14 -22 -15 -8 -37 18 l-24 28 -26 -37z"/>
<path d="M946 2524 c-10 -6 -14 -18 -10 -28 8 -21 34 -21 34 0 0 14 3 14 15 4
25 -21 25 -6 0 16 -18 17 -26 18 -39 8z"/>
<path d="M1594 2532 c-16 -10 -71 -122 -60 -122 6 0 77 122 74 126 -2 1 -8 0
-14 -4z"/>
<path d="M2200 2521 c0 -11 4 -22 9 -25 4 -3 6 6 3 19 -5 30 -12 33 -12 6z"/>
<path d="M636 2504 c18 -26 28 -27 18 -1 -3 8 -12 18 -20 21 -11 4 -11 0 2
-20z"/>
<path d="M1388 2483 c5 -26 24 -48 47 -53 6 -1 17 -7 25 -13 13 -10 13 -10 1
5 -7 10 -18 15 -23 12 -5 -3 -8 0 -6 8 3 12 -34 68 -45 68 -2 0 -2 -12 1 -27z"/>
<path d="M4221 2479 c-29 -66 -145 -247 -183 -286 -28 -28 -43 -55 -50 -85
-13 -62 -31 -1069 -20 -1080 6 -6 67 -5 163 3 85 6 211 13 281 13 l128 1 0 25
c-1 98 -21 500 -30 592 -16 164 -58 363 -91 434 -16 34 -29 70 -29 81 0 31
-27 91 -75 163 -23 36 -48 86 -55 113 -16 59 -22 63 -39 26z"/>
<path d="M828 2419 c4 -28 27 -46 37 -28 10 15 -4 46 -23 51 -15 4 -17 0 -14
-23z"/>
<path d="M670 2424 c0 -8 5 -12 10 -9 6 4 8 11 5 16 -9 14 -15 11 -15 -7z"/>
<path d="M790 2419 c0 -5 5 -7 10 -4 6 3 10 8 10 11 0 2 -4 4 -10 4 -5 0 -10
-5 -10 -11z"/>
<path d="M585 2310 c-3 -5 -3 -10 2 -10 4 0 2 -4 -5 -9 -9 -5 -12 -31 -9 -92
2 -59 5 -77 11 -61 5 14 14 21 22 18 9 -3 14 2 14 14 0 20 15 35 23 23 2 -5 2
-2 0 5 -1 7 2 23 8 34 8 16 8 23 -2 29 -11 8 -9 13 9 28 12 11 22 22 22 25 0
10 -89 6 -95 -4z"/>
<path d="M1228 2313 c6 -2 18 -2 25 0 6 3 1 5 -13 5 -14 0 -19 -2 -12 -5z"/>
<path d="M4045 2294 c-27 -13 -39 -22 -25 -18 43 9 80 26 80 35 0 5 -1 9 -2 8
-2 0 -25 -12 -53 -25z"/>
<path d="M1050 2295 c0 -9 -6 -12 -16 -8 -28 10 -33 -17 -8 -44 23 -25 24 -43
1 -43 -8 0 -8 3 1 9 11 6 10 10 -4 15 -22 8 -24 5 -18 -21 5 -17 12 -21 35
-18 16 2 29 -1 29 -7 0 -6 11 1 25 16 13 14 22 33 19 41 -4 10 0 15 14 15 13
0 21 -6 20 -17 -1 -26 8 -63 25 -102 14 -33 15 -33 26 -13 17 31 13 49 -5 26
-15 -18 -15 -18 -10 6 3 14 6 28 6 33 0 4 11 7 24 7 17 0 26 7 30 25 4 14 12
25 19 24 28 -3 57 2 57 10 0 5 -34 8 -74 7 -64 -1 -76 2 -80 16 -2 12 -10 16
-20 12 -9 -3 -16 -1 -16 4 0 6 17 13 38 15 20 2 2 4 -40 5 -63 2 -78 -1 -78
-13z"/>
<path d="M930 2270 c0 -5 9 -10 21 -10 11 0 17 5 14 10 -3 6 -13 10 -21 10 -8
0 -14 -4 -14 -10z"/>
<path d="M3925 2260 c-3 -5 -2 -10 4 -10 5 0 13 5 16 10 3 6 2 10 -4 10 -5 0
-13 -4 -16 -10z"/>
<path d="M327 2185 c6 -46 24 -95 35 -95 14 0 7 34 -17 85 l-23 50 5 -40z"/>
<path d="M1460 2205 c-11 -13 -10 -14 4 -9 9 3 16 10 16 15 0 13 -6 11 -20 -6z"/>
<path d="M4751 2194 c0 -11 3 -14 6 -6 3 7 2 16 -1 19 -3 4 -6 -2 -5 -13z"/>
<path d="M981 2184 c0 -11 3 -14 6 -6 3 7 2 16 -1 19 -3 4 -6 -2 -5 -13z"/>
<path d="M1100 2189 c0 -5 5 -7 10 -4 6 3 10 8 10 11 0 2 -4 4 -10 4 -5 0 -10
-5 -10 -11z"/>
<path d="M1415 2180 c3 -5 8 -10 11 -10 2 0 4 5 4 10 0 6 -5 10 -11 10 -5 0
-7 -4 -4 -10z"/>
<path d="M475 2142 l4 -37 -15 35 -14 35 5 -60 c3 -32 9 -62 14 -65 5 -3 12
-20 16 -37 10 -49 26 -40 21 12 -2 25 2 55 8 67 21 42 17 66 -14 76 -28 10
-28 10 -25 -26z"/>
<path d="M1660 2137 c0 -7 4 -18 9 -25 6 -11 9 -9 14 7 3 12 -1 22 -9 25 -8 3
-14 0 -14 -7z"/>
<path d="M3947 2133 c-11 -10 -8 -43 3 -43 6 0 10 4 10 9 0 5 3 16 6 25 6 16
-7 22 -19 9z"/>
<path d="M3917 2115 c-4 -8 -2 -17 3 -20 6 -4 10 3 10 14 0 25 -6 27 -13 6z"/>
<path d="M757 2113 c-12 -11 -8 -42 7 -50 8 -4 16 -21 18 -37 3 -28 4 -29 21
-12 23 23 22 37 -4 43 -17 5 -20 11 -15 34 5 28 -10 40 -27 22z"/>
<path d="M4658 2113 c7 -3 16 -2 19 1 4 3 -2 6 -13 5 -11 0 -14 -3 -6 -6z"/>
<path d="M827 2088 c-6 -21 -2 -36 7 -27 10 11 16 49 8 49 -5 0 -12 -10 -15
-22z"/>
<path d="M4628 2047 c2 -58 2 -61 -13 -42 -15 19 -16 14 -14 -65 2 -99 5 -110
29 -110 16 0 17 11 13 133 -2 72 -7 135 -11 139 -4 4 -6 -21 -4 -55z"/>
<path d="M5579 2093 c-1 -10 -1 -22 0 -27 1 -5 -5 -6 -14 -3 -8 4 -15 2 -15
-3 0 -6 7 -10 15 -10 8 0 15 -5 15 -12 0 -23 17 6 23 40 5 24 3 32 -8 32 -8 0
-16 -8 -16 -17z"/>
<path d="M916 2071 c-4 -7 -5 -15 -2 -18 9 -9 19 4 14 18 -4 11 -6 11 -12 0z"/>
<path d="M1200 2070 c0 -5 7 -10 15 -10 8 0 15 5 15 10 0 6 -7 10 -15 10 -8 0
-15 -4 -15 -10z"/>
<path d="M3913 2068 c-15 -25 -18 -105 -18 -476 1 -357 2 -394 18 -409 16 -16
17 -8 17 147 1 203 18 682 26 714 4 18 1 25 -15 29 -12 3 -24 0 -28 -5z"/>
<path d="M4601 2053 c0 -25 1 -26 9 -8 12 27 12 35 0 35 -5 0 -10 -12 -9 -27z"/>
<path d="M720 2045 c0 -9 5 -15 11 -13 6 2 11 8 11 13 0 5 -5 11 -11 13 -6 2
-11 -4 -11 -13z"/>
<path d="M5543 2008 c-11 -18 -15 -886 -4 -923 6 -20 10 -25 14 -15 3 8 11
191 17 405 6 215 13 425 16 468 5 72 4 77 -15 77 -11 0 -23 -6 -28 -12z"/>
<path d="M720 1959 c0 -33 6 -54 21 -70 l20 -24 -6 23 c-5 16 -2 22 9 22 10 0
16 8 15 23 -1 16 -2 18 -6 5 -7 -26 -23 -22 -23 5 0 13 -7 32 -15 43 -13 18
-14 16 -15 -27z"/>
<path d="M200 1980 c0 -5 5 -10 10 -10 6 0 10 5 10 10 0 6 -4 10 -10 10 -5 0
-10 -4 -10 -10z"/>
<path d="M642 1918 c2 -13 11 -24 22 -26 11 -3 16 0 12 7 -5 7 -1 9 8 5 9 -3
16 -1 16 5 0 10 -39 31 -56 31 -3 0 -4 -10 -2 -22z"/>
<path d="M364 1902 c-14 -9 -27 -102 -14 -102 6 0 10 11 10 23 0 30 10 40 27
26 10 -9 13 -6 13 14 0 28 -20 49 -36 39z"/>
<path d="M249 1848 c-1 -13 -3 -34 -4 -48 -5 -41 17 -132 28 -121 10 10 12
164 2 181 -11 17 -25 11 -26 -12z"/>
<path d="M730 1834 c0 -14 4 -23 10 -19 6 3 10 15 10 26 0 10 -4 19 -10 19 -5
0 -10 -12 -10 -26z"/>
<path d="M761 1844 c0 -11 3 -14 6 -6 3 7 2 16 -1 19 -3 4 -6 -2 -5 -13z"/>
<path d="M396 1794 c-4 -14 -5 -29 -2 -31 3 -3 8 7 12 21 3 15 4 29 1 32 -2 3
-8 -7 -11 -22z"/>
<path d="M4604 1778 c-11 -17 -14 -119 -14 -496 0 -243 3 -328 12 -345 11 -19
15 8 25 183 6 113 16 252 21 310 16 161 25 356 16 348 -4 -4 -10 -36 -14 -70
l-7 -63 -2 73 c-1 55 -4 72 -15 72 -8 0 -18 -6 -22 -12z"/>
<path d="M357 1759 c4 -13 8 -18 11 -10 2 7 -1 18 -6 23 -8 8 -9 4 -5 -13z"/>
<path d="M850 1733 c0 -31 10 -53 25 -53 7 0 16 -6 18 -12 3 -8 6 -6 6 5 1 10
-4 23 -9 30 -6 7 -17 21 -25 32 -14 20 -14 20 -15 -2z"/>
<path d="M481 1591 c0 -43 4 -92 8 -108 l9 -28 10 25 c6 14 11 19 11 13 1 -7
4 -13 9 -13 4 0 8 43 9 95 2 56 -2 95 -7 95 -10 0 -14 -20 -12 -55 2 -16 0
-17 -8 -5 -5 8 -10 23 -10 32 0 9 -4 19 -10 23 -5 3 -9 -26 -9 -74z"/>
<path d="M762 1650 c0 -14 2 -19 5 -12 2 6 2 18 0 25 -3 6 -5 1 -5 -13z"/>
<path d="M580 1650 c0 -5 -6 -10 -13 -10 -19 0 -15 -47 6 -62 9 -7 21 -26 25
-42 9 -32 32 -48 32 -22 0 9 -7 33 -15 53 -8 19 -15 48 -15 64 0 16 -4 29 -10
29 -5 0 -10 -4 -10 -10z"/>
<path d="M654 1651 c-9 -9 -3 -81 6 -81 6 0 10 5 10 10 0 6 11 8 25 4 23 -6
25 -4 25 32 0 37 -2 39 -31 39 -17 0 -33 -2 -35 -4z"/>
<path d="M788 1615 c-3 -14 -1 -25 3 -25 5 0 9 11 9 25 0 14 -2 25 -4 25 -2 0
-6 -11 -8 -25z"/>
<path d="M387 1567 c-2 -6 1 -44 8 -82 l13 -70 1 77 c1 70 -10 107 -22 75z"/>
<path d="M647 1534 c-10 -11 -8 -64 2 -64 13 0 24 51 13 62 -4 4 -11 5 -15 2z"/>
<path d="M921 1521 c-17 -13 -22 -24 -17 -39 7 -20 9 -21 31 -6 16 11 24 24
23 40 -3 29 -6 29 -37 5z m9 -25 c0 -3 -4 -8 -10 -11 -5 -3 -10 -1 -10 4 0 6
5 11 10 11 6 0 10 -2 10 -4z"/>
<path d="M1396 1504 c-11 -28 -7 -109 4 -98 15 15 25 114 12 114 -5 0 -13 -7
-16 -16z"/>
<path d="M20 1475 c0 -8 5 -15 10 -15 6 0 10 7 10 15 0 8 -4 15 -10 15 -5 0
-10 -7 -10 -15z"/>
<path d="M1270 1339 c0 -5 5 -7 10 -4 6 3 10 8 10 11 0 2 -4 4 -10 4 -5 0 -10
-5 -10 -11z"/>
<path d="M1171 1274 c0 -11 3 -14 6 -6 3 7 2 16 -1 19 -3 4 -6 -2 -5 -13z"/>
<path d="M1600 1201 c0 -14 5 -19 15 -14 17 6 15 25 -3 31 -7 2 -12 -5 -12
-17z"/>
<path d="M3916 1125 c-3 -8 -1 -15 4 -15 6 0 10 7 10 15 0 8 -2 15 -4 15 -2 0
-6 -7 -10 -15z"/>
<path d="M5540 1038 c0 -7 5 -20 10 -28 8 -12 10 -9 10 13 0 15 -4 27 -10 27
-5 0 -10 -6 -10 -12z"/>
<path d="M83 693 c9 -2 25 -2 35 0 9 3 1 5 -18 5 -19 0 -27 -2 -17 -5z"/>
<path d="M285 680 c27 -12 35 -12 35 0 0 6 -12 10 -27 9 -25 0 -26 -1 -8 -9z"/>
<path d="M433 673 c9 -2 23 -2 30 0 6 3 -1 5 -18 5 -16 0 -22 -2 -12 -5z"/>
<path d="M570 670 c0 -5 4 -10 9 -10 6 0 13 5 16 10 3 6 -1 10 -9 10 -9 0 -16
-4 -16 -10z"/>
<path d="M1175 650 c10 -17 66 -39 82 -33 23 9 14 21 -19 28 -18 4 -41 9 -52
12 -13 3 -16 1 -11 -7z"/>
<path d="M1365 650 c-3 -5 3 -10 15 -10 12 0 18 5 15 10 -3 6 -10 10 -15 10
-5 0 -12 -4 -15 -10z"/>
<path d="M918 643 c7 -3 16 -2 19 1 4 3 -2 6 -13 5 -11 0 -14 -3 -6 -6z"/>
<path d="M1050 640 c8 -5 29 -9 45 -9 26 0 27 2 10 9 -11 5 -31 9 -45 9 -20 1
-22 -1 -10 -9z"/>
<path d="M1130 640 c0 -5 5 -10 10 -10 6 0 10 5 10 10 0 6 -4 10 -10 10 -5 0
-10 -4 -10 -10z"/>
<path d="M1960 604 c0 -14 3 -14 15 -4 8 7 15 14 15 16 0 2 -7 4 -15 4 -8 0
-15 -7 -15 -16z"/>
<path d="M1798 570 c3 -21 8 -28 14 -22 12 12 7 44 -8 49 -7 2 -9 -8 -6 -27z"/>
<path d="M240 551 c-14 -28 -13 -36 5 -21 8 7 12 17 8 23 -4 6 0 8 11 4 10 -4
15 -3 11 3 -10 16 -23 12 -35 -9z"/>
<path d="M4008 553 c7 -3 16 -2 19 1 4 3 -2 6 -13 5 -11 0 -14 -3 -6 -6z"/>
<path d="M120 541 c0 -5 5 -13 10 -16 6 -3 10 -2 10 4 0 5 -4 13 -10 16 -5 3
-10 2 -10 -4z"/>
<path d="M173 533 c9 -9 19 -14 23 -11 10 10 -6 28 -24 28 -15 0 -15 -1 1 -17z"/>
<path d="M430 539 c0 -5 5 -7 10 -4 6 3 10 8 10 11 0 2 -4 4 -10 4 -5 0 -10
-5 -10 -11z"/>
<path d="M14 522 c3 -5 0 -12 -6 -15 -7 -2 -10 -7 -7 -11 3 -4 12 0 18 8 9 11
9 16 0 22 -7 4 -9 3 -5 -4z"/>
<path d="M3945 519 c-4 -6 -5 -13 -2 -16 7 -7 27 6 27 18 0 12 -17 12 -25 -2z"/>
<path d="M3905 510 c-3 -5 -2 -10 4 -10 5 0 13 5 16 10 3 6 2 10 -4 10 -5 0
-13 -4 -16 -10z"/>
<path d="M151 500 c-7 -4 -11 -9 -10 -11 6 -8 -20 -43 -27 -37 -4 4 -1 16 7
25 12 17 12 17 -5 2 -11 -10 -16 -27 -14 -43 l3 -27 43 44 c32 32 40 46 29 50
-7 3 -19 2 -26 -3z"/>
<path d="M50 469 c0 -18 -3 -20 -12 -11 -23 23 -27 12 -7 -22 22 -38 45 -51
55 -34 4 7 2 14 -4 16 -7 2 -12 17 -12 32 0 16 -4 32 -10 35 -6 3 -10 -4 -10
-16z"/>
<path d="M338 473 c7 -3 16 -2 19 1 4 3 -2 6 -13 5 -11 0 -14 -3 -6 -6z"/>
<path d="M355 454 c-11 -14 -26 -32 -32 -39 -15 -16 -17 -35 -4 -35 15 0 82
80 76 90 -9 15 -18 11 -40 -16z"/>
<path d="M1340 435 c24 -25 48 -45 52 -45 4 0 8 11 8 25 0 14 -4 25 -10 25 -5
0 -10 -5 -10 -11 0 -8 -5 -8 -15 1 -8 7 -12 16 -9 21 3 5 -2 9 -11 9 -9 0 -13
5 -10 10 3 6 -4 10 -16 10 -21 0 -19 -5 21 -45z"/>
<path d="M220 461 c0 -7 -4 -9 -10 -6 -6 4 -7 -1 -3 -11 6 -15 7 -15 15 1 6 9
7 19 4 22 -3 4 -6 1 -6 -6z"/>
<path d="M302 458 c-15 -15 -16 -52 -2 -43 6 4 8 11 4 16 -3 5 0 16 6 24 15
18 9 20 -8 3z"/>
<path d="M676 388 c5 -8 2 -9 -9 -5 -9 3 -19 2 -22 -3 -8 -14 12 -21 39 -14
22 5 23 8 11 20 -17 17 -29 18 -19 2z"/>
<path d="M206 354 c-10 -37 -4 -38 35 -4 l34 29 -31 1 c-26 0 -33 -5 -38 -26z"/>
<path d="M1677 359 c4 -13 8 -18 11 -10 2 7 -1 18 -6 23 -8 8 -9 4 -5 -13z"/>
<path d="M422 358 c-19 -19 -15 -49 6 -41 26 9 52 34 46 44 -8 13 -38 11 -52
-3z"/>
<path d="M1446 354 c-9 -22 -8 -24 9 -24 8 0 15 6 15 14 0 22 -17 28 -24 10z"/>
<path d="M15 350 c-3 -5 -1 -10 4 -10 6 0 11 5 11 10 0 6 -2 10 -4 10 -3 0 -8
-4 -11 -10z"/>
<path d="M1231 350 c0 -16 22 -50 33 -50 12 0 6 18 -14 41 -13 17 -19 19 -19
9z"/>
<path d="M715 340 c3 -5 11 -10 16 -10 6 0 7 5 4 10 -3 6 -11 10 -16 10 -6 0
-7 -4 -4 -10z"/>
<path d="M288 333 c6 -2 18 -2 25 0 6 3 1 5 -13 5 -14 0 -19 -2 -12 -5z"/>
<path d="M115 320 c3 -5 10 -10 16 -10 5 0 9 5 9 10 0 6 -7 10 -16 10 -8 0
-12 -4 -9 -10z"/>
<path d="M590 290 c0 -5 5 -10 10 -10 6 0 10 5 10 10 0 6 -4 10 -10 10 -5 0
-10 -4 -10 -10z"/>
</g>
</svg>
